<svg width="201" height="61" viewBox="0 0 201 61" fill="none" xmlns="http://www.w3.org/2000/svg">
<path d="M28.5285 4.02856V14.303H23.3449V6.52371L39.0439 10.0467V55.4016L48.6705 52.4656L51.928 21.2049L1.27686 21.058V42.0477L36.229 54.3773L35.1919 28.5406L16.6056 27.969C16.6056 27.969 14.7725 28.1701 13.3594 28.98C11.9242 29.8033 10.3863 31.2376 10.0131 33.6779L9.56832 43.366L9.71659 46.3012C9.71659 46.3012 9.82938 49.9916 12.0257 51.809C12.355 52.0826 12.7249 52.3041 13.1224 52.4656L13.4558 52.536L14.0113 52.5915H14.6221L15.4549 52.4811L16.0104 52.3714L16.6212 51.9862L17.1766 51.6009L17.5101 51.1052L17.8435 50.6131L18.0655 50.173L18.2876 49.5121L18.3429 49.02L18.5096 48.6347L18.5656 47.7538V46.9804L18.5096 36.6876L18.4543 35.9719L18.3989 35.1986L18.2876 34.5377L18.1209 33.9324L17.9541 33.3819L17.7881 32.9966L17.5101 32.5045L16.8993 31.4583L16.0104 30.5225L15.0108 29.7161L14.178 29.2015L12.7592 28.5807L11.766 28.3888L10.736 28.3761L9.79533 28.5955L9.01499 28.9259L8.23465 29.418L7.73807 29.8589L6.95773 30.6322L6.2909 31.4576L5.84965 32.1726L5.34952 33.0536L5.07215 33.6589L4.79406 34.4843L4.62735 35.3104L4.57202 36.0254L4.51668 37.0715L4.55357 37.9707L4.51668 38.6675L4.40389 45.8239L4.45993 46.4847V46.9249L4.51527 47.8051L4.5706 48.2459L4.68198 49.0193L4.90402 49.6246L5.07073 49.955L5.12606 50.2855L5.51481 50.9456L5.90356 51.3858L6.29231 51.7162L6.95915 52.1015L7.62528 52.4319L8.23607 52.5416L9.18028 52.652H9.84712L10.4579 52.5416L11.124 52.3771L11.6206 52.2118L12.5095 51.3858L12.7315 50.9456L13.1203 50.3403L13.4537 49.7898L13.7311 49.1289L13.8978 48.5791L14.0092 46.8728V45.6615L14.0645 37.4603" stroke="#0C0C0C" stroke-width="2.55384" stroke-linecap="round" stroke-linejoin="round"/>
<path d="M64.4443 25.9821V6.80431H69.0374C70.3317 6.80431 71.4208 6.96215 72.3048 7.27783C73.2045 7.57773 73.8832 8.09861 74.3409 8.84046C74.8144 9.58232 75.0512 10.5925 75.0512 11.871C75.0512 12.6444 74.9802 13.3389 74.8381 13.9545C74.6961 14.5701 74.4514 15.0989 74.1042 15.5408C73.7727 15.967 73.3071 16.2985 72.7073 16.5352L75.3827 25.9821H71.8786L69.5583 17.1982H67.9483V25.9821H64.4443ZM67.9483 14.9963H69.0374C69.7162 14.9963 70.2528 14.9016 70.6474 14.7122C71.0578 14.507 71.3498 14.1913 71.5234 13.7651C71.6971 13.3232 71.7839 12.7628 71.7839 12.0841C71.7839 11.1213 71.6024 10.4031 71.2393 9.92957C70.8921 9.44026 70.2213 9.19561 69.2268 9.19561H67.9483V14.9963ZM76.7452 25.9821L80.5807 6.80431H84.3216L88.1571 25.9821H84.9135L84.1558 21.5546H80.8175L80.0362 25.9821H76.7452ZM81.1726 19.329H83.777L82.4748 11.2791L81.1726 19.329ZM90.0858 25.9821V6.80431H94.608C96.1706 6.80431 97.386 7.01739 98.2541 7.44357C99.138 7.86974 99.7615 8.52478 100.125 9.40869C100.503 10.2926 100.693 11.4133 100.693 12.7707V19.7789C100.693 21.1679 100.503 22.328 100.125 23.2593C99.7615 24.1748 99.1459 24.8614 98.2778 25.3191C97.4254 25.7611 96.2495 25.9821 94.75 25.9821H90.0858ZM93.5899 23.5434H94.6553C95.4603 23.5434 96.0364 23.4013 96.3837 23.1172C96.7309 22.8331 96.944 22.4227 97.0229 21.8861C97.1019 21.3336 97.1413 20.6628 97.1413 19.8736V12.534C97.1413 11.7605 97.0861 11.1371 96.9756 10.6635C96.8651 10.19 96.6362 9.84276 96.289 9.62178C95.9417 9.4008 95.3814 9.29031 94.608 9.29031H93.5899V23.5434ZM102.086 25.9821L105.922 6.80431H109.663L113.498 25.9821H110.254L109.497 21.5546H106.158L105.377 25.9821H102.086ZM106.514 19.329H109.118L107.816 11.2791L106.514 19.329ZM115.427 25.9821V6.80431H120.02C121.314 6.80431 122.403 6.96215 123.287 7.27783C124.187 7.57773 124.866 8.09861 125.323 8.84046C125.797 9.58232 126.034 10.5925 126.034 11.871C126.034 12.6444 125.963 13.3389 125.821 13.9545C125.679 14.5701 125.434 15.0989 125.087 15.5408C124.755 15.967 124.29 16.2985 123.69 16.5352L126.365 25.9821H122.861L120.541 17.1982H118.931V25.9821H115.427ZM118.931 14.9963H120.02C120.699 14.9963 121.235 14.9016 121.63 14.7122C122.04 14.507 122.332 14.1913 122.506 13.7651C122.68 13.3232 122.766 12.7628 122.766 12.0841C122.766 11.1213 122.585 10.4031 122.222 9.92957C121.875 9.44026 121.204 9.19561 120.209 9.19561H118.931V14.9963ZM133.459 26.2425C132.307 26.2425 131.344 26.0215 130.57 25.5796C129.797 25.1218 129.213 24.4589 128.818 23.5908C128.424 22.7226 128.203 21.6572 128.156 20.3945L131.162 19.8026C131.194 20.5444 131.281 21.1995 131.423 21.7677C131.581 22.3359 131.81 22.7779 132.109 23.0936C132.425 23.3935 132.836 23.5434 133.341 23.5434C133.909 23.5434 134.311 23.3777 134.548 23.0462C134.785 22.699 134.903 22.2649 134.903 21.744C134.903 20.9074 134.714 20.2208 134.335 19.6842C133.956 19.1475 133.451 18.6109 132.82 18.0742L130.405 15.9433C129.726 15.3593 129.181 14.7122 128.771 14.0019C128.376 13.2758 128.179 12.384 128.179 11.3265C128.179 9.81119 128.621 8.64316 129.505 7.82239C130.389 7.00161 131.596 6.59122 133.128 6.59122C134.027 6.59122 134.777 6.73328 135.377 7.01739C135.977 7.28572 136.45 7.66454 136.797 8.15385C137.16 8.64316 137.429 9.2035 137.602 9.83486C137.776 10.4504 137.886 11.1055 137.934 11.8L134.951 12.3209C134.919 11.7211 134.848 11.1844 134.738 10.7109C134.643 10.2374 134.461 9.86643 134.193 9.5981C133.94 9.32977 133.562 9.19561 133.056 9.19561C132.536 9.19561 132.133 9.36923 131.849 9.71648C131.581 10.048 131.447 10.4662 131.447 10.9713C131.447 11.6185 131.581 12.1551 131.849 12.5813C132.117 12.9917 132.504 13.4179 133.009 13.8598L135.4 15.967C136.19 16.6299 136.86 17.4113 137.413 18.311C137.981 19.1949 138.265 20.2682 138.265 21.5309C138.265 22.4464 138.06 23.2593 137.65 23.9696C137.255 24.6799 136.695 25.2402 135.969 25.6506C135.258 26.0452 134.422 26.2425 133.459 26.2425ZM145.537 26.2425C144.18 26.2425 143.099 25.9899 142.294 25.4849C141.489 24.9798 140.912 24.2537 140.565 23.3066C140.218 22.3596 140.044 21.2389 140.044 19.9446V12.7707C140.044 11.4764 140.218 10.3715 140.565 9.45605C140.912 8.52478 141.489 7.81449 142.294 7.32518C143.099 6.83588 144.18 6.59122 145.537 6.59122C146.926 6.59122 148.015 6.83588 148.805 7.32518C149.61 7.81449 150.186 8.52478 150.533 9.45605C150.896 10.3715 151.077 11.4764 151.077 12.7707V19.9683C151.077 21.2468 150.896 22.3596 150.533 23.3066C150.186 24.2379 149.61 24.964 148.805 25.4849C148.015 25.9899 146.926 26.2425 145.537 26.2425ZM145.537 23.6618C146.121 23.6618 146.547 23.5355 146.816 23.283C147.1 23.0304 147.289 22.6832 147.384 22.2412C147.479 21.7993 147.526 21.3178 147.526 20.797V11.9657C147.526 11.4291 147.479 10.9476 147.384 10.5215C147.289 10.0953 147.1 9.76384 146.816 9.52707C146.547 9.27453 146.121 9.14825 145.537 9.14825C144.985 9.14825 144.566 9.27453 144.282 9.52707C143.998 9.76384 143.809 10.0953 143.714 10.5215C143.619 10.9476 143.572 11.4291 143.572 11.9657V20.797C143.572 21.3178 143.612 21.7993 143.69 22.2412C143.785 22.6832 143.975 23.0304 144.259 23.283C144.543 23.5355 144.969 23.6618 145.537 23.6618ZM153.669 25.9821V6.80431H161.554V9.21928H157.174V14.8069H160.749V17.2455H157.174V25.9821H153.669ZM165.368 25.9821V9.38502H162.313V6.80431H171.878V9.38502H168.872V25.9821H165.368Z" fill="black"/>
<path d="M66.362 53.7317V37.1347H63.3078V34.5539H72.873V37.1347H69.8661V53.7317H66.362ZM74.6176 53.7317V34.5539H82.6676V37.0163H78.1217V42.5328H81.6968V44.9715H78.1217V51.3167H82.7149V53.7317H74.6176ZM89.9062 53.9921C88.5014 53.9921 87.3965 53.7159 86.5915 53.1635C85.8023 52.611 85.2499 51.8613 84.9342 50.9142C84.6185 49.9514 84.4607 48.8465 84.4607 47.5995V40.7571C84.4607 39.447 84.6185 38.3106 84.9342 37.3477C85.2499 36.3849 85.8023 35.643 86.5915 35.1222C87.3965 34.6013 88.5014 34.3409 89.9062 34.3409C91.2321 34.3409 92.2659 34.5697 93.0078 35.0275C93.7654 35.4694 94.3021 36.1087 94.6178 36.9452C94.9334 37.7818 95.0913 38.7525 95.0913 39.8574V41.4674H91.7293V39.8101C91.7293 39.2734 91.6977 38.7841 91.6346 38.3421C91.5872 37.9002 91.4372 37.5529 91.1847 37.3004C90.9479 37.0321 90.5297 36.8979 89.9299 36.8979C89.3301 36.8979 88.8881 37.0399 88.604 37.3241C88.3357 37.5924 88.162 37.9633 88.0831 38.4368C88.0042 38.8946 87.9647 39.4155 87.9647 39.9995V48.3335C87.9647 49.028 88.02 49.6041 88.1305 50.0619C88.241 50.5038 88.4383 50.8432 88.7224 51.08C89.0223 51.3009 89.4248 51.4114 89.9299 51.4114C90.5139 51.4114 90.9243 51.2773 91.161 51.0089C91.4136 50.7248 91.5714 50.3539 91.6346 49.8961C91.6977 49.4384 91.7293 48.9254 91.7293 48.3572V46.6288H95.0913V48.1678C95.0913 49.3042 94.9413 50.3144 94.6414 51.1983C94.3415 52.0665 93.8128 52.7531 93.0551 53.2582C92.3133 53.7475 91.2636 53.9921 89.9062 53.9921ZM97.5782 53.7317V34.5539H101.059V42.5802H104.989V34.5539H108.469V53.7317H104.989V45.0662H101.059V53.7317H97.5782ZM111.404 53.7317V34.5539H113.842L118.507 45.4924V34.5539H121.395V53.7317H119.075L114.387 42.2724V53.7317H111.404ZM129.514 53.9921C128.157 53.9921 127.075 53.7396 126.27 53.2345C125.465 52.7294 124.889 52.0033 124.542 51.0563C124.195 50.1092 124.021 48.9886 124.021 47.6942V40.5204C124.021 39.2261 124.195 38.1212 124.542 37.2057C124.889 36.2744 125.465 35.5641 126.27 35.0748C127.075 34.5855 128.157 34.3409 129.514 34.3409C130.903 34.3409 131.992 34.5855 132.781 35.0748C133.586 35.5641 134.163 36.2744 134.51 37.2057C134.873 38.1212 135.054 39.2261 135.054 40.5204V47.7179C135.054 48.9964 134.873 50.1092 134.51 51.0563C134.163 51.9875 133.586 52.7136 132.781 53.2345C131.992 53.7396 130.903 53.9921 129.514 53.9921ZM129.514 51.4114C130.098 51.4114 130.524 51.2851 130.793 51.0326C131.077 50.7801 131.266 50.4328 131.361 49.9908C131.456 49.5489 131.503 49.0675 131.503 48.5466V39.7154C131.503 39.1787 131.456 38.6973 131.361 38.2711C131.266 37.8449 131.077 37.5135 130.793 37.2767C130.524 37.0242 130.098 36.8979 129.514 36.8979C128.962 36.8979 128.543 37.0242 128.259 37.2767C127.975 37.5135 127.786 37.8449 127.691 38.2711C127.596 38.6973 127.549 39.1787 127.549 39.7154V48.5466C127.549 49.0675 127.588 49.5489 127.667 49.9908C127.762 50.4328 127.951 50.7801 128.236 51.0326C128.52 51.2851 128.946 51.4114 129.514 51.4114ZM137.646 53.7317V34.5539H141.15V51.3167H145.791V53.7317H137.646ZM152.589 53.9921C151.232 53.9921 150.151 53.7396 149.346 53.2345C148.541 52.7294 147.964 52.0033 147.617 51.0563C147.27 50.1092 147.096 48.9886 147.096 47.6942V40.5204C147.096 39.2261 147.27 38.1212 147.617 37.2057C147.964 36.2744 148.541 35.5641 149.346 35.0748C150.151 34.5855 151.232 34.3409 152.589 34.3409C153.978 34.3409 155.067 34.5855 155.857 35.0748C156.662 35.5641 157.238 36.2744 157.585 37.2057C157.948 38.1212 158.129 39.2261 158.129 40.5204V47.7179C158.129 48.9964 157.948 50.1092 157.585 51.0563C157.238 51.9875 156.662 52.7136 155.857 53.2345C155.067 53.7396 153.978 53.9921 152.589 53.9921ZM152.589 51.4114C153.173 51.4114 153.599 51.2851 153.868 51.0326C154.152 50.7801 154.341 50.4328 154.436 49.9908C154.531 49.5489 154.578 49.0675 154.578 48.5466V39.7154C154.578 39.1787 154.531 38.6973 154.436 38.2711C154.341 37.8449 154.152 37.5135 153.868 37.2767C153.599 37.0242 153.173 36.8979 152.589 36.8979C152.037 36.8979 151.618 37.0242 151.334 37.2767C151.05 37.5135 150.861 37.8449 150.766 38.2711C150.671 38.6973 150.624 39.1787 150.624 39.7154V48.5466C150.624 49.0675 150.664 49.5489 150.742 49.9908C150.837 50.4328 151.027 50.7801 151.311 51.0326C151.595 51.2851 152.021 51.4114 152.589 51.4114ZM165.528 53.9921C164.265 53.9921 163.263 53.7238 162.521 53.1871C161.779 52.6505 161.242 51.8928 160.911 50.9142C160.595 49.9198 160.437 48.7518 160.437 47.4101V40.9702C160.437 39.597 160.595 38.4132 160.911 37.4188C161.227 36.4244 161.779 35.6667 162.568 35.1458C163.373 34.6092 164.478 34.3409 165.883 34.3409C167.193 34.3409 168.235 34.5618 169.008 35.0038C169.782 35.4457 170.334 36.085 170.665 36.9216C171.013 37.7423 171.186 38.7446 171.186 39.9284V40.9228H167.848V39.8337C167.848 39.2182 167.801 38.6894 167.706 38.2474C167.627 37.8055 167.453 37.474 167.185 37.253C166.932 37.0163 166.514 36.8979 165.93 36.8979C165.315 36.8979 164.865 37.0478 164.581 37.3477C164.312 37.6476 164.139 38.0422 164.06 38.5315C163.997 39.0209 163.965 39.5575 163.965 40.1415V48.1678C163.965 48.8307 164.02 49.4068 164.131 49.8961C164.241 50.3854 164.446 50.7643 164.746 51.0326C165.046 51.2851 165.472 51.4114 166.025 51.4114C166.593 51.4114 167.027 51.2694 167.327 50.9852C167.627 50.7011 167.832 50.3065 167.943 49.8014C168.069 49.2963 168.132 48.6965 168.132 48.002V46.2026H166.072V44.0008H171.281V53.7317H169.032L168.771 51.8376C168.519 52.469 168.132 52.9898 167.611 53.4002C167.106 53.7948 166.412 53.9921 165.528 53.9921ZM174.042 53.7317V34.5539H177.498V53.7317H174.042ZM180.467 53.7317V34.5539H188.517V37.0163H183.971V42.5328H187.546V44.9715H183.971V51.3167H188.564V53.7317H180.467ZM195.424 53.9921C194.272 53.9921 193.309 53.7711 192.536 53.3292C191.762 52.8715 191.178 52.2085 190.784 51.3404C190.389 50.4723 190.168 49.4068 190.121 48.1441L193.128 47.5522C193.159 48.294 193.246 48.9491 193.388 49.5173C193.546 50.0855 193.775 50.5275 194.075 50.8432C194.39 51.1431 194.801 51.293 195.306 51.293C195.874 51.293 196.276 51.1273 196.513 50.7958C196.75 50.4486 196.868 50.0145 196.868 49.4936C196.868 48.6571 196.679 47.9705 196.3 47.4338C195.921 46.8972 195.416 46.3605 194.785 45.8238L192.37 43.693C191.691 43.109 191.147 42.4618 190.736 41.7515C190.342 41.0254 190.144 40.1336 190.144 39.0761C190.144 37.5608 190.586 36.3928 191.47 35.572C192.354 34.7512 193.562 34.3409 195.093 34.3409C195.992 34.3409 196.742 34.4829 197.342 34.767C197.942 35.0354 198.415 35.4142 198.762 35.9035C199.126 36.3928 199.394 36.9531 199.567 37.5845C199.741 38.2001 199.852 38.8551 199.899 39.5496L196.916 40.0705C196.884 39.4707 196.813 38.934 196.703 38.4605C196.608 37.987 196.426 37.6161 196.158 37.3477C195.906 37.0794 195.527 36.9452 195.022 36.9452C194.501 36.9452 194.098 37.1189 193.814 37.4661C193.546 37.7976 193.412 38.2159 193.412 38.721C193.412 39.3681 193.546 39.9048 193.814 40.3309C194.082 40.7413 194.469 41.1675 194.974 41.6095L197.366 43.7166C198.155 44.3796 198.826 45.1609 199.378 46.0606C199.946 46.9445 200.23 48.0178 200.23 49.2806C200.23 50.196 200.025 51.0089 199.615 51.7192C199.22 52.4295 198.66 52.9898 197.934 53.4002C197.224 53.7948 196.387 53.9921 195.424 53.9921Z" fill="black"/>
<path d="M177.066 10.618C178.514 10.618 179.691 9.45429 179.691 8.01478C179.691 6.57527 178.514 5.41157 177.066 5.41157C175.618 5.41157 174.441 6.57527 174.441 8.01478C174.441 9.45429 175.618 10.618 177.066 10.618Z" stroke="black" stroke-width="0.42564"/>
<path d="M176.284 9.39783V6.63968H176.945C177.131 6.63968 177.288 6.66238 177.415 6.70778C177.544 6.75091 177.642 6.82583 177.708 6.93252C177.776 7.03921 177.81 7.1845 177.81 7.36837C177.81 7.47961 177.8 7.57949 177.779 7.66803C177.759 7.75656 177.724 7.83261 177.674 7.89617C177.626 7.95746 177.559 8.00513 177.473 8.03918L177.857 9.39783H177.353L177.02 8.13453H176.788V9.39783H176.284ZM176.788 7.81785H176.945C177.042 7.81785 177.12 7.80423 177.176 7.77699C177.235 7.74748 177.277 7.70208 177.302 7.64078C177.327 7.57722 177.34 7.49663 177.34 7.39902C177.34 7.26055 177.314 7.15726 177.262 7.08915C177.212 7.01878 177.115 6.9836 176.972 6.9836H176.788V7.81785Z" fill="black"/>
</svg>
