<svg width="373" height="50" viewBox="0 0 373 50" fill="none" xmlns="http://www.w3.org/2000/svg">
<g filter="url(#filter0_d_3121_6281)">
<mask id="path-1-outside-1_3121_6281" maskUnits="userSpaceOnUse" x="2" y="-2" width="369" height="46" fill="black">
<rect fill="white" x="2" y="-2" width="369" height="46"/>
<path d="M30.544 8.832C30.544 8.78933 30.224 8.704 29.584 8.576C28.944 8.40533 28.1547 8.23466 27.216 8.064C26.2773 7.89333 25.3387 7.808 24.4 7.808C20.816 7.808 18.064 8.93867 16.144 11.2C14.224 13.4613 13.264 16.7467 13.264 21.056C13.264 25.408 14.2453 28.736 16.208 31.04C18.1707 33.344 20.9013 34.496 24.4 34.496C25.4667 34.496 26.4693 34.368 27.408 34.112C28.3467 33.8133 29.0933 33.536 29.648 33.28C30.2453 33.024 30.544 32.896 30.544 32.896L31.952 27.136L38.864 28.736L36.816 38.4C36.816 38.4 36.2827 38.656 35.216 39.168C34.192 39.6373 32.7413 40.128 30.864 40.64C28.9867 41.152 26.832 41.408 24.4 41.408C20.5173 41.408 17.0827 40.704 14.096 39.296C11.152 37.8453 8.848 35.6267 7.184 32.64C5.52 29.6107 4.688 25.7493 4.688 21.056C4.688 16.7893 5.49867 13.1627 7.12 10.176C8.74133 7.18933 11.024 4.90667 13.968 3.328C16.9547 1.70667 20.4107 0.896 24.336 0.896C26.9813 0.896 29.2427 1.17333 31.12 1.728C33.04 2.28266 34.4907 2.85866 35.472 3.456C36.496 4.01066 37.008 4.288 37.008 4.288L38.928 13.888L31.952 15.424L30.544 8.832ZM44.377 40V32.832H49.497V9.472H44.377V2.304H61.273C65.3263 2.304 68.4623 2.83733 70.681 3.904C72.8997 4.928 74.4357 6.4 75.289 8.32C76.1423 10.24 76.569 12.48 76.569 15.04C76.569 19.3067 75.4383 22.4853 73.177 24.576C70.9583 26.6667 67.6303 27.712 63.193 27.712H57.753V32.832H60.825V40H44.377ZM57.817 20.608H60.889C62.681 20.608 64.089 20.4373 65.113 20.096C66.1797 19.7547 66.9263 19.1787 67.353 18.368C67.8223 17.5573 68.057 16.448 68.057 15.04C68.057 13.5893 67.7797 12.4587 67.225 11.648C66.6703 10.8373 65.8597 10.2827 64.793 9.984C63.7263 9.64267 62.425 9.472 60.889 9.472H57.817V20.608ZM68.825 40L61.657 26.816L69.081 25.472L73.625 32.832H80.281V40H68.825ZM102.571 0.896C106.326 0.896 109.632 1.68533 112.491 3.264C115.392 4.8 117.654 7.06133 119.275 10.048C120.896 13.0347 121.707 16.7253 121.707 21.12C121.707 25.472 120.896 29.1627 119.275 32.192C117.654 35.2213 115.414 37.5253 112.555 39.104C109.696 40.64 106.39 41.408 102.635 41.408C98.923 41.408 95.6163 40.64 92.715 39.104C89.8563 37.5253 87.6163 35.2213 85.995 32.192C84.3737 29.1627 83.563 25.472 83.563 21.12C83.563 16.7253 84.3737 13.0347 85.995 10.048C87.6163 7.06133 89.8563 4.8 92.715 3.264C95.5737 1.68533 98.859 0.896 102.571 0.896ZM102.635 7.808C99.1363 7.808 96.5123 8.93867 94.763 11.2C93.0137 13.4187 92.139 16.7253 92.139 21.12C92.139 25.5147 93.0137 28.8427 94.763 31.104C96.5123 33.3653 99.1363 34.496 102.635 34.496C106.134 34.496 108.758 33.3653 110.507 31.104C112.299 28.8427 113.195 25.5147 113.195 21.12C113.195 16.7253 112.32 13.4187 110.571 11.2C108.822 8.93867 106.176 7.808 102.635 7.808ZM142.615 41.408C139.415 41.408 136.663 41.1733 134.359 40.704C132.055 40.2347 130.05 39.6587 128.343 38.976L127.191 29.888L133.847 29.056L134.487 33.664C135.724 34.0907 136.983 34.4107 138.263 34.624C139.543 34.7947 140.78 34.88 141.975 34.88C143.596 34.88 145.09 34.688 146.455 34.304C147.82 33.92 148.908 33.344 149.719 32.576C150.53 31.808 150.935 30.848 150.935 29.696C150.935 28.5013 150.53 27.4773 149.719 26.624C148.908 25.728 147.159 25.0453 144.471 24.576L139.927 23.744C136.044 23.0187 133.058 21.7387 130.967 19.904C128.876 18.0267 127.831 15.5307 127.831 12.416C127.831 9.77066 128.556 7.59466 130.007 5.888C131.458 4.18133 133.356 2.92267 135.703 2.112C138.092 1.30133 140.631 0.896 143.319 0.896C144.684 0.896 146.05 1.00267 147.415 1.216C148.78 1.38666 150.124 1.664 151.447 2.048C152.77 2.38933 154.028 2.83733 155.223 3.392L156.503 13.312L149.271 14.08L148.439 8.128C147.543 7.82933 146.626 7.616 145.687 7.488C144.791 7.31733 143.895 7.232 142.999 7.232C140.567 7.232 138.668 7.65867 137.303 8.512C135.938 9.32267 135.255 10.3893 135.255 11.712C135.255 13.12 135.746 14.208 136.727 14.976C137.708 15.744 139.458 16.3627 141.975 16.832L146.391 17.6C150.7 18.24 153.73 19.4987 155.479 21.376C157.271 23.2107 158.167 25.6427 158.167 28.672C158.167 31.3173 157.676 33.472 156.695 35.136C155.714 36.8 154.434 38.1013 152.855 39.04C151.276 39.936 149.57 40.5547 147.735 40.896C145.943 41.2373 144.236 41.408 142.615 41.408ZM178.99 41.408C175.79 41.408 173.038 41.1733 170.734 40.704C168.43 40.2347 166.425 39.6587 164.718 38.976L163.566 29.888L170.222 29.056L170.862 33.664C172.099 34.0907 173.358 34.4107 174.638 34.624C175.918 34.7947 177.155 34.88 178.35 34.88C179.971 34.88 181.465 34.688 182.83 34.304C184.195 33.92 185.283 33.344 186.094 32.576C186.905 31.808 187.31 30.848 187.31 29.696C187.31 28.5013 186.905 27.4773 186.094 26.624C185.283 25.728 183.534 25.0453 180.846 24.576L176.302 23.744C172.419 23.0187 169.433 21.7387 167.342 19.904C165.251 18.0267 164.206 15.5307 164.206 12.416C164.206 9.77066 164.931 7.59466 166.382 5.888C167.833 4.18133 169.731 2.92267 172.078 2.112C174.467 1.30133 177.006 0.896 179.694 0.896C181.059 0.896 182.425 1.00267 183.79 1.216C185.155 1.38666 186.499 1.664 187.822 2.048C189.145 2.38933 190.403 2.83733 191.598 3.392L192.878 13.312L185.646 14.08L184.814 8.128C183.918 7.82933 183.001 7.616 182.062 7.488C181.166 7.31733 180.27 7.232 179.374 7.232C176.942 7.232 175.043 7.65867 173.678 8.512C172.313 9.32267 171.63 10.3893 171.63 11.712C171.63 13.12 172.121 14.208 173.102 14.976C174.083 15.744 175.833 16.3627 178.35 16.832L182.766 17.6C187.075 18.24 190.105 19.4987 191.854 21.376C193.646 23.2107 194.542 25.6427 194.542 28.672C194.542 31.3173 194.051 33.472 193.07 35.136C192.089 36.8 190.809 38.1013 189.23 39.04C187.651 39.936 185.945 40.5547 184.11 40.896C182.318 41.2373 180.611 41.408 178.99 41.408ZM216.453 2.304C221.53 2.304 225.392 3.37066 228.037 5.504C230.725 7.63733 232.069 10.7307 232.069 14.784C232.069 18.9653 230.725 22.1653 228.037 24.384C225.392 26.56 221.53 27.648 216.453 27.648H213.253V32.832H219.269V40H199.877V32.832H204.997V9.472H199.877V2.304H216.453ZM216.389 21.312C221.168 21.312 223.557 19.2 223.557 14.976C223.557 11.3067 221.168 9.472 216.389 9.472H213.317V21.312H216.389ZM270.559 26.432C270.559 31.3387 269.3 35.072 266.783 37.632C264.266 40.1493 260.532 41.408 255.583 41.408C250.591 41.408 246.815 40.1493 244.255 37.632C241.695 35.072 240.415 31.3387 240.415 26.432V9.472H235.231V2.304H252.191V9.472H248.671V27.52C248.671 30.08 249.247 31.9147 250.399 33.024C251.594 34.0907 253.322 34.624 255.583 34.624C257.802 34.624 259.466 34.0267 260.575 32.832C261.727 31.5947 262.303 29.6107 262.303 26.88V9.472H258.783V2.304H275.807V9.472H270.559V26.432ZM280.504 2.304H297.912L310.583 28.352V9.472H305.848V2.304H323.704V9.472H317.816V40H308.344L292.92 9.408V32.832H298.296V40H280.44V32.832H285.752V9.472H280.504V2.304ZM328.315 2.304H345.211V9.472H341.691V17.856H346.043L352.187 9.472H349.563V2.304H366.523V9.472H360.507L351.995 20.032L361.659 32.832H368.123V40H348.603V32.832H352.827L346.811 24.768H341.691V32.832H345.211V40H328.315V32.832H333.499V9.472H328.315V2.304Z"/>
</mask>
<path d="M30.544 8.832C30.544 8.78933 30.224 8.704 29.584 8.576C28.944 8.40533 28.1547 8.23466 27.216 8.064C26.2773 7.89333 25.3387 7.808 24.4 7.808C20.816 7.808 18.064 8.93867 16.144 11.2C14.224 13.4613 13.264 16.7467 13.264 21.056C13.264 25.408 14.2453 28.736 16.208 31.04C18.1707 33.344 20.9013 34.496 24.4 34.496C25.4667 34.496 26.4693 34.368 27.408 34.112C28.3467 33.8133 29.0933 33.536 29.648 33.28C30.2453 33.024 30.544 32.896 30.544 32.896L31.952 27.136L38.864 28.736L36.816 38.4C36.816 38.4 36.2827 38.656 35.216 39.168C34.192 39.6373 32.7413 40.128 30.864 40.64C28.9867 41.152 26.832 41.408 24.4 41.408C20.5173 41.408 17.0827 40.704 14.096 39.296C11.152 37.8453 8.848 35.6267 7.184 32.64C5.52 29.6107 4.688 25.7493 4.688 21.056C4.688 16.7893 5.49867 13.1627 7.12 10.176C8.74133 7.18933 11.024 4.90667 13.968 3.328C16.9547 1.70667 20.4107 0.896 24.336 0.896C26.9813 0.896 29.2427 1.17333 31.12 1.728C33.04 2.28266 34.4907 2.85866 35.472 3.456C36.496 4.01066 37.008 4.288 37.008 4.288L38.928 13.888L31.952 15.424L30.544 8.832ZM44.377 40V32.832H49.497V9.472H44.377V2.304H61.273C65.3263 2.304 68.4623 2.83733 70.681 3.904C72.8997 4.928 74.4357 6.4 75.289 8.32C76.1423 10.24 76.569 12.48 76.569 15.04C76.569 19.3067 75.4383 22.4853 73.177 24.576C70.9583 26.6667 67.6303 27.712 63.193 27.712H57.753V32.832H60.825V40H44.377ZM57.817 20.608H60.889C62.681 20.608 64.089 20.4373 65.113 20.096C66.1797 19.7547 66.9263 19.1787 67.353 18.368C67.8223 17.5573 68.057 16.448 68.057 15.04C68.057 13.5893 67.7797 12.4587 67.225 11.648C66.6703 10.8373 65.8597 10.2827 64.793 9.984C63.7263 9.64267 62.425 9.472 60.889 9.472H57.817V20.608ZM68.825 40L61.657 26.816L69.081 25.472L73.625 32.832H80.281V40H68.825ZM102.571 0.896C106.326 0.896 109.632 1.68533 112.491 3.264C115.392 4.8 117.654 7.06133 119.275 10.048C120.896 13.0347 121.707 16.7253 121.707 21.12C121.707 25.472 120.896 29.1627 119.275 32.192C117.654 35.2213 115.414 37.5253 112.555 39.104C109.696 40.64 106.39 41.408 102.635 41.408C98.923 41.408 95.6163 40.64 92.715 39.104C89.8563 37.5253 87.6163 35.2213 85.995 32.192C84.3737 29.1627 83.563 25.472 83.563 21.12C83.563 16.7253 84.3737 13.0347 85.995 10.048C87.6163 7.06133 89.8563 4.8 92.715 3.264C95.5737 1.68533 98.859 0.896 102.571 0.896ZM102.635 7.808C99.1363 7.808 96.5123 8.93867 94.763 11.2C93.0137 13.4187 92.139 16.7253 92.139 21.12C92.139 25.5147 93.0137 28.8427 94.763 31.104C96.5123 33.3653 99.1363 34.496 102.635 34.496C106.134 34.496 108.758 33.3653 110.507 31.104C112.299 28.8427 113.195 25.5147 113.195 21.12C113.195 16.7253 112.32 13.4187 110.571 11.2C108.822 8.93867 106.176 7.808 102.635 7.808ZM142.615 41.408C139.415 41.408 136.663 41.1733 134.359 40.704C132.055 40.2347 130.05 39.6587 128.343 38.976L127.191 29.888L133.847 29.056L134.487 33.664C135.724 34.0907 136.983 34.4107 138.263 34.624C139.543 34.7947 140.78 34.88 141.975 34.88C143.596 34.88 145.09 34.688 146.455 34.304C147.82 33.92 148.908 33.344 149.719 32.576C150.53 31.808 150.935 30.848 150.935 29.696C150.935 28.5013 150.53 27.4773 149.719 26.624C148.908 25.728 147.159 25.0453 144.471 24.576L139.927 23.744C136.044 23.0187 133.058 21.7387 130.967 19.904C128.876 18.0267 127.831 15.5307 127.831 12.416C127.831 9.77066 128.556 7.59466 130.007 5.888C131.458 4.18133 133.356 2.92267 135.703 2.112C138.092 1.30133 140.631 0.896 143.319 0.896C144.684 0.896 146.05 1.00267 147.415 1.216C148.78 1.38666 150.124 1.664 151.447 2.048C152.77 2.38933 154.028 2.83733 155.223 3.392L156.503 13.312L149.271 14.08L148.439 8.128C147.543 7.82933 146.626 7.616 145.687 7.488C144.791 7.31733 143.895 7.232 142.999 7.232C140.567 7.232 138.668 7.65867 137.303 8.512C135.938 9.32267 135.255 10.3893 135.255 11.712C135.255 13.12 135.746 14.208 136.727 14.976C137.708 15.744 139.458 16.3627 141.975 16.832L146.391 17.6C150.7 18.24 153.73 19.4987 155.479 21.376C157.271 23.2107 158.167 25.6427 158.167 28.672C158.167 31.3173 157.676 33.472 156.695 35.136C155.714 36.8 154.434 38.1013 152.855 39.04C151.276 39.936 149.57 40.5547 147.735 40.896C145.943 41.2373 144.236 41.408 142.615 41.408ZM178.99 41.408C175.79 41.408 173.038 41.1733 170.734 40.704C168.43 40.2347 166.425 39.6587 164.718 38.976L163.566 29.888L170.222 29.056L170.862 33.664C172.099 34.0907 173.358 34.4107 174.638 34.624C175.918 34.7947 177.155 34.88 178.35 34.88C179.971 34.88 181.465 34.688 182.83 34.304C184.195 33.92 185.283 33.344 186.094 32.576C186.905 31.808 187.31 30.848 187.31 29.696C187.31 28.5013 186.905 27.4773 186.094 26.624C185.283 25.728 183.534 25.0453 180.846 24.576L176.302 23.744C172.419 23.0187 169.433 21.7387 167.342 19.904C165.251 18.0267 164.206 15.5307 164.206 12.416C164.206 9.77066 164.931 7.59466 166.382 5.888C167.833 4.18133 169.731 2.92267 172.078 2.112C174.467 1.30133 177.006 0.896 179.694 0.896C181.059 0.896 182.425 1.00267 183.79 1.216C185.155 1.38666 186.499 1.664 187.822 2.048C189.145 2.38933 190.403 2.83733 191.598 3.392L192.878 13.312L185.646 14.08L184.814 8.128C183.918 7.82933 183.001 7.616 182.062 7.488C181.166 7.31733 180.27 7.232 179.374 7.232C176.942 7.232 175.043 7.65867 173.678 8.512C172.313 9.32267 171.63 10.3893 171.63 11.712C171.63 13.12 172.121 14.208 173.102 14.976C174.083 15.744 175.833 16.3627 178.35 16.832L182.766 17.6C187.075 18.24 190.105 19.4987 191.854 21.376C193.646 23.2107 194.542 25.6427 194.542 28.672C194.542 31.3173 194.051 33.472 193.07 35.136C192.089 36.8 190.809 38.1013 189.23 39.04C187.651 39.936 185.945 40.5547 184.11 40.896C182.318 41.2373 180.611 41.408 178.99 41.408ZM216.453 2.304C221.53 2.304 225.392 3.37066 228.037 5.504C230.725 7.63733 232.069 10.7307 232.069 14.784C232.069 18.9653 230.725 22.1653 228.037 24.384C225.392 26.56 221.53 27.648 216.453 27.648H213.253V32.832H219.269V40H199.877V32.832H204.997V9.472H199.877V2.304H216.453ZM216.389 21.312C221.168 21.312 223.557 19.2 223.557 14.976C223.557 11.3067 221.168 9.472 216.389 9.472H213.317V21.312H216.389ZM270.559 26.432C270.559 31.3387 269.3 35.072 266.783 37.632C264.266 40.1493 260.532 41.408 255.583 41.408C250.591 41.408 246.815 40.1493 244.255 37.632C241.695 35.072 240.415 31.3387 240.415 26.432V9.472H235.231V2.304H252.191V9.472H248.671V27.52C248.671 30.08 249.247 31.9147 250.399 33.024C251.594 34.0907 253.322 34.624 255.583 34.624C257.802 34.624 259.466 34.0267 260.575 32.832C261.727 31.5947 262.303 29.6107 262.303 26.88V9.472H258.783V2.304H275.807V9.472H270.559V26.432ZM280.504 2.304H297.912L310.583 28.352V9.472H305.848V2.304H323.704V9.472H317.816V40H308.344L292.92 9.408V32.832H298.296V40H280.44V32.832H285.752V9.472H280.504V2.304ZM328.315 2.304H345.211V9.472H341.691V17.856H346.043L352.187 9.472H349.563V2.304H366.523V9.472H360.507L351.995 20.032L361.659 32.832H368.123V40H348.603V32.832H352.827L346.811 24.768H341.691V32.832H345.211V40H328.315V32.832H333.499V9.472H328.315V2.304Z" fill="white" shape-rendering="crispEdges"/>
<path d="M30.544 8.832H28.544V9.04321L28.5881 9.24976L30.544 8.832ZM29.584 8.576L29.0687 10.5085L29.1298 10.5248L29.1918 10.5372L29.584 8.576ZM27.216 8.064L26.8582 10.0317H26.8582L27.216 8.064ZM16.144 11.2L17.6686 12.4945L16.144 11.2ZM16.208 31.04L17.7305 29.7431L16.208 31.04ZM27.408 34.112L27.9342 36.0415L27.9746 36.0305L28.0144 36.0179L27.408 34.112ZM29.648 33.28L28.8602 31.4417L28.8349 31.4525L28.8099 31.4641L29.648 33.28ZM30.544 32.896L31.3318 34.7343L32.2497 34.3409L32.4868 33.3709L30.544 32.896ZM31.952 27.136L32.403 25.1875L30.4783 24.742L30.0092 26.6611L31.952 27.136ZM38.864 28.736L40.8205 29.1506L41.2275 27.2302L39.315 26.7875L38.864 28.736ZM36.816 38.4L37.6815 40.203L38.5686 39.7772L38.7725 38.8146L36.816 38.4ZM35.216 39.168L36.0493 40.9861L36.0655 40.9787L36.0815 40.971L35.216 39.168ZM30.864 40.64L31.3902 42.5695H31.3902L30.864 40.64ZM14.096 39.296L13.212 41.09L13.2275 41.0977L13.2432 41.1051L14.096 39.296ZM7.184 32.64L5.43102 33.6029L5.43686 33.6134L7.184 32.64ZM7.12 10.176L5.36229 9.22182L7.12 10.176ZM13.968 3.328L14.9132 5.0906L14.9222 5.08571L13.968 3.328ZM31.12 1.728L30.5533 3.64607L30.5649 3.64942L31.12 1.728ZM35.472 3.456L34.4321 5.16439L34.4751 5.19059L34.5194 5.21458L35.472 3.456ZM37.008 4.288L38.9692 3.89577L38.7852 2.97611L37.9606 2.52941L37.008 4.288ZM38.928 13.888L39.3581 15.8412L41.2739 15.4194L40.8892 13.4958L38.928 13.888ZM31.952 15.424L29.9961 15.8418L30.4165 17.81L32.3821 17.3772L31.952 15.424ZM32.544 8.832C32.544 8.18659 32.2435 7.74331 32.0767 7.54314C31.9036 7.33543 31.7272 7.20908 31.6384 7.1499C31.4567 7.02874 31.2914 6.96089 31.2268 6.93505C31.073 6.87353 30.92 6.83038 30.8193 6.80353C30.5963 6.74406 30.3061 6.68081 29.9762 6.61484L29.1918 10.5372C29.5019 10.5992 29.6917 10.6426 29.7887 10.6685C29.848 10.6843 29.815 10.6785 29.7412 10.6489C29.7166 10.6391 29.5813 10.5859 29.4196 10.4781C29.3408 10.4256 29.1719 10.3056 29.0038 10.1039C28.842 9.90969 28.544 9.47208 28.544 8.832H32.544ZM30.0993 6.64353C29.3902 6.45443 28.5445 6.27276 27.5738 6.09626L26.8582 10.0317C27.7648 10.1966 28.4978 10.3562 29.0687 10.5085L30.0993 6.64353ZM27.5738 6.09626C26.519 5.90448 25.4606 5.808 24.4 5.808V9.808C25.2167 9.808 26.0357 9.88218 26.8582 10.0317L27.5738 6.09626ZM24.4 5.808C20.363 5.808 16.9984 7.10362 14.6194 9.90554L17.6686 12.4945C19.1296 10.7737 21.269 9.808 24.4 9.808V5.808ZM14.6194 9.90554C12.2796 12.6613 11.264 16.4823 11.264 21.056H15.264C15.264 17.011 16.1684 14.2614 17.6686 12.4945L14.6194 9.90554ZM11.264 21.056C11.264 25.679 12.3039 29.5412 14.6855 32.3369L17.7305 29.7431C16.1867 27.9308 15.264 25.137 15.264 21.056H11.264ZM14.6855 32.3369C17.0895 35.159 20.417 36.496 24.4 36.496V32.496C21.3857 32.496 19.2519 31.529 17.7305 29.7431L14.6855 32.3369ZM24.4 36.496C25.6275 36.496 26.8085 36.3486 27.9342 36.0415L26.8818 32.1825C26.1302 32.3874 25.3058 32.496 24.4 32.496V36.496ZM28.0144 36.0179C28.9906 35.7072 29.8249 35.4011 30.4861 35.0959L28.8099 31.4641C28.3618 31.6709 27.7027 31.9194 26.8016 32.2061L28.0144 36.0179ZM30.4358 35.1183C30.4482 35.113 30.6429 35.0296 30.6458 35.0283C30.7147 34.9988 30.7683 34.9758 30.8278 34.9503C30.847 34.9421 30.972 34.8885 30.9818 34.8843C30.9826 34.884 30.9833 34.8837 30.984 34.8834C30.9848 34.883 30.9855 34.8827 30.9862 34.8824C30.9869 34.8821 30.9876 34.8818 30.9884 34.8815C30.9891 34.8812 30.9898 34.8809 30.9905 34.8806C31.0008 34.8761 30.9888 34.8813 30.9991 34.8769C31.0009 34.8761 31.0058 34.874 31.0076 34.8732C31.0085 34.8729 31.0151 34.87 31.016 34.8697C31.0167 34.8694 31.0173 34.8691 31.018 34.8688C31.0187 34.8685 31.0194 34.8682 31.0201 34.8679C31.0208 34.8676 31.0215 34.8673 31.0222 34.867C31.0229 34.8667 31.0235 34.8664 31.0242 34.8661C31.0339 34.862 31.0227 34.8668 31.0324 34.8626C31.0332 34.8623 31.0396 34.8595 31.0404 34.8592C31.0408 34.859 31.044 34.8577 31.0444 34.8575C31.0477 34.8561 31.045 34.8572 31.0483 34.8558C31.0505 34.8548 31.0501 34.855 31.0523 34.8541C31.0529 34.8538 31.0536 34.8535 31.0542 34.8533C31.0549 34.853 31.0555 34.8527 31.0562 34.8524C31.057 34.8521 31.0631 34.8495 31.0639 34.8491C31.0642 34.849 31.0788 34.8427 31.079 34.8427C31.0798 34.8423 31.1076 34.8304 31.1078 34.8303C31.1118 34.8286 31.1587 34.8085 31.1603 34.8078C31.1913 34.7945 31.1772 34.8006 31.2058 34.7883C31.218 34.7831 31.2345 34.776 31.2443 34.7718C31.2467 34.7708 31.2758 34.7583 31.2758 34.7583C31.3014 34.7473 31.2771 34.7577 31.3003 34.7478C31.3095 34.7438 31.311 34.7432 31.3178 34.7403C31.3204 34.7392 31.3281 34.7359 31.3283 34.7358C31.3288 34.7356 31.3283 34.7358 31.3288 34.7356C31.3288 34.7356 31.3289 34.7355 31.329 34.7355C31.329 34.7355 31.3291 34.7355 31.3292 34.7354C31.3292 34.7354 31.3293 34.7354 31.3293 34.7354C31.3294 34.7353 31.3295 34.7353 31.3295 34.7353C31.3298 34.7352 31.3297 34.7352 31.3299 34.7351C31.3301 34.735 31.3302 34.735 31.3305 34.7349C31.3305 34.7349 31.3307 34.7348 31.3307 34.7348C31.3308 34.7347 31.3309 34.7347 31.331 34.7347C31.331 34.7346 31.331 34.7346 31.3311 34.7346C31.3311 34.7346 31.3311 34.7346 31.3312 34.7346C31.3312 34.7346 31.3312 34.7346 31.3313 34.7345C31.3313 34.7345 31.3313 34.7345 31.3313 34.7345C31.3315 34.7345 31.3314 34.7345 31.3315 34.7344C31.3315 34.7344 31.3315 34.7344 31.3316 34.7344C31.3316 34.7344 31.3316 34.7344 31.3316 34.7344C31.3317 34.7344 31.3317 34.7344 31.3317 34.7343C31.3317 34.7343 31.3317 34.7343 31.3318 34.7343C31.3318 34.7343 31.3318 34.7343 31.3318 34.7343C31.3318 34.7343 31.3318 34.7343 31.3318 34.7343C31.3318 34.7343 31.3318 34.7343 31.3318 34.7343C31.3318 34.7343 31.3318 34.7343 30.544 32.896C29.7562 31.0577 29.7562 31.0577 29.7562 31.0577C29.7562 31.0577 29.7562 31.0577 29.7561 31.0577C29.7561 31.0577 29.7561 31.0577 29.7561 31.0577C29.7561 31.0577 29.7561 31.0577 29.7561 31.0577C29.7561 31.0577 29.756 31.0578 29.7559 31.0578C29.7558 31.0578 29.7558 31.0579 29.7557 31.0579C29.7554 31.058 29.7556 31.058 29.7553 31.0581C29.7553 31.0581 29.7549 31.0583 29.7548 31.0583C29.7545 31.0584 29.7545 31.0584 29.7542 31.0586C29.7541 31.0586 29.7541 31.0586 29.754 31.0586C29.754 31.0587 29.7539 31.0587 29.7539 31.0587C29.7538 31.0587 29.7537 31.0588 29.7537 31.0588C29.7536 31.0588 29.7535 31.0588 29.7535 31.0589C29.7533 31.0589 29.7529 31.0591 29.7527 31.0592C29.7519 31.0595 29.7525 31.0593 29.7517 31.0596C29.7516 31.0596 29.7516 31.0597 29.7515 31.0597C29.7514 31.0597 29.7513 31.0598 29.7512 31.0598C29.7511 31.0599 29.7508 31.06 29.7507 31.0601C29.7492 31.0607 29.75 31.0604 29.7483 31.0611C29.7471 31.0616 29.7467 31.0618 29.7454 31.0623C29.7454 31.0623 29.7448 31.0626 29.7447 31.0626C29.7441 31.0629 29.7444 31.0627 29.7439 31.063C29.7434 31.0632 29.7427 31.0635 29.7422 31.0637C29.7422 31.0637 29.727 31.0702 29.7247 31.0712C29.7149 31.0754 29.7236 31.0717 29.7133 31.0761C29.7107 31.0772 29.7097 31.0776 29.7069 31.0788C29.7067 31.0789 29.7064 31.079 29.7061 31.0792C29.7058 31.0793 29.7056 31.0794 29.7053 31.0795C29.7049 31.0797 29.704 31.0801 29.7036 31.0802C29.7033 31.0804 29.703 31.0805 29.7028 31.0806C29.7025 31.0807 29.7022 31.0808 29.7019 31.081C29.7016 31.0811 29.7013 31.0812 29.701 31.0813C29.7007 31.0815 29.7005 31.0816 29.7002 31.0817C29.6373 31.1087 29.7024 31.0808 29.6302 31.1117C29.6134 31.1189 29.6363 31.1091 29.6194 31.1163C29.6172 31.1173 29.6107 31.12 29.6083 31.1211C29.6077 31.1213 29.5858 31.1307 29.5847 31.1312C29.5675 31.1386 29.5771 31.1345 29.5593 31.1421C29.5579 31.1427 29.5574 31.1429 29.556 31.1435C29.5558 31.1436 29.5529 31.1448 29.5527 31.1449C29.5485 31.1467 29.5535 31.1445 29.5493 31.1464C29.5488 31.1466 29.5482 31.1468 29.5476 31.1471C29.5471 31.1473 29.5465 31.1476 29.5459 31.1478C29.5412 31.1498 29.5439 31.1487 29.5391 31.1507C29.5385 31.151 29.538 31.1512 29.5374 31.1515C29.5368 31.1517 29.5362 31.152 29.5356 31.1522C29.5354 31.1523 29.5324 31.1536 29.5322 31.1537C29.4976 31.1685 29.0441 31.3629 28.8602 31.4417L30.4358 35.1183ZM32.4868 33.3709L33.8948 27.6109L30.0092 26.6611L28.6012 32.4211L32.4868 33.3709ZM31.501 29.0845L38.413 30.6845L39.315 26.7875L32.403 25.1875L31.501 29.0845ZM36.9075 28.3214L34.8595 37.9854L38.7725 38.8146L40.8205 29.1506L36.9075 28.3214ZM36.816 38.4C35.9505 36.597 35.9505 36.597 35.9505 36.597C35.9505 36.597 35.9505 36.597 35.9505 36.597C35.9505 36.597 35.9505 36.597 35.9505 36.597C35.9505 36.597 35.9505 36.597 35.9504 36.597C35.9492 36.5976 35.9516 36.5965 35.9503 36.5971C35.9503 36.5971 35.9503 36.5971 35.9502 36.5971C35.9502 36.5971 35.9502 36.5971 35.9501 36.5971C35.9458 36.5992 35.9541 36.5952 35.9497 36.5974C35.9307 36.6065 35.968 36.5886 35.949 36.5977C35.9452 36.5995 35.9524 36.5961 35.9486 36.5979C35.9389 36.6025 35.9578 36.5935 35.9481 36.5981C35.9275 36.608 35.9677 36.5887 35.947 36.5986C35.9276 36.608 35.964 36.5905 35.9443 36.6C35.8362 36.6518 36.0456 36.5513 35.9365 36.6037C35.8464 36.647 36.0242 36.5616 35.934 36.6049C35.9316 36.606 35.9352 36.6043 35.9327 36.6055C35.9218 36.6107 35.9423 36.6009 35.9314 36.6061C35.9312 36.6063 35.9309 36.6064 35.9307 36.6065C35.9305 36.6066 35.9302 36.6067 35.93 36.6068C35.9298 36.6069 35.9295 36.607 35.9293 36.6072C35.9291 36.6073 35.9288 36.6074 35.9286 36.6075C35.8476 36.6464 36.0065 36.5701 35.9255 36.609C35.8842 36.6288 35.9605 36.5922 35.9189 36.6121C35.8034 36.6676 36.0273 36.5601 35.9115 36.6157C35.9112 36.6159 35.9108 36.616 35.9105 36.6162C35.9102 36.6163 35.9098 36.6165 35.9095 36.6167C35.9092 36.6168 35.9088 36.617 35.9085 36.6171C35.9082 36.6173 35.9078 36.6175 35.9075 36.6176C35.8068 36.666 36.004 36.5713 35.9033 36.6196C35.8549 36.6429 35.9495 36.5975 35.9011 36.6207C35.9007 36.6209 35.9004 36.621 35.9 36.6212C35.8996 36.6214 35.8993 36.6216 35.8989 36.6217C35.8164 36.6613 35.9768 36.5843 35.8943 36.624C35.862 36.6394 35.9218 36.6107 35.8895 36.6263C35.8892 36.6264 35.8873 36.6273 35.887 36.6274C35.824 36.6577 35.9476 36.5984 35.8845 36.6286C35.8841 36.6288 35.8837 36.629 35.8832 36.6293C35.8828 36.6295 35.8824 36.6297 35.882 36.6299C35.8657 36.6377 35.8957 36.6233 35.8793 36.6311C35.8507 36.6449 35.9053 36.6186 35.8767 36.6324C35.8762 36.6326 35.8758 36.6328 35.8753 36.633C35.8749 36.6333 35.8744 36.6335 35.874 36.6337C35.818 36.6606 35.9272 36.6081 35.8712 36.635C35.8708 36.6353 35.8703 36.6355 35.8698 36.6357C35.8694 36.6359 35.8689 36.6362 35.8684 36.6364C35.8679 36.6366 35.8675 36.6368 35.867 36.6371C35.8665 36.6373 35.866 36.6375 35.8656 36.6377C35.8631 36.6389 35.8651 36.638 35.8626 36.6391C35.7829 36.6774 35.9394 36.6023 35.8597 36.6406C35.8592 36.6408 35.8587 36.641 35.8582 36.6413C35.8577 36.6415 35.8572 36.6418 35.8567 36.642C35.8192 36.66 35.8911 36.6255 35.8536 36.6435C35.7893 36.6744 35.9149 36.6141 35.8505 36.645C35.8425 36.6488 35.8523 36.6441 35.8442 36.648C35.7797 36.679 35.9055 36.6186 35.8409 36.6496C35.8404 36.6498 35.8399 36.6501 35.8393 36.6503C35.8388 36.6506 35.8382 36.6509 35.8377 36.6511C35.8175 36.6608 35.8545 36.643 35.8343 36.6527C35.8307 36.6545 35.8346 36.6526 35.8309 36.6544C35.8303 36.6546 35.8298 36.6549 35.8292 36.6552C35.8286 36.6555 35.828 36.6558 35.8275 36.656C35.7325 36.7016 35.919 36.6121 35.824 36.6577C35.6881 36.7229 35.9312 36.6062 35.7943 36.672C35.7936 36.6723 35.793 36.6726 35.7923 36.6729C35.7917 36.6732 35.791 36.6735 35.7904 36.6738C35.7897 36.6742 35.789 36.6745 35.7884 36.6748C35.7877 36.6751 35.787 36.6754 35.7864 36.6758C35.7198 36.7077 35.8449 36.6477 35.7783 36.6796C35.7211 36.7071 35.8273 36.6561 35.77 36.6836C35.7077 36.7135 35.828 36.6558 35.7658 36.6857C35.6879 36.723 35.8394 36.6503 35.7615 36.6877C35.7586 36.6891 35.76 36.6884 35.7572 36.6898C35.7564 36.6901 35.7557 36.6905 35.755 36.6908C35.7542 36.6912 35.7535 36.6915 35.7528 36.6919C35.6752 36.7291 35.8215 36.6589 35.7439 36.6961C35.7095 36.7127 35.7602 36.6883 35.7255 36.705C35.6939 36.7201 35.7477 36.6943 35.7161 36.7095C35.637 36.7475 35.7903 36.6739 35.7113 36.7118C35.705 36.7148 35.7126 36.7111 35.7064 36.7141C35.7056 36.7145 35.7048 36.7149 35.704 36.7153C35.7031 36.7157 35.7023 36.7161 35.7015 36.7165C35.5674 36.7809 35.8307 36.6545 35.6965 36.7189C35.6274 36.7521 35.7607 36.6881 35.6915 36.7213C35.6907 36.7217 35.6899 36.7221 35.689 36.7225C35.6882 36.7229 35.6873 36.7233 35.6865 36.7237C35.6856 36.7241 35.6848 36.7245 35.6839 36.7249C35.6831 36.7253 35.6822 36.7257 35.6814 36.7262C35.6378 36.7471 35.7198 36.7077 35.6762 36.7286C35.6754 36.729 35.6745 36.7295 35.6736 36.7299C35.6728 36.7303 35.6719 36.7307 35.671 36.7311C35.5941 36.768 35.7427 36.6967 35.6658 36.7336C35.6649 36.7341 35.664 36.7345 35.6631 36.7349C35.6622 36.7353 35.6614 36.7358 35.6605 36.7362C35.6596 36.7366 35.6587 36.737 35.6578 36.7375C35.6569 36.7379 35.656 36.7383 35.6551 36.7388C35.533 36.7974 35.7719 36.6827 35.6497 36.7413C35.6474 36.7425 35.6466 36.7428 35.6443 36.744C35.584 36.7729 35.615 36.758 35.5505 36.789C35.5425 36.7928 35.5523 36.7881 35.5443 36.792C35.4394 36.8423 35.6428 36.7447 35.5379 36.795C35.5369 36.7955 35.5358 36.796 35.5348 36.7965C35.5337 36.797 35.5326 36.7975 35.5316 36.7981C35.4722 36.8266 35.5846 36.7726 35.5252 36.8011C35.5241 36.8017 35.523 36.8022 35.5219 36.8027C35.5208 36.8032 35.5198 36.8037 35.5187 36.8042C35.5176 36.8048 35.5165 36.8053 35.5154 36.8058C35.5143 36.8063 35.5133 36.8069 35.5122 36.8074C35.4946 36.8158 35.5166 36.8053 35.499 36.8137C35.4979 36.8142 35.4968 36.8148 35.4957 36.8153C35.4945 36.8158 35.4934 36.8164 35.4923 36.8169C35.4912 36.8174 35.4901 36.818 35.489 36.8185C35.4878 36.819 35.4867 36.8196 35.4856 36.8201C35.4845 36.8207 35.4833 36.8212 35.4822 36.8217C35.4811 36.8223 35.48 36.8228 35.4788 36.8234C35.4777 36.8239 35.4766 36.8245 35.4754 36.825C35.4743 36.8256 35.4732 36.8261 35.472 36.8266C35.4709 36.8272 35.4697 36.8277 35.4686 36.8283C35.4675 36.8288 35.4663 36.8294 35.4652 36.8299C35.464 36.8305 35.4629 36.831 35.4617 36.8316C35.4606 36.8321 35.4594 36.8327 35.4583 36.8333C35.4571 36.8338 35.4559 36.8344 35.4548 36.8349C35.4536 36.8355 35.4525 36.836 35.4513 36.8366C35.4501 36.8372 35.449 36.8377 35.4478 36.8383C35.4466 36.8388 35.4455 36.8394 35.4443 36.84C35.395 36.8636 35.4368 36.8436 35.3865 36.8677C35.2718 36.9228 35.4937 36.8162 35.379 36.8713C35.3778 36.8719 35.3765 36.8725 35.3753 36.8731C35.374 36.8737 35.3728 36.8743 35.3715 36.8749C35.2754 36.921 35.4526 36.836 35.3564 36.8821C35.3034 36.9076 35.3788 36.8714 35.3255 36.897C35.1838 36.965 35.4517 36.8364 35.3098 36.9045C35.213 36.951 35.3987 36.8618 35.3019 36.9083C35.3006 36.9089 35.2992 36.9096 35.2979 36.9102C35.2966 36.9109 35.2952 36.9115 35.2939 36.9121C35.227 36.9442 35.3528 36.8839 35.2859 36.916C35.2089 36.9529 35.3547 36.8829 35.2778 36.9199C35.2764 36.9205 35.2751 36.9212 35.2737 36.9218C35.2724 36.9225 35.271 36.9231 35.2697 36.9238C35.1801 36.9668 35.351 36.8847 35.2615 36.9277C35.1832 36.9653 35.3315 36.8941 35.2533 36.9317C35.2519 36.9323 35.2505 36.933 35.2491 36.9336C35.2477 36.9343 35.2464 36.935 35.245 36.9356C35.1318 36.9899 35.3498 36.8853 35.2366 36.9396C35.2241 36.9456 35.2408 36.9376 35.2283 36.9436C35.2269 36.9443 35.2255 36.945 35.2241 36.9457C35.2227 36.9463 35.2213 36.947 35.2199 36.9477C35.0823 37.0137 35.349 36.8857 35.2114 36.9518C35.1759 36.9688 35.2383 36.9388 35.2029 36.9558C35.2014 36.9565 35.2 36.9572 35.1986 36.9579C35.1972 36.9586 35.1957 36.9593 35.1943 36.96C35.0769 37.0163 35.3031 36.9077 35.1857 36.9641C35.1842 36.9648 35.1828 36.9655 35.1813 36.9662C35.1799 36.9669 35.1785 36.9676 35.177 36.9683C35.1436 36.9843 35.193 36.9606 35.1595 36.9766C35.0985 37.006 35.1853 36.9643 35.124 36.9937C35.0895 37.0102 35.1404 36.9858 35.1059 37.0024C35.0269 37.0403 35.1759 36.9688 35.0968 37.0067C35.0953 37.0075 35.0938 37.0082 35.0922 37.0089C35.0907 37.0097 35.0892 37.0104 35.0877 37.0111C35.0861 37.0119 35.0846 37.0126 35.0831 37.0133C35.0815 37.0141 35.08 37.0148 35.0784 37.0156C35.023 37.0422 35.1247 36.9934 35.0692 37.02C34.9843 37.0607 35.1355 36.9882 35.0505 37.029C35.0194 37.0439 35.0723 37.0185 35.0411 37.0335C35.0396 37.0342 35.038 37.035 35.0364 37.0357C35.0348 37.0365 35.0333 37.0372 35.0317 37.038C35.0301 37.0388 35.0285 37.0395 35.027 37.0403C35.0254 37.041 35.0238 37.0418 35.0222 37.0426C34.9905 37.0578 35.0444 37.0319 35.0126 37.0471C35.0111 37.0479 35.0095 37.0487 35.0079 37.0494C35.0063 37.0502 35.0047 37.051 35.0031 37.0517C35.0014 37.0525 34.9998 37.0533 34.9982 37.0541C34.9966 37.0548 34.995 37.0556 34.9934 37.0564C34.9872 37.0593 34.9899 37.058 34.9837 37.061C34.9821 37.0618 34.9805 37.0626 34.9789 37.0634C34.9772 37.0641 34.9756 37.0649 34.974 37.0657C34.9724 37.0665 34.9707 37.0673 34.9691 37.0681C34.9675 37.0688 34.9658 37.0696 34.9642 37.0704C34.9579 37.0734 34.9607 37.0721 34.9543 37.0751C34.9527 37.0759 34.9511 37.0767 34.9494 37.0775C34.9478 37.0783 34.9461 37.0791 34.9445 37.0799C34.9428 37.0807 34.9412 37.0815 34.9395 37.0823C34.9378 37.083 34.9362 37.0838 34.9345 37.0846C34.9329 37.0854 34.9312 37.0862 34.9295 37.087C34.9279 37.0878 34.9262 37.0886 34.9245 37.0894C34.9179 37.0926 34.9212 37.091 34.9145 37.0942C34.9128 37.0951 34.9112 37.0959 34.9095 37.0967C34.9078 37.0975 34.9061 37.0983 34.9044 37.0991C34.9027 37.0999 34.9011 37.1007 34.8994 37.1015C34.8977 37.1023 34.896 37.1031 34.8943 37.104C34.8926 37.1048 34.8909 37.1056 34.8892 37.1064C34.8875 37.1072 34.8858 37.108 34.8841 37.1088C34.8824 37.1097 34.8807 37.1105 34.879 37.1113C34.8773 37.1121 34.8756 37.1129 34.8739 37.1138C34.7657 37.1657 34.9615 37.0717 34.8533 37.1236C34.8516 37.1245 34.8498 37.1253 34.8481 37.1261C34.8464 37.127 34.8446 37.1278 34.8429 37.1286C34.8412 37.1295 34.8394 37.1303 34.8377 37.1311C34.836 37.132 34.8342 37.1328 34.8325 37.1336C34.8307 37.1345 34.829 37.1353 34.8272 37.1361C34.8255 37.137 34.8237 37.1378 34.822 37.1387C34.8203 37.1395 34.8185 37.1403 34.8167 37.1412C34.815 37.142 34.8132 37.1429 34.8115 37.1437C34.7571 37.1698 34.8447 37.1277 34.7903 37.1539C34.7885 37.1547 34.7867 37.1556 34.785 37.1564C34.7832 37.1573 34.7814 37.1581 34.7796 37.159C34.7778 37.1599 34.7761 37.1607 34.7743 37.1616C34.7725 37.1624 34.7707 37.1633 34.7689 37.1641C34.7671 37.165 34.7653 37.1659 34.7635 37.1667C34.7617 37.1676 34.7599 37.1684 34.7581 37.1693C34.7563 37.1702 34.7545 37.171 34.7527 37.1719C34.7509 37.1728 34.7491 37.1736 34.7473 37.1745C34.7455 37.1754 34.7437 37.1762 34.7419 37.1771C34.7401 37.178 34.7383 37.1788 34.7365 37.1797C34.7346 37.1806 34.7328 37.1815 34.731 37.1823C34.7292 37.1832 34.7274 37.1841 34.7255 37.185C34.7237 37.1858 34.7219 37.1867 34.7201 37.1876C34.7182 37.1885 34.7164 37.1893 34.7146 37.1902C34.7127 37.1911 34.7109 37.192 34.7091 37.1929C34.7072 37.1937 34.7054 37.1946 34.7036 37.1955C34.6446 37.2238 34.7404 37.1778 34.6814 37.2061C34.6795 37.207 34.6777 37.2079 34.6758 37.2088C34.674 37.2097 34.6721 37.2106 34.6702 37.2115C34.6684 37.2124 34.6665 37.2133 34.6646 37.2142C34.6628 37.2151 34.6609 37.216 34.659 37.2169C34.6572 37.2178 34.6553 37.2187 34.6534 37.2196C34.6515 37.2205 34.6497 37.2214 34.6478 37.2223C34.6459 37.2232 34.644 37.2241 34.6421 37.225C34.6403 37.2259 34.6384 37.2268 34.6365 37.2277C34.6346 37.2286 34.6327 37.2295 34.6308 37.2304C34.6289 37.2313 34.627 37.2322 34.6251 37.2332C34.6232 37.2341 34.6213 37.235 34.6194 37.2359C34.6175 37.2368 34.6156 37.2377 34.6137 37.2386C34.6118 37.2395 34.6099 37.2405 34.608 37.2414C34.6061 37.2423 34.6042 37.2432 34.6023 37.2441C34.5716 37.2589 34.6215 37.2349 34.5908 37.2496C34.5889 37.2506 34.5869 37.2515 34.585 37.2524C34.5831 37.2533 34.5812 37.2543 34.5792 37.2552C34.5773 37.2561 34.5754 37.257 34.5734 37.258C34.5715 37.2589 34.5696 37.2598 34.5676 37.2607C34.5053 37.2907 34.6184 37.2364 34.556 37.2663C34.554 37.2673 34.5521 37.2682 34.5501 37.2691C34.5482 37.2701 34.5462 37.271 34.5443 37.272C34.5423 37.2729 34.5404 37.2738 34.5384 37.2748C34.5365 37.2757 34.5345 37.2766 34.5325 37.2776C34.5306 37.2785 34.5286 37.2795 34.5267 37.2804C34.5247 37.2814 34.5227 37.2823 34.5208 37.2833C34.5188 37.2842 34.5168 37.2851 34.5148 37.2861C34.5129 37.287 34.5109 37.288 34.5089 37.2889C34.5069 37.2899 34.505 37.2908 34.503 37.2918C34.501 37.2927 34.499 37.2937 34.497 37.2946C34.4653 37.3099 34.5169 37.2851 34.4851 37.3004C34.4831 37.3013 34.4811 37.3023 34.4791 37.3032C34.4771 37.3042 34.4751 37.3052 34.4731 37.3061C34.4711 37.3071 34.4691 37.308 34.4671 37.309C34.4651 37.31 34.4631 37.3109 34.4611 37.3119C34.4591 37.3129 34.457 37.3138 34.455 37.3148C34.453 37.3158 34.451 37.3167 34.449 37.3177C34.3844 37.3487 34.4893 37.2984 34.4247 37.3294C34.4226 37.3304 34.4206 37.3313 34.4186 37.3323C34.4165 37.3333 34.4145 37.3343 34.4124 37.3352C34.4104 37.3362 34.4083 37.3372 34.4063 37.3382C34.4043 37.3392 34.4022 37.3402 34.4002 37.3411C34.3981 37.3421 34.396 37.3431 34.394 37.3441C34.3919 37.3451 34.3899 37.3461 34.3878 37.3471C34.3858 37.348 34.3837 37.349 34.3816 37.35C34.3796 37.351 34.3775 37.352 34.3754 37.353C34.3734 37.354 34.3713 37.355 34.3692 37.356C34.3672 37.357 34.3651 37.358 34.363 37.359C34.3297 37.375 34.3839 37.349 34.3505 37.365L36.0815 40.971C36.0835 40.97 36.0856 40.969 36.0877 40.968C36.0898 40.9671 36.0919 40.9661 36.0939 40.9651C36.096 40.9641 36.0981 40.9631 36.1002 40.9621C36.1022 40.9611 36.1043 40.9601 36.1064 40.9591C36.1084 40.9581 36.1105 40.9571 36.1126 40.9561C36.1146 40.9551 36.1167 40.9541 36.1187 40.9532C36.1208 40.9522 36.1229 40.9512 36.1249 40.9502C36.127 40.9492 36.129 40.9482 36.1311 40.9472C36.1331 40.9462 36.1352 40.9453 36.1372 40.9443C36.1393 40.9433 36.1413 40.9423 36.1434 40.9413C36.1454 40.9404 36.1474 40.9394 36.1495 40.9384C36.1515 40.9374 36.1536 40.9364 36.1556 40.9355C36.2879 40.872 36.0355 40.9931 36.1678 40.9296C36.1698 40.9286 36.1718 40.9277 36.1738 40.9267C36.1759 40.9257 36.1779 40.9248 36.1799 40.9238C36.196 40.9161 36.1759 40.9257 36.192 40.918C36.194 40.917 36.196 40.9161 36.198 40.9151C36.2 40.9141 36.202 40.9132 36.204 40.9122C36.206 40.9113 36.208 40.9103 36.21 40.9093C36.212 40.9084 36.214 40.9074 36.216 40.9065C36.218 40.9055 36.22 40.9046 36.222 40.9036C36.224 40.9026 36.226 40.9017 36.228 40.9007C36.2299 40.8998 36.2319 40.8988 36.2339 40.8979C36.2359 40.8969 36.2379 40.896 36.2398 40.895C36.2418 40.8941 36.2438 40.8931 36.2458 40.8922C36.2477 40.8912 36.2497 40.8903 36.2517 40.8893C36.2537 40.8884 36.2556 40.8875 36.2576 40.8865C36.2595 40.8856 36.2615 40.8846 36.2635 40.8837C36.2654 40.8827 36.2674 40.8818 36.2694 40.8809C36.2713 40.8799 36.2733 40.879 36.2752 40.878C36.2772 40.8771 36.2791 40.8762 36.2811 40.8752C36.283 40.8743 36.285 40.8734 36.2869 40.8724C36.2889 40.8715 36.2908 40.8706 36.2927 40.8696C36.2947 40.8687 36.2966 40.8678 36.2986 40.8668C36.3294 40.852 36.2909 40.8705 36.3217 40.8557C36.3236 40.8548 36.3255 40.8539 36.3275 40.853C36.3294 40.8521 36.3313 40.8511 36.3332 40.8502C36.3351 40.8493 36.337 40.8484 36.3389 40.8475C36.3408 40.8465 36.3427 40.8456 36.3447 40.8447C36.3466 40.8438 36.3485 40.8429 36.3504 40.842C36.3523 40.8411 36.3542 40.8402 36.3561 40.8392C36.3579 40.8383 36.3598 40.8374 36.3617 40.8365C36.3636 40.8356 36.3655 40.8347 36.3674 40.8338C36.3693 40.8329 36.3712 40.832 36.3731 40.8311C36.3749 40.8302 36.3768 40.8293 36.3787 40.8284C36.3806 40.8275 36.3825 40.8266 36.3843 40.8257C36.3862 40.8248 36.3881 40.8239 36.39 40.823C36.3918 40.8221 36.3937 40.8212 36.3956 40.8203C36.3974 40.8194 36.3993 40.8185 36.4012 40.8176C36.403 40.8167 36.4049 40.8158 36.4068 40.8149C36.4086 40.814 36.4105 40.8131 36.4123 40.8122C36.4142 40.8113 36.416 40.8105 36.4179 40.8096C36.4197 40.8087 36.4216 40.8078 36.4234 40.8069C36.4253 40.806 36.4271 40.8051 36.429 40.8042C36.4308 40.8034 36.4327 40.8025 36.4345 40.8016C36.5543 40.7441 36.3367 40.8485 36.4565 40.791C36.4855 40.7771 36.471 40.7841 36.4998 40.7702C36.6165 40.7143 36.4047 40.8159 36.5212 40.76C36.5827 40.7305 36.4704 40.7844 36.5318 40.7549C36.6662 40.6904 36.4081 40.8143 36.5424 40.7498C36.68 40.6838 36.4154 40.8108 36.5529 40.7447C36.6135 40.7157 36.5028 40.7688 36.5634 40.7397C36.677 40.6852 36.4707 40.7842 36.5842 40.7297C36.5859 40.7289 36.5877 40.7281 36.5894 40.7273C36.5911 40.7264 36.5928 40.7256 36.5945 40.7248C36.6704 40.6884 36.529 40.7562 36.6048 40.7198C36.6065 40.719 36.6082 40.7182 36.6099 40.7174C36.6116 40.7166 36.6133 40.7157 36.615 40.7149C36.6167 40.7141 36.6184 40.7133 36.6201 40.7125C36.6218 40.7117 36.6235 40.7109 36.6252 40.71C36.7321 40.6587 36.5991 40.7226 36.7049 40.6718C36.758 40.6463 36.6615 40.6926 36.7146 40.6671C36.7163 40.6663 36.7179 40.6656 36.7195 40.6648C36.7211 40.664 36.7227 40.6632 36.7243 40.6625C36.7259 40.6617 36.7276 40.6609 36.7292 40.6601C36.7308 40.6594 36.7324 40.6586 36.734 40.6578C36.7863 40.6327 36.6913 40.6783 36.7436 40.6532C36.8311 40.6112 36.6942 40.677 36.7815 40.635C36.783 40.6343 36.7846 40.6335 36.7861 40.6328C36.7877 40.632 36.7893 40.6313 36.7908 40.6306C36.8478 40.6032 36.7432 40.6534 36.8001 40.6261C36.8125 40.6202 36.8063 40.6231 36.8186 40.6172C36.8216 40.6158 36.8247 40.6143 36.8277 40.6128C36.8293 40.6121 36.8308 40.6114 36.8323 40.6106C36.8338 40.6099 36.8353 40.6092 36.8368 40.6085C36.8383 40.6077 36.8399 40.607 36.8414 40.6063C36.8429 40.6056 36.8444 40.6048 36.8459 40.6041C36.895 40.5805 36.8058 40.6234 36.8549 40.5998C36.8894 40.5832 36.8562 40.5992 36.8904 40.5827C36.8919 40.582 36.8934 40.5813 36.8948 40.5806C36.8963 40.5799 36.8978 40.5792 36.8992 40.5785C36.9468 40.5557 36.8604 40.5972 36.9079 40.5743C36.9849 40.5374 36.8484 40.6029 36.9252 40.566C36.972 40.5436 36.8871 40.5844 36.9338 40.5619C36.9352 40.5612 36.9366 40.5606 36.938 40.5599C36.9395 40.5592 36.9409 40.5585 36.9423 40.5578C36.9549 40.5518 36.9466 40.5558 36.9592 40.5497C37.0365 40.5126 36.9154 40.5708 36.9924 40.5338C37.048 40.5071 36.9532 40.5526 37.0087 40.526C37.1074 40.4786 36.9262 40.5656 37.0248 40.5182C37.0355 40.5131 37.046 40.508 37.0565 40.503C37.0578 40.5024 37.0591 40.5018 37.0604 40.5012C37.0617 40.5005 37.063 40.4999 37.0643 40.4993C37.0655 40.4987 37.0668 40.4981 37.0681 40.4974C37.0694 40.4968 37.0707 40.4962 37.072 40.4956C37.0746 40.4944 37.0771 40.4931 37.0797 40.4919C37.081 40.4913 37.0822 40.4907 37.0835 40.4901C37.0848 40.4895 37.0861 40.4888 37.0873 40.4882C37.0886 40.4876 37.0899 40.487 37.0911 40.4864C37.0924 40.4858 37.0937 40.4852 37.0949 40.4846C37.1 40.4822 37.0974 40.4834 37.1025 40.481C37.1075 40.4786 37.1125 40.4762 37.1174 40.4738C37.1566 40.455 37.1078 40.4784 37.1467 40.4597C37.2154 40.4267 37.0924 40.4858 37.1611 40.4528C37.1622 40.4523 37.1634 40.4517 37.1646 40.4511C37.1658 40.4506 37.167 40.45 37.1682 40.4494C37.1693 40.4489 37.1705 40.4483 37.1717 40.4477C37.1729 40.4472 37.174 40.4466 37.1752 40.446C37.2346 40.4176 37.1299 40.4678 37.1892 40.4393C37.2643 40.4033 37.1279 40.4688 37.2029 40.4327C37.3499 40.3622 37.0832 40.4902 37.2299 40.4198C37.231 40.4193 37.2321 40.4187 37.2332 40.4182C37.2343 40.4177 37.2354 40.4171 37.2365 40.4166C37.2376 40.4161 37.2387 40.4156 37.2398 40.415C37.2409 40.4145 37.242 40.414 37.2431 40.4135C37.2442 40.4129 37.2453 40.4124 37.2464 40.4119C37.2474 40.4114 37.2485 40.4109 37.2496 40.4103C37.2507 40.4098 37.2518 40.4093 37.2528 40.4088C37.2539 40.4083 37.255 40.4077 37.2561 40.4072C37.3781 40.3486 37.1469 40.4596 37.2689 40.4011C37.346 40.3641 37.2044 40.432 37.2815 40.395C37.424 40.3266 37.1638 40.4515 37.3061 40.3832C37.3756 40.3498 37.2486 40.4108 37.3181 40.3775C37.3365 40.3686 37.3115 40.3806 37.3299 40.3718C37.4232 40.327 37.2425 40.4138 37.3357 40.369C37.3377 40.3681 37.3396 40.3671 37.3415 40.3662C37.3492 40.3625 37.3454 40.3644 37.353 40.3607C37.3828 40.3464 37.3456 40.3642 37.3752 40.35C37.4039 40.3363 37.3898 40.3431 37.4174 40.3298C37.5526 40.2649 37.3023 40.385 37.4373 40.3202C37.503 40.2887 37.3814 40.3471 37.447 40.3156C37.4745 40.3024 37.4242 40.3265 37.4518 40.3133C37.4525 40.3129 37.4533 40.3125 37.4541 40.3122C37.4549 40.3118 37.4557 40.3114 37.4565 40.311C37.4572 40.3107 37.458 40.3103 37.4588 40.3099C37.4596 40.3096 37.4604 40.3092 37.4611 40.3088C37.4688 40.3051 37.4581 40.3103 37.4657 40.3066C37.4748 40.3022 37.4658 40.3066 37.4748 40.3022C37.4808 40.2994 37.4867 40.2965 37.4924 40.2938C37.5366 40.2726 37.4821 40.2987 37.5252 40.278C37.5355 40.2731 37.5304 40.2755 37.5405 40.2707C37.5951 40.2445 37.4932 40.2934 37.5478 40.2672C37.5697 40.2567 37.5294 40.276 37.5514 40.2655C37.552 40.2652 37.5525 40.2649 37.5531 40.2646C37.5537 40.2644 37.5543 40.2641 37.5549 40.2638C37.5942 40.2449 37.5295 40.276 37.5686 40.2572C37.5945 40.2448 37.5558 40.2633 37.5815 40.251C37.6209 40.2321 37.5665 40.2582 37.6049 40.2398C37.6296 40.2279 37.591 40.2465 37.6154 40.2347C37.6496 40.2183 37.5913 40.2463 37.6252 40.23C37.6256 40.2299 37.626 40.2297 37.6264 40.2295C37.6268 40.2293 37.6272 40.2291 37.6275 40.2289C37.6381 40.2238 37.6192 40.2329 37.6298 40.2278C37.6474 40.2194 37.6167 40.2341 37.6342 40.2257C37.678 40.2047 37.5989 40.2427 37.6424 40.2218C37.6691 40.209 37.6308 40.2274 37.6565 40.215C37.6977 40.1953 37.6382 40.2238 37.6752 40.206C37.687 40.2004 37.6692 40.2089 37.6799 40.2038C37.6829 40.2024 37.6783 40.2045 37.6811 40.2032C37.6815 40.203 37.681 40.2033 37.6814 40.2031C37.6816 40.203 37.6812 40.2032 37.6814 40.2031C37.6814 40.2031 37.6815 40.2031 37.6815 40.203C37.6815 40.203 37.6815 40.203 36.816 38.4ZM34.3827 37.3499C33.5039 37.7527 32.1738 38.2097 30.3378 38.7105L31.3902 42.5695C33.3089 42.0463 34.8801 41.522 36.0493 40.9861L34.3827 37.3499ZM30.3378 38.7105C28.6684 39.1658 26.6965 39.408 24.4 39.408V43.408C26.9675 43.408 29.305 43.1382 31.3902 42.5695L30.3378 38.7105ZM24.4 39.408C20.7608 39.408 17.6259 38.749 14.9488 37.4869L13.2432 41.1051C16.5395 42.659 20.2739 43.408 24.4 43.408V39.408ZM14.98 37.502C12.4162 36.2386 10.4062 34.3141 8.93114 31.6666L5.43686 33.6134C7.28981 36.9392 9.88782 39.452 13.212 41.09L14.98 37.502ZM8.93695 31.6771C7.48269 29.0296 6.688 25.528 6.688 21.056H2.688C2.688 25.9707 3.55731 30.1917 5.43105 33.6029L8.93695 31.6771ZM6.688 21.056C6.688 17.039 7.45098 13.7584 8.87771 11.1302L5.36229 9.22182C3.54635 12.567 2.688 16.5396 2.688 21.056H6.688ZM8.87771 11.1302C10.3163 8.48018 12.3193 6.48147 14.9132 5.09058L13.0228 1.56542C9.72866 3.33187 7.16639 5.89848 5.36229 9.22182L8.87771 11.1302ZM14.9222 5.08571C17.5734 3.64649 20.6919 2.896 24.336 2.896V-1.104C20.1295 -1.104 16.336 -0.233162 13.0138 1.57029L14.9222 5.08571ZM24.336 2.896C26.8521 2.896 28.9116 3.16099 30.5533 3.64603L31.6867 -0.190039C29.5737 -0.814327 27.1106 -1.104 24.336 -1.104V2.896ZM30.5649 3.64942C32.4203 4.18542 33.6739 4.70285 34.4321 5.16439L36.5119 1.7476C35.3075 1.01448 33.6597 0.379906 31.6751 -0.193431L30.5649 3.64942ZM34.5194 5.21458C34.5927 5.25427 34.8222 5.37856 34.8794 5.40958C34.9399 5.44235 34.9849 5.46673 35.0414 5.49733C35.0558 5.50509 35.1046 5.53156 35.1179 5.53877C35.1315 5.5461 35.1418 5.55169 35.1551 5.55888C35.1617 5.56247 35.1668 5.56522 35.1733 5.56878C35.1766 5.57056 35.1791 5.57192 35.1824 5.57369C35.1839 5.57451 35.1854 5.57533 35.1869 5.57614C35.1884 5.57696 35.1899 5.57777 35.1914 5.57858C35.2154 5.59158 35.2389 5.60432 35.2619 5.61677C35.2868 5.63024 35.3056 5.6404 35.3294 5.65333C35.3996 5.69136 35.3892 5.68572 35.4554 5.72158C35.5799 5.78901 35.563 5.77983 35.6714 5.83858C35.7817 5.8983 35.9132 5.96953 35.9594 5.99458C36.0065 6.0201 36.0003 6.01673 36.0314 6.03358C36.0434 6.04008 36.0414 6.039 36.0494 6.04333C36.0513 6.04436 36.0531 6.04529 36.0539 6.04577C36.054 6.04582 36.0542 6.04592 36.0543 6.04596C36.0543 6.04599 36.0544 6.04602 36.0544 6.04605C36.0545 6.04607 36.0545 6.0461 36.0546 6.04613C36.0546 6.04615 36.0547 6.04618 36.0547 6.0462C36.0548 6.04622 36.0548 6.04624 36.0549 6.04627C36.055 6.04632 36.055 6.04633 36.0551 6.04638C36.0552 6.04645 36.0553 6.04649 36.0553 6.04653C36.0554 6.04654 36.0554 6.04657 36.0554 6.04657C36.0554 6.04657 36.0554 6.04658 36.0554 6.04658C36.0554 6.04658 36.0554 6.04658 37.008 4.288C37.9606 2.52941 37.9606 2.52941 37.9606 2.52941C37.9606 2.52941 37.9606 2.52941 37.9605 2.5294C37.9605 2.5294 37.9605 2.52939 37.9605 2.52939C37.9605 2.52938 37.9605 2.52937 37.9605 2.52936C37.9603 2.52926 37.9606 2.52941 37.9604 2.5293C37.9603 2.52927 37.9603 2.52925 37.9602 2.52921C37.9599 2.52907 37.96 2.52913 37.9597 2.52896C37.9586 2.52834 37.9603 2.52925 37.9591 2.5286C37.9558 2.52684 37.9607 2.52948 37.9572 2.52759C37.9566 2.52727 37.9554 2.52661 37.9546 2.52616C37.9522 2.5249 37.9504 2.52391 37.9471 2.5221C37.9327 2.51434 37.9519 2.52472 37.9366 2.51641C37.8979 2.49547 37.9492 2.52327 37.9066 2.50016C37.8877 2.48996 37.9069 2.50034 37.8871 2.4896C37.8871 2.4896 37.8764 2.48385 37.8762 2.48371C37.8664 2.47843 37.8746 2.48283 37.8646 2.47741C37.8432 2.46586 37.7819 2.43263 37.7446 2.41241C37.6273 2.34888 37.7879 2.43586 37.6666 2.37016C37.6409 2.35626 37.6497 2.36104 37.6231 2.3466C37.6155 2.34251 37.625 2.34764 37.6174 2.34354C37.6165 2.34303 37.6155 2.34252 37.6146 2.342C37.6136 2.34149 37.6127 2.34097 37.6117 2.34046C37.6108 2.33994 37.6098 2.33942 37.6089 2.3389C37.6079 2.33839 37.6069 2.33787 37.606 2.33735C37.5931 2.33036 37.6131 2.34121 37.6002 2.33421C37.597 2.33246 37.5918 2.32965 37.5885 2.32786C37.5785 2.32248 37.5866 2.32683 37.5766 2.32141C37.5552 2.30986 37.4999 2.27988 37.4746 2.26616C37.4452 2.25028 37.3939 2.22246 37.3606 2.20441C37.1473 2.0889 37.3258 2.1856 37.0966 2.06141C37.0006 2.00944 36.8965 1.95305 36.7846 1.89241C36.7589 1.87851 36.7681 1.8835 36.7422 1.86946C36.7159 1.8552 36.7256 1.8605 36.6991 1.8461C36.6809 1.83628 36.6954 1.84412 36.6772 1.83427C36.6662 1.82831 36.6663 1.82833 36.6552 1.82234C36.5593 1.77042 36.7067 1.85022 36.6106 1.79816C36.6087 1.79715 36.6068 1.79613 36.6049 1.79511C36.6031 1.7941 36.6012 1.79308 36.5993 1.79206C36.5974 1.79104 36.5955 1.79002 36.5936 1.78899C36.5918 1.78797 36.5899 1.78695 36.588 1.78592C36.5804 1.78183 36.5842 1.78387 36.5766 1.77977C36.5747 1.77874 36.5728 1.77771 36.5709 1.77668C36.569 1.77565 36.5671 1.77462 36.5652 1.77358C36.5633 1.77255 36.5614 1.77152 36.5595 1.77048C36.5576 1.76945 36.5556 1.76841 36.5537 1.76738C36.5518 1.76634 36.5442 1.76219 36.5422 1.76114C36.5133 1.74547 36.5596 1.77056 36.5307 1.75488C36.5287 1.75384 36.5268 1.75279 36.5249 1.75175C36.5229 1.7507 36.521 1.74965 36.5191 1.7486C36.5158 1.74685 36.5107 1.74405 36.5074 1.74229C36.4879 1.73172 36.5153 1.74654 36.4957 1.73596C36.4827 1.7289 36.4853 1.7303 36.4722 1.72321C36.4244 1.69734 36.4726 1.72342 36.4246 1.69741L34.5194 5.21458ZM35.0468 4.68023L36.9668 14.2802L40.8892 13.4958L38.9692 3.89577L35.0468 4.68023ZM38.4979 11.9348L31.5219 13.4708L32.3821 17.3772L39.3581 15.8412L38.4979 11.9348ZM33.9079 15.0062L32.4999 8.41424L28.5881 9.24976L29.9961 15.8418L33.9079 15.0062ZM44.377 40H42.377V42H44.377V40ZM44.377 32.832V30.832H42.377V32.832H44.377ZM49.497 32.832V34.832H51.497V32.832H49.497ZM49.497 9.472H51.497V7.472H49.497V9.472ZM44.377 9.472H42.377V11.472H44.377V9.472ZM44.377 2.304V0.303997H42.377V2.304H44.377ZM70.681 3.904L69.8144 5.7065L69.8286 5.71332L69.8429 5.71992L70.681 3.904ZM75.289 8.32L77.1166 7.50772V7.50772L75.289 8.32ZM73.177 24.576L71.8193 23.1075L71.8123 23.1139L71.8054 23.1204L73.177 24.576ZM57.753 27.712V25.712H55.753V27.712H57.753ZM57.753 32.832H55.753V34.832H57.753V32.832ZM60.825 32.832H62.825V30.832H60.825V32.832ZM60.825 40V42H62.825V40H60.825ZM57.817 20.608H55.817V22.608H57.817V20.608ZM65.113 20.096L64.5035 18.1912L64.492 18.1948L64.4805 18.1986L65.113 20.096ZM67.353 18.368L65.6221 17.3659L65.6019 17.4008L65.5832 17.4365L67.353 18.368ZM67.225 11.648L65.5744 12.7774L67.225 11.648ZM64.793 9.984L64.1834 11.8888L64.2184 11.9L64.2537 11.9099L64.793 9.984ZM57.817 9.472V7.472H55.817V9.472H57.817ZM68.825 40L67.0679 40.9553L67.6359 42H68.825V40ZM61.657 26.816L61.3007 24.848L58.5785 25.3408L59.8999 27.7713L61.657 26.816ZM69.081 25.472L70.7828 24.4213L70.0665 23.2611L68.7247 23.504L69.081 25.472ZM73.625 32.832L71.9232 33.8827L72.5093 34.832H73.625V32.832ZM80.281 32.832H82.281V30.832H80.281V32.832ZM80.281 40V42H82.281V40H80.281ZM46.377 40V32.832H42.377V40H46.377ZM44.377 34.832H49.497V30.832H44.377V34.832ZM51.497 32.832V9.472H47.497V32.832H51.497ZM49.497 7.472H44.377V11.472H49.497V7.472ZM46.377 9.472V2.304H42.377V9.472H46.377ZM44.377 4.304H61.273V0.303997H44.377V4.304ZM61.273 4.304C65.1969 4.304 67.9864 4.82767 69.8144 5.7065L71.5476 2.10149C68.9382 0.846994 65.4558 0.303997 61.273 0.303997V4.304ZM69.8429 5.71992C71.697 6.57566 72.8368 7.72687 73.4614 9.13227L77.1166 7.50772C76.0346 5.07312 74.1023 3.28033 71.5191 2.08808L69.8429 5.71992ZM73.4614 9.13227C74.1791 10.7471 74.569 12.7001 74.569 15.04H78.569C78.569 12.2599 78.1056 9.73292 77.1166 7.50772L73.4614 9.13227ZM74.569 15.04C74.569 18.9707 73.5327 21.5234 71.8193 23.1075L74.5347 26.0445C77.344 23.4473 78.569 19.6426 78.569 15.04H74.569ZM71.8054 23.1204C70.097 24.7303 67.3507 25.712 63.193 25.712V29.712C67.91 29.712 71.8197 28.603 74.5486 26.0316L71.8054 23.1204ZM63.193 25.712H57.753V29.712H63.193V25.712ZM55.753 27.712V32.832H59.753V27.712H55.753ZM57.753 34.832H60.825V30.832H57.753V34.832ZM58.825 32.832V40H62.825V32.832H58.825ZM60.825 38H44.377V42H60.825V38ZM57.817 22.608H60.889V18.608H57.817V22.608ZM60.889 22.608C62.7738 22.608 64.4272 22.4328 65.7455 21.9934L64.4805 18.1986C63.7508 18.4419 62.5882 18.608 60.889 18.608V22.608ZM65.7225 22.0008C67.1707 21.5374 68.3998 20.6733 69.1228 19.2995L65.5832 17.4365C65.4529 17.684 65.1886 17.9719 64.5035 18.1912L65.7225 22.0008ZM69.0839 19.3701C69.7966 18.139 70.057 16.6361 70.057 15.04H66.057C66.057 16.2599 65.8481 16.9757 65.6221 17.3659L69.0839 19.3701ZM70.057 15.04C70.057 13.3682 69.7426 11.7857 68.8756 10.5186L65.5744 12.7774C65.8167 13.1316 66.057 13.8105 66.057 15.04H70.057ZM68.8756 10.5186C68.0217 9.27055 66.79 8.46625 65.3323 8.05807L64.2537 11.9099C64.9293 12.0991 65.319 12.4041 65.5744 12.7774L68.8756 10.5186ZM65.4026 8.07915C64.0809 7.65623 62.5607 7.472 60.889 7.472V11.472C62.2893 11.472 63.3717 11.6291 64.1834 11.8888L65.4026 8.07915ZM60.889 7.472H57.817V11.472H60.889V7.472ZM55.817 9.472V20.608H59.817V9.472H55.817ZM70.5821 39.0447L63.4141 25.8607L59.8999 27.7713L67.0679 40.9553L70.5821 39.0447ZM62.0133 28.784L69.4373 27.44L68.7247 23.504L61.3007 24.848L62.0133 28.784ZM67.3792 26.5227L71.9232 33.8827L75.3268 31.7813L70.7828 24.4213L67.3792 26.5227ZM73.625 34.832H80.281V30.832H73.625V34.832ZM78.281 32.832V40H82.281V32.832H78.281ZM80.281 38H68.825V42H80.281V38ZM112.491 3.264L111.524 5.01477L111.54 5.02331L111.555 5.03158L112.491 3.264ZM119.275 10.048L117.517 11.0022L119.275 10.048ZM119.275 32.192L117.512 31.2482L119.275 32.192ZM112.555 39.104L113.502 40.8658L113.512 40.8603L113.522 40.8548L112.555 39.104ZM92.715 39.104L91.7482 40.8548L91.7636 40.8633L91.7792 40.8716L92.715 39.104ZM85.995 32.192L87.7583 31.2482L85.995 32.192ZM85.995 10.048L87.7527 11.0022L85.995 10.048ZM92.715 3.264L93.6616 5.02579L93.6718 5.02034L93.6818 5.01477L92.715 3.264ZM94.763 11.2L96.3335 12.4383L96.3393 12.4311L96.3449 12.4237L94.763 11.2ZM94.763 31.104L96.3449 29.8803L94.763 31.104ZM110.507 31.104L108.94 29.8618L108.932 29.871L108.925 29.8803L110.507 31.104ZM110.571 11.2L108.989 12.4237L108.995 12.4311L109 12.4383L110.571 11.2ZM102.571 2.896C106.039 2.896 109.003 3.62266 111.524 5.01477L113.458 1.51323C110.261 -0.251989 106.613 -1.104 102.571 -1.104V2.896ZM111.555 5.03158C114.096 6.37654 116.077 8.34877 117.517 11.0022L121.033 9.09381C119.23 5.77389 116.689 3.22345 113.427 1.49642L111.555 5.03158ZM117.517 11.0022C118.94 13.6225 119.707 16.9636 119.707 21.12H123.707C123.707 16.487 122.853 12.4468 121.033 9.09381L117.517 11.0022ZM119.707 21.12C119.707 25.2286 118.942 28.5765 117.512 31.2482L121.038 33.1358C122.851 29.7488 123.707 25.7154 123.707 21.12H119.707ZM117.512 31.2482C116.062 33.956 114.091 35.9711 111.588 37.3532L113.522 40.8548C116.736 39.0796 119.245 36.4866 121.038 33.1358L117.512 31.2482ZM111.608 37.3422C109.083 38.6989 106.111 39.408 102.635 39.408V43.408C106.668 43.408 110.309 42.5811 113.502 40.8658L111.608 37.3422ZM102.635 39.408C99.2061 39.408 96.2279 38.7008 93.6508 37.3364L91.7792 40.8716C95.0047 42.5792 98.6399 43.408 102.635 43.408V39.408ZM93.6818 37.3532C91.179 35.9711 89.2076 33.956 87.7583 31.2482L84.2317 33.1358C86.0251 36.4866 88.5336 39.0796 91.7482 40.8548L93.6818 37.3532ZM87.7583 31.2482C86.3284 28.5765 85.563 25.2286 85.563 21.12H81.563C81.563 25.7154 82.419 29.7488 84.2317 33.1358L87.7583 31.2482ZM85.563 21.12C85.563 16.9636 86.3302 13.6225 87.7527 11.0022L84.2373 9.09381C82.4171 12.4468 81.563 16.487 81.563 21.12H85.563ZM87.7527 11.0022C89.1974 8.34095 91.1629 6.36838 93.6616 5.02579L91.7684 1.50221C88.5498 3.23162 86.0353 5.78172 84.2373 9.09381L87.7527 11.0022ZM93.6818 5.01477C96.206 3.62084 99.1503 2.896 102.571 2.896V-1.104C98.5677 -1.104 94.9413 -0.250168 91.7482 1.51323L93.6818 5.01477ZM102.635 5.808C98.6712 5.808 95.3943 7.11527 93.1811 9.97625L96.3449 12.4237C97.6304 10.7621 99.6015 9.808 102.635 9.808V5.808ZM93.1925 9.96169C91.0478 12.6817 90.139 16.5112 90.139 21.12H94.139C94.139 16.9394 94.9795 14.1556 96.3335 12.4383L93.1925 9.96169ZM90.139 21.12C90.139 25.7328 91.0495 29.5723 93.1811 32.3277L96.3449 29.8803C94.9779 28.1131 94.139 25.2965 94.139 21.12H90.139ZM93.1811 32.3277C95.3943 35.1887 98.6712 36.496 102.635 36.496V32.496C99.6015 32.496 97.6304 31.5419 96.3449 29.8803L93.1811 32.3277ZM102.635 36.496C106.599 36.496 109.876 35.1887 112.089 32.3277L108.925 29.8803C107.64 31.5419 105.668 32.496 102.635 32.496V36.496ZM112.074 32.3462C114.26 29.5885 115.195 25.7413 115.195 21.12H111.195C111.195 25.2881 110.338 28.0968 108.94 29.8618L112.074 32.3462ZM115.195 21.12C115.195 16.5112 114.286 12.6817 112.142 9.96169L109 12.4383C110.355 14.1556 111.195 16.9394 111.195 21.12H115.195ZM112.153 9.97625C109.935 7.1091 106.632 5.808 102.635 5.808V9.808C105.721 9.808 107.708 10.7682 108.989 12.4237L112.153 9.97625ZM134.359 40.704L133.96 42.6638L134.359 40.704ZM128.343 38.976L126.359 39.2275L126.507 40.3956L127.6 40.833L128.343 38.976ZM127.191 29.888L126.943 27.9034L124.955 28.1519L125.207 30.1395L127.191 29.888ZM133.847 29.056L135.828 28.7809L135.557 26.8267L133.599 27.0714L133.847 29.056ZM134.487 33.664L132.506 33.9391L132.675 35.1547L133.835 35.5547L134.487 33.664ZM138.263 34.624L137.934 36.5968L137.966 36.6021L137.999 36.6065L138.263 34.624ZM146.455 34.304L146.996 36.2293L146.455 34.304ZM149.719 32.576L151.094 34.0279L149.719 32.576ZM149.719 26.624L148.236 27.9658L148.252 27.9839L148.269 28.0015L149.719 26.624ZM144.471 24.576L144.111 26.5433L144.119 26.5448L144.127 26.5462L144.471 24.576ZM139.927 23.744L139.56 25.71L139.567 25.7113L139.927 23.744ZM130.967 19.904L129.631 21.3921L129.639 21.3997L129.648 21.4073L130.967 19.904ZM130.007 5.888L128.483 4.5927V4.5927L130.007 5.888ZM135.703 2.112L135.06 0.218013L135.05 0.221619L135.703 2.112ZM147.415 1.216L147.106 3.19202L147.137 3.19675L147.167 3.20056L147.415 1.216ZM151.447 2.048L150.889 3.96869L150.918 3.97705L150.947 3.98455L151.447 2.048ZM155.223 3.392L157.207 3.13606L157.065 2.04236L156.065 1.57798L155.223 3.392ZM156.503 13.312L156.714 15.3008L158.748 15.0848L158.487 13.0561L156.503 13.312ZM149.271 14.08L147.29 14.3569L147.558 16.2731L149.482 16.0688L149.271 14.08ZM148.439 8.128L150.42 7.85112L150.248 6.62283L149.071 6.23063L148.439 8.128ZM145.687 7.488L145.313 9.45268L145.365 9.46254L145.417 9.46966L145.687 7.488ZM137.303 8.512L138.324 10.2317L138.344 10.2201L138.363 10.208L137.303 8.512ZM136.727 14.976L137.96 13.401L136.727 14.976ZM141.975 16.832L141.608 18.7981L141.62 18.8003L141.632 18.8024L141.975 16.832ZM146.391 17.6L146.048 19.5704L146.073 19.5747L146.097 19.5783L146.391 17.6ZM155.479 21.376L154.016 22.7395L154.032 22.7567L154.048 22.7735L155.479 21.376ZM156.695 35.136L154.972 34.12L156.695 35.136ZM152.855 39.04L153.842 40.7794L153.86 40.7694L153.877 40.7591L152.855 39.04ZM147.735 40.896L147.369 38.9297L147.361 38.9313L147.735 40.896ZM142.615 39.408C139.505 39.408 136.893 39.1792 134.758 38.7442L133.96 42.6638C136.433 43.1675 139.325 43.408 142.615 43.408V39.408ZM134.758 38.7442C132.541 38.2926 130.656 37.7469 129.086 37.119L127.6 40.833C129.444 41.5704 131.569 42.1768 133.96 42.6638L134.758 38.7442ZM130.327 38.7245L129.175 29.6365L125.207 30.1395L126.359 39.2275L130.327 38.7245ZM127.439 31.8726L134.095 31.0406L133.599 27.0714L126.943 27.9034L127.439 31.8726ZM131.866 29.3311L132.506 33.9391L136.468 33.3889L135.828 28.7809L131.866 29.3311ZM133.835 35.5547C135.177 36.0174 136.543 36.365 137.934 36.5968L138.592 32.6512C137.423 32.4563 136.272 32.1639 135.139 31.7733L133.835 35.5547ZM137.999 36.6065C139.359 36.7879 140.685 36.88 141.975 36.88V32.88C140.876 32.88 139.727 32.8015 138.527 32.6415L137.999 36.6065ZM141.975 36.88C143.754 36.88 145.432 36.6694 146.996 36.2293L145.914 32.3787C144.747 32.7066 143.439 32.88 141.975 32.88V36.88ZM146.996 36.2293C148.592 35.7806 149.993 35.0712 151.094 34.0279L148.344 31.1241C147.823 31.6168 147.049 32.0594 145.914 32.3787L146.996 36.2293ZM151.094 34.0279C152.318 32.8689 152.935 31.3776 152.935 29.696H148.935C148.935 30.3184 148.742 30.7471 148.344 31.1241L151.094 34.0279ZM152.935 29.696C152.935 27.9972 152.339 26.4777 151.169 25.2465L148.269 28.0015C148.721 28.477 148.935 29.0055 148.935 29.696H152.935ZM151.202 25.2822C150.505 24.5115 149.545 23.9745 148.526 23.5768C147.486 23.1709 146.237 22.854 144.815 22.6058L144.127 26.5462C145.393 26.7673 146.363 27.0265 147.072 27.3032C147.802 27.5881 148.122 27.8405 148.236 27.9658L151.202 25.2822ZM144.831 22.6087L140.287 21.7767L139.567 25.7113L144.111 26.5433L144.831 22.6087ZM140.294 21.778C136.624 21.0924 134.017 19.9192 132.286 18.4007L129.648 21.4073C132.099 23.5581 135.464 24.9449 139.56 25.71L140.294 21.778ZM132.303 18.4159C130.684 16.9615 129.831 15.0316 129.831 12.416H125.831C125.831 16.0297 127.069 19.0918 129.631 21.3921L132.303 18.4159ZM129.831 12.416C129.831 10.155 130.441 8.46509 131.531 7.18329L128.483 4.5927C126.671 6.72424 125.831 9.38631 125.831 12.416H129.831ZM131.531 7.18329C132.725 5.77818 134.31 4.70919 136.356 4.00238L135.05 0.221619C132.403 1.13614 130.19 2.58448 128.483 4.5927L131.531 7.18329ZM136.346 4.00596C138.515 3.26997 140.835 2.896 143.319 2.896V-1.104C140.427 -1.104 137.67 -0.667307 135.06 0.218042L136.346 4.00596ZM143.319 2.896C144.58 2.896 145.842 2.99446 147.106 3.19202L147.724 -0.760025C146.258 -0.989124 144.789 -1.104 143.319 -1.104V2.896ZM147.167 3.20056C148.427 3.35812 149.668 3.61408 150.889 3.96869L152.005 0.127304C150.581 -0.286088 149.133 -0.584791 147.663 -0.768557L147.167 3.20056ZM150.947 3.98455C152.157 4.29665 153.3 4.70437 154.381 5.20602L156.065 1.57798C154.756 0.970293 153.383 0.482012 151.947 0.111442L150.947 3.98455ZM153.239 3.64794L154.519 13.5679L158.487 13.0561L157.207 3.13606L153.239 3.64794ZM156.292 11.3232L149.06 12.0912L149.482 16.0688L156.714 15.3008L156.292 11.3232ZM151.252 13.8031L150.42 7.85112L146.458 8.40488L147.29 14.3569L151.252 13.8031ZM149.071 6.23063C148.057 5.89256 147.019 5.65107 145.957 5.50634L145.417 9.46966C146.233 9.58092 147.029 9.76611 147.807 10.0254L149.071 6.23063ZM146.061 5.52332C145.044 5.32958 144.023 5.232 142.999 5.232V9.232C143.767 9.232 144.538 9.30508 145.313 9.45268L146.061 5.52332ZM142.999 5.232C140.37 5.232 138.049 5.6871 136.243 6.816L138.363 10.208C139.287 9.63023 140.764 9.232 142.999 9.232V5.232ZM136.282 6.79229C134.453 7.87846 133.255 9.53182 133.255 11.712H137.255C137.255 11.2468 137.423 10.7669 138.324 10.2317L136.282 6.79229ZM133.255 11.712C133.255 13.6443 133.961 15.3513 135.494 16.551L137.96 13.401C137.53 13.0647 137.255 12.5957 137.255 11.712H133.255ZM135.494 16.551C136.879 17.6349 139.041 18.3195 141.608 18.7981L142.342 14.8659C139.874 14.4058 138.537 13.8531 137.96 13.401L135.494 16.551ZM141.632 18.8024L146.048 19.5704L146.734 15.6296L142.318 14.8616L141.632 18.8024ZM146.097 19.5783C150.243 20.194 152.727 21.3559 154.016 22.7395L156.942 20.0125C154.733 17.6414 151.158 16.286 146.685 15.6217L146.097 19.5783ZM154.048 22.7735C155.41 24.1677 156.167 26.0635 156.167 28.672H160.167C160.167 25.2218 159.132 22.2536 156.91 19.9785L154.048 22.7735ZM156.167 28.672C156.167 31.0866 155.717 32.8572 154.972 34.12L158.418 36.152C159.636 34.0868 160.167 31.548 160.167 28.672H156.167ZM154.972 34.12C154.153 35.5101 153.108 36.563 151.833 37.3209L153.877 40.7591C155.76 39.6396 157.275 38.09 158.418 36.152L154.972 34.12ZM151.868 37.3006C150.488 38.084 148.992 38.6279 147.369 38.9297L148.101 42.8623C150.148 42.4815 152.065 41.788 153.842 40.7794L151.868 37.3006ZM147.361 38.9313C145.677 39.252 144.096 39.408 142.615 39.408V43.408C144.376 43.408 146.209 43.2226 148.109 42.8607L147.361 38.9313ZM170.734 40.704L170.335 42.6638L170.734 40.704ZM164.718 38.976L162.734 39.2275L162.882 40.3956L163.975 40.833L164.718 38.976ZM163.566 29.888L163.318 27.9034L161.33 28.1519L161.582 30.1395L163.566 29.888ZM170.222 29.056L172.203 28.7809L171.932 26.8267L169.974 27.0714L170.222 29.056ZM170.862 33.664L168.881 33.9391L169.05 35.1547L170.21 35.5547L170.862 33.664ZM174.638 34.624L174.309 36.5968L174.341 36.6021L174.374 36.6065L174.638 34.624ZM182.83 34.304L183.371 36.2293L182.83 34.304ZM186.094 32.576L187.469 34.0279L186.094 32.576ZM186.094 26.624L184.611 27.9658L184.627 27.9839L184.644 28.0015L186.094 26.624ZM180.846 24.576L180.486 26.5433L180.494 26.5448L180.502 26.5462L180.846 24.576ZM176.302 23.744L175.935 25.71L175.942 25.7113L176.302 23.744ZM167.342 19.904L166.006 21.3921L166.014 21.3997L166.023 21.4073L167.342 19.904ZM166.382 5.888L164.858 4.5927V4.5927L166.382 5.888ZM172.078 2.112L171.435 0.218013L171.425 0.221619L172.078 2.112ZM183.79 1.216L183.481 3.19202L183.512 3.19675L183.542 3.20056L183.79 1.216ZM187.822 2.048L187.264 3.96869L187.293 3.97705L187.322 3.98455L187.822 2.048ZM191.598 3.392L193.582 3.13606L193.44 2.04236L192.44 1.57798L191.598 3.392ZM192.878 13.312L193.089 15.3008L195.123 15.0848L194.862 13.0561L192.878 13.312ZM185.646 14.08L183.665 14.3569L183.933 16.2731L185.857 16.0688L185.646 14.08ZM184.814 8.128L186.795 7.85112L186.623 6.62283L185.446 6.23063L184.814 8.128ZM182.062 7.488L181.688 9.45268L181.74 9.46254L181.792 9.46966L182.062 7.488ZM173.678 8.512L174.699 10.2317L174.719 10.2201L174.738 10.208L173.678 8.512ZM173.102 14.976L174.335 13.401L173.102 14.976ZM178.35 16.832L177.983 18.7981L177.995 18.8003L178.007 18.8024L178.35 16.832ZM182.766 17.6L182.423 19.5704L182.448 19.5747L182.472 19.5783L182.766 17.6ZM191.854 21.376L190.391 22.7395L190.407 22.7567L190.423 22.7735L191.854 21.376ZM193.07 35.136L191.347 34.12L193.07 35.136ZM189.23 39.04L190.217 40.7794L190.235 40.7694L190.252 40.7591L189.23 39.04ZM184.11 40.896L183.744 38.9297L183.736 38.9313L184.11 40.896ZM178.99 39.408C175.88 39.408 173.268 39.1792 171.133 38.7442L170.335 42.6638C172.808 43.1675 175.7 43.408 178.99 43.408V39.408ZM171.133 38.7442C168.916 38.2926 167.031 37.7469 165.461 37.119L163.975 40.833C165.819 41.5704 167.944 42.1768 170.335 42.6638L171.133 38.7442ZM166.702 38.7245L165.55 29.6365L161.582 30.1395L162.734 39.2275L166.702 38.7245ZM163.814 31.8726L170.47 31.0406L169.974 27.0714L163.318 27.9034L163.814 31.8726ZM168.241 29.3311L168.881 33.9391L172.843 33.3889L172.203 28.7809L168.241 29.3311ZM170.21 35.5547C171.552 36.0174 172.918 36.365 174.309 36.5968L174.967 32.6512C173.798 32.4563 172.647 32.1639 171.514 31.7733L170.21 35.5547ZM174.374 36.6065C175.734 36.7879 177.06 36.88 178.35 36.88V32.88C177.251 32.88 176.102 32.8015 174.902 32.6415L174.374 36.6065ZM178.35 36.88C180.129 36.88 181.807 36.6694 183.371 36.2293L182.289 32.3787C181.122 32.7066 179.814 32.88 178.35 32.88V36.88ZM183.371 36.2293C184.967 35.7806 186.368 35.0712 187.469 34.0279L184.719 31.1241C184.198 31.6168 183.424 32.0594 182.289 32.3787L183.371 36.2293ZM187.469 34.0279C188.693 32.8689 189.31 31.3776 189.31 29.696H185.31C185.31 30.3184 185.117 30.7471 184.719 31.1241L187.469 34.0279ZM189.31 29.696C189.31 27.9972 188.714 26.4777 187.544 25.2465L184.644 28.0015C185.096 28.477 185.31 29.0055 185.31 29.696H189.31ZM187.577 25.2822C186.88 24.5115 185.92 23.9745 184.901 23.5768C183.861 23.1709 182.612 22.854 181.19 22.6058L180.502 26.5462C181.768 26.7673 182.738 27.0265 183.447 27.3032C184.177 27.5881 184.497 27.8405 184.611 27.9658L187.577 25.2822ZM181.206 22.6087L176.662 21.7767L175.942 25.7113L180.486 26.5433L181.206 22.6087ZM176.669 21.778C172.999 21.0924 170.392 19.9192 168.661 18.4007L166.023 21.4073C168.474 23.5581 171.839 24.9449 175.935 25.71L176.669 21.778ZM168.678 18.4159C167.059 16.9615 166.206 15.0316 166.206 12.416H162.206C162.206 16.0297 163.444 19.0918 166.006 21.3921L168.678 18.4159ZM166.206 12.416C166.206 10.155 166.816 8.46509 167.906 7.18329L164.858 4.5927C163.046 6.72424 162.206 9.38631 162.206 12.416H166.206ZM167.906 7.18329C169.1 5.77818 170.685 4.70919 172.731 4.00238L171.425 0.221619C168.778 1.13614 166.565 2.58448 164.858 4.5927L167.906 7.18329ZM172.721 4.00596C174.89 3.26997 177.21 2.896 179.694 2.896V-1.104C176.802 -1.104 174.045 -0.667307 171.435 0.218042L172.721 4.00596ZM179.694 2.896C180.955 2.896 182.217 2.99446 183.481 3.19202L184.099 -0.760025C182.633 -0.989124 181.164 -1.104 179.694 -1.104V2.896ZM183.542 3.20056C184.802 3.35812 186.043 3.61408 187.264 3.96869L188.38 0.127304C186.956 -0.286088 185.508 -0.584791 184.038 -0.768557L183.542 3.20056ZM187.322 3.98455C188.532 4.29665 189.675 4.70437 190.756 5.20602L192.44 1.57798C191.131 0.970293 189.758 0.482012 188.322 0.111442L187.322 3.98455ZM189.614 3.64794L190.894 13.5679L194.862 13.0561L193.582 3.13606L189.614 3.64794ZM192.667 11.3232L185.435 12.0912L185.857 16.0688L193.089 15.3008L192.667 11.3232ZM187.627 13.8031L186.795 7.85112L182.833 8.40488L183.665 14.3569L187.627 13.8031ZM185.446 6.23063C184.432 5.89256 183.394 5.65107 182.332 5.50634L181.792 9.46966C182.608 9.58092 183.404 9.76611 184.182 10.0254L185.446 6.23063ZM182.436 5.52332C181.419 5.32958 180.398 5.232 179.374 5.232V9.232C180.142 9.232 180.913 9.30508 181.688 9.45268L182.436 5.52332ZM179.374 5.232C176.745 5.232 174.424 5.6871 172.618 6.816L174.738 10.208C175.662 9.63023 177.139 9.232 179.374 9.232V5.232ZM172.657 6.79229C170.828 7.87846 169.63 9.53182 169.63 11.712H173.63C173.63 11.2468 173.798 10.7669 174.699 10.2317L172.657 6.79229ZM169.63 11.712C169.63 13.6443 170.336 15.3513 171.869 16.551L174.335 13.401C173.905 13.0647 173.63 12.5957 173.63 11.712H169.63ZM171.869 16.551C173.254 17.6349 175.416 18.3195 177.983 18.7981L178.717 14.8659C176.249 14.4058 174.912 13.8531 174.335 13.401L171.869 16.551ZM178.007 18.8024L182.423 19.5704L183.109 15.6296L178.693 14.8616L178.007 18.8024ZM182.472 19.5783C186.618 20.194 189.102 21.3559 190.391 22.7395L193.317 20.0125C191.108 17.6414 187.533 16.286 183.06 15.6217L182.472 19.5783ZM190.423 22.7735C191.785 24.1677 192.542 26.0635 192.542 28.672H196.542C196.542 25.2218 195.507 22.2536 193.285 19.9785L190.423 22.7735ZM192.542 28.672C192.542 31.0866 192.092 32.8572 191.347 34.12L194.793 36.152C196.011 34.0868 196.542 31.548 196.542 28.672H192.542ZM191.347 34.12C190.528 35.5101 189.483 36.563 188.208 37.3209L190.252 40.7591C192.135 39.6396 193.65 38.09 194.793 36.152L191.347 34.12ZM188.243 37.3006C186.863 38.084 185.367 38.6279 183.744 38.9297L184.476 42.8623C186.523 42.4815 188.44 41.788 190.217 40.7794L188.243 37.3006ZM183.736 38.9313C182.052 39.252 180.471 39.408 178.99 39.408V43.408C180.751 43.408 182.584 43.2226 184.484 42.8607L183.736 38.9313ZM228.037 5.504L226.781 7.06082L226.788 7.06572L226.794 7.07058L228.037 5.504ZM228.037 24.384L229.308 25.9286L229.31 25.9264L228.037 24.384ZM213.253 27.648V25.648H211.253V27.648H213.253ZM213.253 32.832H211.253V34.832H213.253V32.832ZM219.269 32.832H221.269V30.832H219.269V32.832ZM219.269 40V42H221.269V40H219.269ZM199.877 40H197.877V42H199.877V40ZM199.877 32.832V30.832H197.877V32.832H199.877ZM204.997 32.832V34.832H206.997V32.832H204.997ZM204.997 9.472H206.997V7.472H204.997V9.472ZM199.877 9.472H197.877V11.472H199.877V9.472ZM199.877 2.304V0.303997H197.877V2.304H199.877ZM213.317 9.472V7.472H211.317V9.472H213.317ZM213.317 21.312H211.317V23.312H213.317V21.312ZM216.453 4.304C221.29 4.304 224.63 5.32585 226.781 7.06082L229.293 3.94717C226.153 1.41548 221.77 0.303997 216.453 0.303997V4.304ZM226.794 7.07058C228.915 8.75379 230.069 11.2173 230.069 14.784H234.069C234.069 10.244 232.535 6.52088 229.28 3.93742L226.794 7.07058ZM230.069 14.784C230.069 18.5002 228.899 21.0794 226.764 22.8416L229.31 25.9264C232.551 23.2513 234.069 19.4305 234.069 14.784H230.069ZM226.766 22.8394C224.616 24.6081 221.283 25.648 216.453 25.648V29.648C221.778 29.648 226.167 28.5119 229.308 25.9286L226.766 22.8394ZM216.453 25.648H213.253V29.648H216.453V25.648ZM211.253 27.648V32.832H215.253V27.648H211.253ZM213.253 34.832H219.269V30.832H213.253V34.832ZM217.269 32.832V40H221.269V32.832H217.269ZM219.269 38H199.877V42H219.269V38ZM201.877 40V32.832H197.877V40H201.877ZM199.877 34.832H204.997V30.832H199.877V34.832ZM206.997 32.832V9.472H202.997V32.832H206.997ZM204.997 7.472H199.877V11.472H204.997V7.472ZM201.877 9.472V2.304H197.877V9.472H201.877ZM199.877 4.304H216.453V0.303997H199.877V4.304ZM216.389 23.312C219.03 23.312 221.384 22.7337 223.09 21.2265C224.842 19.6777 225.557 17.4647 225.557 14.976H221.557C221.557 16.7113 221.078 17.6663 220.44 18.2295C219.756 18.8343 218.527 19.312 216.389 19.312V23.312ZM225.557 14.976C225.557 12.6708 224.779 10.6409 222.983 9.2617C221.287 7.95932 218.978 7.472 216.389 7.472V11.472C218.579 11.472 219.854 11.902 220.547 12.4343C221.14 12.8898 221.557 13.6119 221.557 14.976H225.557ZM216.389 7.472H213.317V11.472H216.389V7.472ZM211.317 9.472V21.312H215.317V9.472H211.317ZM213.317 23.312H216.389V19.312H213.317V23.312ZM266.783 37.632L268.197 39.0462L268.203 39.0403L268.209 39.0343L266.783 37.632ZM244.255 37.632L242.841 39.0462L242.847 39.0522L242.853 39.058L244.255 37.632ZM240.415 9.472H242.415V7.472H240.415V9.472ZM235.231 9.472H233.231V11.472H235.231V9.472ZM235.231 2.304V0.303997H233.231V2.304H235.231ZM252.191 2.304H254.191V0.303997H252.191V2.304ZM252.191 9.472V11.472H254.191V9.472H252.191ZM248.671 9.472V7.472H246.671V9.472H248.671ZM250.399 33.024L249.012 34.4646L249.039 34.4908L249.067 34.5159L250.399 33.024ZM260.575 32.832L259.111 31.4692L259.109 31.4711L260.575 32.832ZM262.303 9.472H264.303V7.472H262.303V9.472ZM258.783 9.472H256.783V11.472H258.783V9.472ZM258.783 2.304V0.303997H256.783V2.304H258.783ZM275.807 2.304H277.807V0.303997H275.807V2.304ZM275.807 9.472V11.472H277.807V9.472H275.807ZM270.559 9.472V7.472H268.559V9.472H270.559ZM268.559 26.432C268.559 31.0105 267.389 34.1637 265.357 36.2297L268.209 39.0343C271.212 35.9803 272.559 31.6668 272.559 26.432H268.559ZM265.369 36.2178C263.353 38.2336 260.213 39.408 255.583 39.408V43.408C260.852 43.408 265.178 42.0651 268.197 39.0462L265.369 36.2178ZM255.583 39.408C250.908 39.408 247.717 38.2317 245.657 36.206L242.853 39.058C245.913 42.067 250.274 43.408 255.583 43.408V39.408ZM245.669 36.2178C243.602 34.1505 242.415 31.0018 242.415 26.432H238.415C238.415 31.6755 239.788 35.9935 242.841 39.0462L245.669 36.2178ZM242.415 26.432V9.472H238.415V26.432H242.415ZM240.415 7.472H235.231V11.472H240.415V7.472ZM237.231 9.472V2.304H233.231V9.472H237.231ZM235.231 4.304H252.191V0.303997H235.231V4.304ZM250.191 2.304V9.472H254.191V2.304H250.191ZM252.191 7.472H248.671V11.472H252.191V7.472ZM246.671 9.472V27.52H250.671V9.472H246.671ZM246.671 27.52C246.671 30.3076 247.288 32.8044 249.012 34.4646L251.786 31.5834C251.206 31.0249 250.671 29.8524 250.671 27.52H246.671ZM249.067 34.5159C250.755 36.0228 253.032 36.624 255.583 36.624V32.624C253.612 32.624 252.433 32.1585 251.731 31.5321L249.067 34.5159ZM255.583 36.624C258.15 36.624 260.431 35.9261 262.041 34.1929L259.109 31.4711C258.5 32.1273 257.454 32.624 255.583 32.624V36.624ZM262.039 34.1948C263.694 32.4167 264.303 29.8213 264.303 26.88H260.303C260.303 29.4 259.76 30.7726 259.111 31.4692L262.039 34.1948ZM264.303 26.88V9.472H260.303V26.88H264.303ZM262.303 7.472H258.783V11.472H262.303V7.472ZM260.783 9.472V2.304H256.783V9.472H260.783ZM258.783 4.304H275.807V0.303997H258.783V4.304ZM273.807 2.304V9.472H277.807V2.304H273.807ZM275.807 7.472H270.559V11.472H275.807V7.472ZM268.559 9.472V26.432H272.559V9.472H268.559ZM280.504 2.304V0.303997H278.504V2.304H280.504ZM297.911 2.304L299.71 1.42907L299.163 0.303997H297.911V2.304ZM310.583 28.352L308.785 29.2269L312.583 28.352H310.583ZM310.583 9.472H312.583V7.472H310.583V9.472ZM305.848 9.472H303.848V11.472H305.848V9.472ZM305.848 2.304V0.303997H303.848V2.304H305.848ZM323.703 2.304H325.703V0.303997H323.703V2.304ZM323.703 9.472V11.472H325.703V9.472H323.703ZM317.815 9.472V7.472H315.815V9.472H317.815ZM317.815 40V42H319.815V40H317.815ZM308.344 40L306.558 40.9004L307.112 42H308.344V40ZM292.919 9.408L294.705 8.5076L290.919 9.408H292.919ZM292.919 32.832H290.919V34.832H292.919V32.832ZM298.296 32.832H300.296V30.832H298.296V32.832ZM298.296 40V42H300.296V40H298.296ZM280.44 40H278.44V42H280.44V40ZM280.44 32.832V30.832H278.44V32.832H280.44ZM285.751 32.832V34.832H287.751V32.832H285.751ZM285.751 9.472H287.751V7.472H285.751V9.472ZM280.504 9.472H278.504V11.472H280.504V9.472ZM280.504 4.304H297.911V0.303997H280.504V4.304ZM296.113 3.17893L308.785 29.2269L312.382 27.4771L299.71 1.42907L296.113 3.17893ZM312.583 28.352V9.472H308.583V28.352H312.583ZM310.583 7.472H305.848V11.472H310.583V7.472ZM307.848 9.472V2.304H303.848V9.472H307.848ZM305.848 4.304H323.703V0.303997H305.848V4.304ZM321.703 2.304V9.472H325.703V2.304H321.703ZM323.703 7.472H317.815V11.472H323.703V7.472ZM315.815 9.472V40H319.815V9.472H315.815ZM317.815 38H308.344V42H317.815V38ZM310.129 39.0996L294.705 8.5076L291.134 10.3084L306.558 40.9004L310.129 39.0996ZM290.919 9.408V32.832H294.919V9.408H290.919ZM292.919 34.832H298.296V30.832H292.919V34.832ZM296.296 32.832V40H300.296V32.832H296.296ZM298.296 38H280.44V42H298.296V38ZM282.44 40V32.832H278.44V40H282.44ZM280.44 34.832H285.751V30.832H280.44V34.832ZM287.751 32.832V9.472H283.751V32.832H287.751ZM285.751 7.472H280.504V11.472H285.751V7.472ZM282.504 9.472V2.304H278.504V9.472H282.504ZM328.315 2.304V0.303997H326.315V2.304H328.315ZM345.211 2.304H347.211V0.303997H345.211V2.304ZM345.211 9.472V11.472H347.211V9.472H345.211ZM341.69 9.472V7.472H339.69V9.472H341.69ZM341.69 17.856H339.69V19.856H341.69V17.856ZM346.043 17.856V19.856H347.056L347.656 19.0382L346.043 17.856ZM352.186 9.472L353.8 10.6542L356.132 7.472H352.186V9.472ZM349.562 9.472H347.562V11.472H349.562V9.472ZM349.562 2.304V0.303997H347.562V2.304H349.562ZM366.522 2.304H368.522V0.303997H366.522V2.304ZM366.522 9.472V11.472H368.522V9.472H366.522ZM360.507 9.472V7.472H359.55L358.949 8.21686L360.507 9.472ZM351.995 20.032L350.437 18.7769L349.458 19.9918L350.398 21.2371L351.995 20.032ZM361.659 32.832L360.062 34.0371L360.662 34.832H361.659V32.832ZM368.122 32.832H370.122V30.832H368.122V32.832ZM368.122 40V42H370.122V40H368.122ZM348.603 40H346.603V42H348.603V40ZM348.603 32.832V30.832H346.603V32.832H348.603ZM352.827 32.832V34.832H356.814L354.43 31.6361L352.827 32.832ZM346.81 24.768L348.414 23.5721L347.814 22.768H346.81V24.768ZM341.69 24.768V22.768H339.69V24.768H341.69ZM341.69 32.832H339.69V34.832H341.69V32.832ZM345.211 32.832H347.211V30.832H345.211V32.832ZM345.211 40V42H347.211V40H345.211ZM328.315 40H326.315V42H328.315V40ZM328.315 32.832V30.832H326.315V32.832H328.315ZM333.499 32.832V34.832H335.499V32.832H333.499ZM333.499 9.472H335.499V7.472H333.499V9.472ZM328.315 9.472H326.315V11.472H328.315V9.472ZM328.315 4.304H345.211V0.303997H328.315V4.304ZM343.211 2.304V9.472H347.211V2.304H343.211ZM345.211 7.472H341.69V11.472H345.211V7.472ZM339.69 9.472V17.856H343.69V9.472H339.69ZM341.69 19.856H346.043V15.856H341.69V19.856ZM347.656 19.0382L353.8 10.6542L350.573 8.28981L344.429 16.6738L347.656 19.0382ZM352.186 7.472H349.562V11.472H352.186V7.472ZM351.562 9.472V2.304H347.562V9.472H351.562ZM349.562 4.304H366.522V0.303997H349.562V4.304ZM364.522 2.304V9.472H368.522V2.304H364.522ZM366.522 7.472H360.507V11.472H366.522V7.472ZM358.949 8.21686L350.437 18.7769L353.552 21.2871L362.064 10.7271L358.949 8.21686ZM350.398 21.2371L360.062 34.0371L363.255 31.6269L353.591 18.8269L350.398 21.2371ZM361.659 34.832H368.122V30.832H361.659V34.832ZM366.122 32.832V40H370.122V32.832H366.122ZM368.122 38H348.603V42H368.122V38ZM350.603 40V32.832H346.603V40H350.603ZM348.603 34.832H352.827V30.832H348.603V34.832ZM354.43 31.6361L348.414 23.5721L345.207 25.9639L351.223 34.0279L354.43 31.6361ZM346.81 22.768H341.69V26.768H346.81V22.768ZM339.69 24.768V32.832H343.69V24.768H339.69ZM341.69 34.832H345.211V30.832H341.69V34.832ZM343.211 32.832V40H347.211V32.832H343.211ZM345.211 38H328.315V42H345.211V38ZM330.315 40V32.832H326.315V40H330.315ZM328.315 34.832H333.499V30.832H328.315V34.832ZM335.499 32.832V9.472H331.499V32.832H335.499ZM333.499 7.472H328.315V11.472H333.499V7.472ZM330.315 9.472V2.304H326.315V9.472H330.315Z" fill="#FC78D8" fill-opacity="0.48" mask="url(#path-1-outside-1_3121_6281)"/>
</g>
<defs>
<filter id="filter0_d_3121_6281" x="0.688477" y="0.895996" width="371.434" height="48.512" filterUnits="userSpaceOnUse" color-interpolation-filters="sRGB">
<feFlood flood-opacity="0" result="BackgroundImageFix"/>
<feColorMatrix in="SourceAlpha" type="matrix" values="0 0 0 0 0 0 0 0 0 0 0 0 0 0 0 0 0 0 127 0" result="hardAlpha"/>
<feOffset dy="4"/>
<feGaussianBlur stdDeviation="2"/>
<feComposite in2="hardAlpha" operator="out"/>
<feColorMatrix type="matrix" values="0 0 0 0 0.988281 0 0 0 0 0.470257 0 0 0 0 0.847459 0 0 0 0.48 0"/>
<feBlend mode="normal" in2="BackgroundImageFix" result="effect1_dropShadow_3121_6281"/>
<feBlend mode="normal" in="SourceGraphic" in2="effect1_dropShadow_3121_6281" result="shape"/>
</filter>
</defs>
</svg>
