<svg width="279" height="79" viewBox="0 0 279 79" fill="none" xmlns="http://www.w3.org/2000/svg">
<rect x="0.5" width="278" height="79" rx="10" fill="white"/>
<path d="M104.987 33.127L114.338 45.3583V33.127H116.207V48.3105H114.231L104.881 35.9717V48.3105H103.01V33.127H104.987Z" fill="#CCCCCC"/>
<path d="M131.381 47.7169C130.149 48.1849 128.819 48.418 127.395 48.418C121.86 48.418 119.092 45.7815 119.092 40.5076C119.092 35.5171 121.763 33.0215 127.105 33.0215C128.638 33.0215 130.063 33.2344 131.38 33.6597V35.3584C130.063 34.8628 128.709 34.6147 127.319 34.6147C123.152 34.6147 121.069 36.5797 121.069 40.5076C121.069 44.7191 123.12 46.8259 127.224 46.8259C127.879 46.8259 128.605 46.7405 129.404 46.57V41.4103H131.381V47.7169Z" fill="#CCCCCC"/>
<path d="M134.533 42.4488V33.127H136.509V42.4486C136.509 45.365 137.97 46.8247 140.891 46.8247C143.811 46.8247 145.272 45.3647 145.272 42.4486V33.127H147.249V42.4486C147.249 46.4282 145.129 48.4168 140.891 48.4168C136.652 48.4171 134.533 46.4282 134.533 42.4488Z" fill="#CCCCCC"/>
<path d="M160.746 46.7184V48.3105H150.776V33.127H152.752V46.7184H160.746Z" fill="#CCCCCC"/>
<path d="M169.144 31.125L176.742 48.3117H174.552L172.574 43.5329H167.521L168.066 41.942H171.913L169.059 35.0607L163.599 48.3117H161.547L169.144 31.125Z" fill="#CCCCCC"/>
<path d="M178.826 48.3105V33.127H185.344C188.251 33.127 189.704 34.3414 189.704 36.7686C189.704 38.7441 188.284 40.2061 185.441 41.1535L190.687 48.3105H188.08L183.219 41.4836V40.1998C186.139 39.7386 187.599 38.6238 187.599 36.8548C187.599 35.4538 186.787 34.7519 185.164 34.7519H180.803V48.3111H178.826L178.826 48.3105Z" fill="#CCCCCC"/>
<path d="M198.093 33.127V43.9363C198.093 46.8524 196.365 48.3103 192.91 48.3103V46.7179C195.047 46.7179 196.116 45.7896 196.116 43.9361V33.127H198.093Z" fill="#CCCCCC"/>
<path d="M201.619 47.781V45.9758C203.223 46.5419 204.953 46.8261 206.813 46.8261C209.442 46.8261 210.756 45.8703 210.756 43.9575C210.756 42.332 209.787 41.516 207.849 41.516H205.882C202.685 41.516 201.084 40.1366 201.084 37.3757C201.084 34.474 203.133 33.0215 207.231 33.0215C209.011 33.0215 210.667 33.2355 212.199 33.6597V35.4648C210.667 34.898 209.011 34.6147 207.231 34.6147C204.452 34.6147 203.063 35.5353 203.063 37.3757C203.063 39.003 204.002 39.8173 205.882 39.8173H207.849C211.104 39.8173 212.733 41.1986 212.733 43.9575C212.733 46.9316 210.76 48.4184 206.812 48.4184C204.953 48.4184 203.223 48.2052 201.619 47.781Z" fill="#CCCCCC"/>
<path d="M105.487 32.6309L114.837 44.8624V32.6309H116.707V47.8144H114.73L105.38 35.4756V47.8144H103.51V32.6309H105.487Z" fill="black"/>
<path d="M131.881 47.2191C130.649 47.687 129.32 47.9199 127.895 47.9199C122.36 47.9199 119.592 45.2836 119.592 40.0098C119.592 35.0192 122.264 32.5234 127.607 32.5234C129.139 32.5234 130.564 32.7366 131.881 33.1617V34.8601C130.564 34.3645 129.209 34.1164 127.82 34.1164C123.654 34.1164 121.57 36.0814 121.57 40.0094C121.57 44.221 123.621 46.3278 127.725 46.3278C128.38 46.3278 129.107 46.2429 129.905 46.072V40.912H131.881L131.881 47.2191Z" fill="black"/>
<path d="M135.033 41.9538V32.6309H137.009V41.9536C137.009 44.8697 138.47 46.3287 141.391 46.3287C144.311 46.3287 145.772 44.8695 145.772 41.9536V32.6309H147.749V41.9536C147.749 45.933 145.629 47.9208 141.391 47.9208C137.152 47.9208 135.033 45.9334 135.033 41.9538Z" fill="black"/>
<path d="M161.246 46.2223V47.8144H151.276V32.6309H153.252V46.2223H161.246Z" fill="black"/>
<path d="M169.644 30.627L177.242 47.8146H175.05L173.074 43.0361H168.02L168.566 41.444H172.412L169.559 34.5626L164.098 47.8146H162.047L169.644 30.627Z" fill="black"/>
<path d="M179.326 47.8144V32.6309H185.844C188.751 32.6309 190.203 33.8445 190.203 36.2727C190.203 38.2472 188.783 39.71 185.941 40.6572L191.187 47.8144H188.579L183.718 40.9873V39.7023C186.639 39.241 188.099 38.1273 188.099 36.3572C188.099 34.9562 187.286 34.2553 185.662 34.2553H181.302V47.8144H179.326Z" fill="black"/>
<path d="M198.593 32.6309V43.4404C198.593 46.3574 196.865 47.8144 193.41 47.8144V46.2223C195.547 46.2223 196.616 45.2937 196.616 43.4402V32.6309H198.593Z" fill="#A6120D"/>
<path d="M202.119 47.2828V45.4779C203.722 46.0439 205.453 46.3282 207.312 46.3282C209.941 46.3282 211.256 45.372 211.256 43.4604C211.256 41.8339 210.286 41.0188 208.349 41.0188H206.382C203.184 41.0188 201.583 39.6386 201.583 36.8775C201.583 33.9757 203.632 32.5234 207.73 32.5234C209.51 32.5234 211.166 32.7375 212.699 33.1617V34.9669C211.166 34.3999 209.51 34.1166 207.73 34.1166C204.951 34.1166 203.562 35.0373 203.562 36.8777C203.562 38.505 204.501 39.3193 206.382 39.3193H208.349C211.603 39.3193 213.232 40.6999 213.232 43.4604C213.232 46.4338 211.259 47.9203 207.312 47.9203C205.453 47.9201 203.722 47.707 202.119 47.2828Z" fill="#A6120D"/>
<path d="M67.6952 50.4111L82.7405 58.6277L97.8633 50.2998L100.682 27.0677L82.7215 20.9375L64.875 27.1781L67.6952 50.4111Z" fill="#B3B3B3"/>
<path d="M82.6797 56.6652L96.2749 49.1889L98.9021 28.4109L82.6797 22.9141V56.6652Z" fill="#A6120D"/>
<path d="M82.6795 56.6658V22.9141L66.8774 28.5107L69.2941 49.2889L82.6795 56.6658Z" fill="#DD1B16"/>
<path d="M87.1451 40.8804L82.6797 42.9553H77.9731L75.7607 48.4538L71.6455 48.5296L82.6797 24.1387L87.1451 40.8804ZM86.7135 39.8358L82.7092 31.9592L79.4248 39.7003H82.6795L86.7135 39.8358Z" fill="#F2F2F2"/>
<path d="M86.4362 39.7063H82.6881L82.6797 42.9503L87.8623 42.9553L90.2846 48.5304L94.2221 48.6029L82.6797 24.1387L82.7093 31.9592L86.4362 39.7063Z" fill="#B3B3B3"/>
</svg>
