<svg width="279" height="79" viewBox="0 0 279 79" fill="none" xmlns="http://www.w3.org/2000/svg">
<rect x="0.5" width="278" height="79" rx="10" fill="white"/>
<path d="M100 28.0455C100.096 28.0276 100.175 27.9998 100.254 28C103.493 28.0128 106.733 28.0079 109.973 28.0539C111.077 28.0695 112.091 28.4662 112.998 29.1238C115.068 30.6242 115.259 34.9107 112.417 36.4483C112.273 36.5265 112.129 36.6056 111.932 36.7124C112.473 36.9649 113.004 37.1342 113.449 37.4355C115.159 38.5921 115.855 41.18 115.09 43.453C114.422 45.4362 112.836 46.2551 110.993 46.6907C110.387 46.8338 109.753 46.9081 109.131 46.9126C106.103 46.9349 103.074 46.9225 100 46.9225C100 40.6374 100 34.3514 100 28.0455ZM103.239 44.156C105.492 44.156 107.679 44.2083 109.862 44.1371C111.235 44.0924 112.227 42.594 112.144 41.1365C112.063 39.6998 111.194 38.478 109.852 38.4141C107.687 38.3112 105.517 38.3403 103.349 38.3173C103.316 38.3171 103.283 38.3656 103.239 38.4006L103.239 44.156ZM103.247 35.8579C105.26 35.8579 107.201 35.9326 109.134 35.8331C110.558 35.7598 111.361 34.6005 111.308 33.0159C111.261 31.6128 110.447 30.769 108.983 30.7296C107.147 30.6805 105.309 30.7032 103.472 30.6989C103.397 30.6987 103.322 30.7397 103.247 30.7615V35.8579ZM203.638 33.2646H206.338V34.7388C206.639 34.5026 207.005 34.2403 207.343 33.9448C209.412 32.1361 214.32 32.358 216 36.0006C217.445 39.1355 217.382 42.2881 215.431 45.2067C214.35 46.8232 212.677 47.4009 210.781 47.2969C209.134 47.2064 207.685 46.6791 206.544 45.1261V52H203.638C203.638 45.7493 203.638 39.5247 203.638 33.2646ZM206.381 40.1674C206.503 40.8539 206.57 41.5569 206.758 42.2241C207.177 43.7131 208.456 44.8141 209.78 44.9092C211.551 45.0365 212.823 44.3699 213.463 42.7704C214.277 40.7377 214.248 38.6876 213.059 36.7879C211.656 34.5469 208.295 34.7342 207.106 37.0818C206.617 38.0482 206.377 39.0654 206.381 40.1674ZM201.724 44.9671C201.724 45.5289 201.744 46.0994 201.71 46.6671C201.702 46.8072 201.529 47.0439 201.418 47.0536C200.576 47.1251 199.719 47.2502 198.888 47.1618C198.155 47.0838 197.751 46.4509 197.525 45.7191C195.785 47.1621 193.789 47.4742 191.667 47.2063C189.891 46.9824 188.421 45.4977 188.294 43.8492C188.12 41.5772 188.977 40.0979 190.98 39.5593C192.384 39.1817 193.847 39.03 195.284 38.775C195.632 38.7132 195.985 38.6628 196.325 38.568C196.979 38.3862 197.45 38.0176 197.498 37.2597C197.548 36.4762 197.25 35.8658 196.527 35.5692C195.293 35.0636 194.037 35.0762 192.822 35.6551C192.268 35.9192 191.938 36.4506 191.648 37.3532H188.802C188.804 36.2479 189.182 35.319 189.903 34.5369C190.855 33.5036 192.096 33.098 193.432 32.9556C194.831 32.8066 196.223 32.8132 197.582 33.28C199.41 33.9078 200.285 35.1361 200.282 37.1026C200.28 39.1899 200.281 41.2773 200.281 43.365C200.281 44.8465 200.28 44.8465 201.724 44.9671ZM197.325 40.2567C196.428 40.415 195.607 40.5364 194.797 40.7089C193.945 40.8904 193.077 41.0477 192.264 41.3507C191.468 41.648 191.197 42.4061 191.224 43.2203C191.249 43.9987 191.771 44.4348 192.444 44.6743C193.597 45.0849 194.754 45.0343 195.855 44.51C196.643 44.1345 197.243 43.5205 197.313 42.5824C197.372 41.801 197.325 41.0114 197.325 40.2567ZM124.082 32.8702C128.546 32.8167 131.164 36.1497 130.887 40.688C130.792 42.2654 130.375 43.7396 129.356 44.9863C128.258 46.3295 126.844 47.0368 125.15 47.2287C123.735 47.3893 122.36 47.295 121.049 46.6889C119.096 45.786 117.982 44.2105 117.514 42.1112C117.193 40.6723 117.207 39.2395 117.567 37.8162C118.361 34.6766 120.735 32.8824 124.082 32.8702ZM120.196 40.1124C120.313 40.7785 120.374 41.4613 120.558 42.1078C121.026 43.7536 122.302 44.8403 123.76 44.9123C125.562 45.0013 126.823 44.229 127.493 42.519C128.147 40.8496 128.148 39.1411 127.431 37.4918C126.369 35.0484 123.475 34.4236 121.611 36.2398C120.548 37.2752 120.274 38.6512 120.196 40.1124ZM139.57 32.8704C143.596 32.8639 146.336 35.6275 146.387 39.7381C146.408 41.4737 146.131 43.1288 145.13 44.5828C143.698 46.6644 141.63 47.3927 139.249 47.2822C138.372 47.2414 137.462 47.0429 136.644 46.716C134.725 45.9484 133.58 44.4371 133.071 42.4142C132.625 40.6379 132.674 38.8728 133.242 37.1366C134.114 34.4734 136.503 32.875 139.57 32.8704ZM143.429 39.7433C143.364 39.3787 143.3 38.6743 143.107 38.0084C142.617 36.3149 141.32 35.2868 139.687 35.2145C138.149 35.1463 136.765 36.0701 136.169 37.6879C135.466 39.5935 135.518 41.4916 136.576 43.2671C137.679 45.1167 140.18 45.5221 141.82 44.142C143.071 43.089 143.377 41.6351 143.429 39.7433ZM168.323 37.0616C167.404 37.0616 166.51 37.0693 165.616 37.0518C165.505 37.0498 165.334 36.9373 165.298 36.8366C164.796 35.4141 163.612 35.2449 162.389 35.2378C161.882 35.2347 161.342 35.3605 160.872 35.5611C159.868 35.9901 159.757 37.1471 160.698 37.7012C161.35 38.0857 162.117 38.2922 162.853 38.5033C163.894 38.8021 164.97 38.9821 166.005 39.3006C168.651 40.1153 169.685 42.8177 168.204 45.0455C167.493 46.1139 166.43 46.6922 165.211 46.9918C163.41 47.4346 161.617 47.467 159.856 46.8195C157.973 46.1264 156.978 44.7354 156.831 42.6299H159.705C160.522 44.8024 162.831 45.6485 164.994 44.5383C165.495 44.2813 165.829 43.9159 165.862 43.3152C165.898 42.6732 165.655 42.1211 165.089 41.9062C164.08 41.5231 163.027 41.2604 161.992 40.9512C161.134 40.695 160.249 40.51 159.422 40.1765C157.825 39.5325 157.132 38.4246 157.142 36.7356C157.15 35.2624 157.996 34.0002 159.495 33.4466C161.558 32.6846 163.664 32.5898 165.736 33.4167C167.137 33.9758 167.972 35.0782 168.319 36.5626C168.351 36.6996 168.323 36.8515 168.323 37.0616ZM152.72 33.2265H155.38V35.442H152.774C152.755 35.7073 152.731 35.8929 152.731 36.0785C152.729 38.3147 152.728 40.5508 152.732 42.7866C152.733 43.0841 152.755 43.3825 152.784 43.6789C152.841 44.2702 153.164 44.6214 153.748 44.6538C154.284 44.6837 154.822 44.6602 155.389 44.6602V46.8754C154.174 47.1817 152.94 47.1655 151.744 46.8943C150.353 46.5786 149.787 45.6032 149.775 43.7568C149.758 41.244 149.77 38.7308 149.769 36.2178V35.479H147.56V33.2382H149.74V29.1351H152.72C152.72 30.4772 152.72 31.8096 152.72 33.2265ZM177.597 46.9608C176.452 46.9608 175.369 46.9971 174.289 46.9504C173.242 46.9052 172.436 46.1982 172.208 45.143C172.077 44.5412 172.008 43.9274 172.002 43.3112C171.978 40.947 171.992 38.5822 171.992 36.2177V35.47H169.79V33.2589H171.959V29.139H174.946V33.1921H177.593V35.4193H175.053C175.023 35.62 174.983 35.7587 174.983 35.8978C174.981 38.3049 174.973 40.7121 174.989 43.119C174.997 44.392 175.324 44.6984 176.563 44.6893C176.894 44.6871 177.225 44.6891 177.597 44.6891L177.597 46.9608ZM182.565 33.2723V35.6033C183.712 33.6199 185.299 32.5864 187.643 32.9387V35.8144C186.529 35.6439 185.455 35.6135 184.504 36.3098C183.256 37.2234 182.821 38.5584 182.79 40.03C182.742 42.305 182.777 44.5821 182.777 46.908H179.852V33.272C180.738 33.2723 181.605 33.2723 182.565 33.2723Z" fill="#573E7D"/>
<g clip-path="url(#clip0_2463_8455)">
<path d="M62 51.8739C62 54.1529 63.8474 56 66.1261 56H89.8738C92.1529 56 94 54.1526 94 51.8739V28.1262C94 25.8471 92.1526 24 89.8739 24H66.1262C63.8471 24 62 25.8474 62 28.1261V51.8739Z" fill="#563D7C"/>
<path d="M75.2697 38.1547V33.6231H79.2585C79.6385 33.6231 80.0048 33.6548 80.3575 33.7181C80.7103 33.7814 81.0224 33.8944 81.2938 34.0573C81.565 34.2201 81.7822 34.4463 81.945 34.7356C82.1078 35.0251 82.1893 35.396 82.1893 35.8481C82.1893 36.6623 81.945 37.2503 81.4565 37.612C80.9682 37.9739 80.344 38.1547 79.5842 38.1547H75.2697ZM71.0093 30.3125V49.6875H80.3983C81.2667 49.6875 82.1124 49.579 82.9355 49.3619C83.7587 49.1448 84.4913 48.8101 85.1335 48.3579C85.7757 47.9056 86.2868 47.3221 86.6667 46.6076C87.0467 45.893 87.2365 45.0473 87.2365 44.0704C87.2365 42.8583 86.9425 41.8226 86.3547 40.9634C85.7667 40.104 84.8757 39.5025 83.6817 39.1587C84.55 38.7427 85.2059 38.209 85.6492 37.5577C86.0923 36.9065 86.3139 36.0925 86.3139 35.1155C86.3139 34.211 86.1647 33.4513 85.8662 32.8361C85.5677 32.2211 85.147 31.7281 84.6043 31.3573C84.0617 30.9864 83.4104 30.7195 82.6505 30.5567C81.8908 30.3939 81.0495 30.3125 80.1269 30.3125H71.0093ZM75.2697 46.3769V41.0583H79.9098C80.8324 41.0583 81.5742 41.2707 82.135 41.696C82.6958 42.1211 82.9763 42.8311 82.9763 43.8261C82.9763 44.3327 82.8903 44.7487 82.7184 45.0744C82.5465 45.4 82.3159 45.6579 82.0264 45.8477C81.737 46.0377 81.4023 46.1734 81.0224 46.2549C80.6424 46.3361 80.2445 46.3769 79.8284 46.3769H75.2697Z" fill="white"/>
</g>
<defs>
<clipPath id="clip0_2463_8455">
<rect width="32" height="32" fill="white" transform="translate(62 24)"/>
</clipPath>
</defs>
</svg>
