<svg width="278" height="79" viewBox="0 0 278 79" fill="none" xmlns="http://www.w3.org/2000/svg">
<rect width="278" height="79" rx="10" fill="white"/>
<path d="M99.5003 28.0455C99.5964 28.0276 99.6752 27.9998 99.7537 28C102.993 28.0128 106.233 28.0079 109.473 28.0539C110.577 28.0695 111.591 28.4662 112.498 29.1238C114.568 30.6242 114.759 34.9107 111.917 36.4483C111.773 36.5265 111.629 36.6056 111.432 36.7124C111.973 36.9649 112.504 37.1342 112.949 37.4355C114.659 38.5921 115.355 41.18 114.59 43.453C113.922 45.4362 112.336 46.2551 110.493 46.6907C109.887 46.8338 109.253 46.9081 108.631 46.9126C105.603 46.9349 102.574 46.9225 99.5 46.9225C99.5003 40.6374 99.5003 34.3514 99.5003 28.0455ZM102.739 44.156C104.992 44.156 107.179 44.2083 109.362 44.1371C110.735 44.0924 111.727 42.594 111.644 41.1365C111.563 39.6998 110.694 38.478 109.352 38.4141C107.187 38.3112 105.017 38.3403 102.849 38.3173C102.816 38.3171 102.783 38.3656 102.739 38.4006L102.739 44.156ZM102.747 35.8579C104.76 35.8579 106.701 35.9326 108.634 35.8331C110.058 35.7598 110.861 34.6005 110.808 33.0159C110.761 31.6128 109.947 30.769 108.483 30.7296C106.647 30.6805 104.809 30.7032 102.972 30.6989C102.897 30.6987 102.822 30.7397 102.747 30.7615V35.8579ZM203.138 33.2646H205.838V34.7388C206.139 34.5026 206.505 34.2403 206.843 33.9448C208.912 32.1361 213.82 32.358 215.5 36.0006C216.945 39.1355 216.882 42.2881 214.931 45.2067C213.85 46.8232 212.177 47.4009 210.281 47.2969C208.634 47.2064 207.185 46.6791 206.044 45.1261V52H203.138C203.138 45.7493 203.138 39.5247 203.138 33.2646ZM205.881 40.1674C206.003 40.8539 206.07 41.5569 206.258 42.2241C206.677 43.7131 207.956 44.8141 209.28 44.9092C211.051 45.0365 212.323 44.3699 212.963 42.7704C213.777 40.7377 213.748 38.6876 212.559 36.7879C211.156 34.5469 207.795 34.7342 206.606 37.0818C206.117 38.0482 205.877 39.0654 205.881 40.1674ZM201.224 44.9671C201.224 45.5289 201.244 46.0994 201.21 46.6671C201.202 46.8072 201.029 47.0439 200.918 47.0536C200.076 47.1251 199.219 47.2502 198.388 47.1618C197.655 47.0838 197.251 46.4509 197.025 45.7191C195.285 47.1621 193.289 47.4742 191.167 47.2063C189.391 46.9824 187.921 45.4977 187.794 43.8492C187.62 41.5772 188.477 40.0979 190.48 39.5593C191.884 39.1817 193.347 39.03 194.784 38.775C195.132 38.7132 195.485 38.6628 195.825 38.568C196.479 38.3862 196.95 38.0176 196.998 37.2597C197.048 36.4762 196.75 35.8658 196.027 35.5692C194.793 35.0636 193.537 35.0762 192.322 35.6551C191.768 35.9192 191.438 36.4506 191.148 37.3532H188.302C188.304 36.2479 188.682 35.319 189.403 34.5369C190.355 33.5036 191.596 33.098 192.932 32.9556C194.331 32.8066 195.723 32.8132 197.082 33.28C198.91 33.9078 199.785 35.1361 199.782 37.1026C199.78 39.1899 199.781 41.2773 199.781 43.365C199.781 44.8465 199.78 44.8465 201.224 44.9671ZM196.825 40.2567C195.928 40.415 195.107 40.5364 194.297 40.7089C193.445 40.8904 192.577 41.0477 191.764 41.3507C190.968 41.648 190.697 42.4061 190.724 43.2203C190.749 43.9987 191.271 44.4348 191.944 44.6743C193.097 45.0849 194.254 45.0343 195.355 44.51C196.143 44.1345 196.743 43.5205 196.813 42.5824C196.872 41.801 196.825 41.0114 196.825 40.2567ZM123.582 32.8702C128.046 32.8167 130.664 36.1497 130.387 40.688C130.292 42.2654 129.875 43.7396 128.856 44.9863C127.758 46.3295 126.344 47.0368 124.65 47.2287C123.235 47.3893 121.86 47.295 120.549 46.6889C118.596 45.786 117.482 44.2105 117.014 42.1112C116.693 40.6723 116.707 39.2395 117.067 37.8162C117.861 34.6766 120.235 32.8824 123.582 32.8702ZM119.696 40.1124C119.813 40.7785 119.874 41.4613 120.058 42.1078C120.526 43.7536 121.802 44.8403 123.26 44.9123C125.062 45.0013 126.323 44.229 126.993 42.519C127.647 40.8496 127.648 39.1411 126.931 37.4918C125.869 35.0484 122.975 34.4236 121.111 36.2398C120.048 37.2752 119.774 38.6512 119.696 40.1124ZM139.07 32.8704C143.096 32.8639 145.836 35.6275 145.887 39.7381C145.908 41.4737 145.631 43.1288 144.63 44.5828C143.198 46.6644 141.13 47.3927 138.749 47.2822C137.872 47.2414 136.962 47.0429 136.144 46.716C134.225 45.9484 133.08 44.4371 132.571 42.4142C132.125 40.6379 132.174 38.8728 132.742 37.1366C133.614 34.4734 136.003 32.875 139.07 32.8704ZM142.929 39.7433C142.864 39.3787 142.8 38.6743 142.607 38.0084C142.117 36.3149 140.82 35.2868 139.187 35.2145C137.649 35.1463 136.265 36.0701 135.669 37.6879C134.966 39.5935 135.018 41.4916 136.076 43.2671C137.179 45.1167 139.68 45.5221 141.32 44.142C142.571 43.089 142.877 41.6351 142.929 39.7433ZM167.823 37.0616C166.904 37.0616 166.01 37.0693 165.116 37.0518C165.005 37.0498 164.834 36.9373 164.798 36.8366C164.296 35.4141 163.112 35.2449 161.889 35.2378C161.382 35.2347 160.842 35.3605 160.372 35.5611C159.368 35.9901 159.257 37.1471 160.198 37.7012C160.85 38.0857 161.617 38.2922 162.353 38.5033C163.394 38.8021 164.47 38.9821 165.505 39.3006C168.151 40.1153 169.185 42.8177 167.704 45.0455C166.993 46.1139 165.93 46.6922 164.711 46.9918C162.91 47.4346 161.117 47.467 159.356 46.8195C157.473 46.1264 156.478 44.7354 156.331 42.6299H159.205C160.022 44.8024 162.331 45.6485 164.494 44.5383C164.995 44.2813 165.329 43.9159 165.362 43.3152C165.398 42.6732 165.155 42.1211 164.589 41.9062C163.58 41.5231 162.527 41.2604 161.492 40.9512C160.634 40.695 159.749 40.51 158.922 40.1765C157.325 39.5325 156.632 38.4246 156.642 36.7356C156.65 35.2624 157.496 34.0002 158.995 33.4466C161.058 32.6846 163.164 32.5898 165.236 33.4167C166.637 33.9758 167.472 35.0782 167.819 36.5626C167.851 36.6996 167.823 36.8515 167.823 37.0616ZM152.22 33.2265H154.88V35.442H152.274C152.255 35.7073 152.231 35.8929 152.231 36.0785C152.229 38.3147 152.228 40.5508 152.232 42.7866C152.233 43.0841 152.255 43.3825 152.284 43.6789C152.341 44.2702 152.664 44.6214 153.248 44.6538C153.784 44.6837 154.322 44.6602 154.889 44.6602V46.8754C153.674 47.1817 152.44 47.1655 151.244 46.8943C149.853 46.5786 149.287 45.6032 149.275 43.7568C149.258 41.244 149.27 38.7308 149.269 36.2178V35.479H147.06V33.2382H149.24V29.1351H152.22C152.22 30.4772 152.22 31.8096 152.22 33.2265ZM177.097 46.9608C175.952 46.9608 174.869 46.9971 173.789 46.9504C172.742 46.9052 171.936 46.1982 171.708 45.143C171.577 44.5412 171.508 43.9274 171.502 43.3112C171.478 40.947 171.492 38.5822 171.492 36.2177V35.47H169.29V33.2589H171.459V29.139H174.446V33.1921H177.093V35.4193H174.553C174.523 35.62 174.483 35.7587 174.483 35.8978C174.481 38.3049 174.473 40.7121 174.489 43.119C174.497 44.392 174.824 44.6984 176.063 44.6893C176.394 44.6871 176.725 44.6891 177.097 44.6891L177.097 46.9608ZM182.065 33.2723V35.6033C183.212 33.6199 184.799 32.5864 187.143 32.9387V35.8144C186.029 35.6439 184.955 35.6135 184.004 36.3098C182.756 37.2234 182.321 38.5584 182.29 40.03C182.242 42.305 182.277 44.5821 182.277 46.908H179.352V33.272C180.238 33.2723 181.105 33.2723 182.065 33.2723Z" fill="#573E7D"/>
<g clip-path="url(#clip0_2955_5036)">
<path d="M61.5 51.8739C61.5 54.1529 63.3474 56 65.6261 56H89.3738C91.6529 56 93.5 54.1526 93.5 51.8739V28.1262C93.5 25.8471 91.6526 24 89.3739 24H65.6262C63.3471 24 61.5 25.8474 61.5 28.1261V51.8739Z" fill="#563D7C"/>
<path d="M74.7701 38.1547V33.6231H78.759C79.139 33.6231 79.5053 33.6548 79.858 33.7181C80.2108 33.7814 80.5229 33.8944 80.7943 34.0573C81.0655 34.2201 81.2826 34.4463 81.4455 34.7356C81.6083 35.0251 81.6898 35.396 81.6898 35.8481C81.6898 36.6623 81.4455 37.2503 80.957 37.612C80.4686 37.9739 79.8445 38.1547 79.0846 38.1547H74.7701ZM70.5098 30.3125V49.6875H79.8988C80.7671 49.6875 81.6129 49.579 82.436 49.3619C83.2591 49.1448 83.9918 48.8101 84.634 48.3579C85.2761 47.9056 85.7873 47.3221 86.1671 46.6076C86.5471 45.893 86.737 45.0473 86.737 44.0704C86.737 42.8583 86.443 41.8226 85.8551 40.9634C85.2671 40.104 84.3761 39.5025 83.1821 39.1587C84.0505 38.7427 84.7064 38.209 85.1496 37.5577C85.5928 36.9065 85.8144 36.0925 85.8144 35.1155C85.8144 34.211 85.6651 33.4513 85.3666 32.8361C85.0681 32.2211 84.6475 31.7281 84.1048 31.3573C83.5621 30.9864 82.9109 30.7195 82.151 30.5567C81.3913 30.3939 80.55 30.3125 79.6274 30.3125H70.5098ZM74.7701 46.3769V41.0583H79.4103C80.3329 41.0583 81.0746 41.2707 81.6355 41.696C82.1963 42.1211 82.4768 42.8311 82.4768 43.8261C82.4768 44.3327 82.3908 44.7487 82.2189 45.0744C82.047 45.4 81.8164 45.6579 81.5269 45.8477C81.2375 46.0377 80.9028 46.1734 80.5229 46.2549C80.1429 46.3361 79.745 46.3769 79.3289 46.3769H74.7701Z" fill="white"/>
</g>
<defs>
<clipPath id="clip0_2955_5036">
<rect width="32" height="32" fill="white" transform="translate(61.5 24)"/>
</clipPath>
</defs>
</svg>
