<svg width="279" height="79" viewBox="0 0 279 79" fill="none" xmlns="http://www.w3.org/2000/svg">
<rect x="0.5" width="278" height="79" rx="10" fill="white"/>
<path d="M120.934 59.0234L117 15H160.273L156.339 59.0234L138.588 64" fill="#E34F26"/>
<path d="M138.684 60.1699L152.98 56.2461L156.338 18.5391H138.684" fill="#EF652A"/>
<path d="M138.683 34.9082H131.487L131.007 29.3574H138.683V23.998H138.587H125.059L125.155 25.4336L126.498 40.3633H138.683V34.9082ZM138.683 48.9766H138.587L132.543 47.3496L132.159 43.043H129.28H126.786L127.457 51.5605L138.587 54.623H138.683V48.9766Z" fill="#EBEBEB"/>
<path d="M138.589 34.9082V40.3633H145.305L144.634 47.3496L138.589 48.9766V54.623L149.719 51.5605L149.815 50.6035L151.062 36.3438L151.254 34.9082H149.719H138.589ZM138.589 23.998V27.3477V29.3574H151.734L151.83 28.209L152.118 25.4336L152.214 23.998H138.589Z" fill="white"/>
</svg>
