<svg width="279" height="79" viewBox="0 0 279 79" fill="none" xmlns="http://www.w3.org/2000/svg">
<rect x="0.5" width="278" height="79" rx="10" fill="white"/>
<path d="M174 58.9627C171.526 59.6004 169.996 58.9907 168.624 56.9007L158.861 43.2063L157.45 41.3102L146.05 56.946C144.747 58.8269 143.381 59.6457 140.95 58.9799L155.549 39.1104L141.957 21.1628C144.295 20.7017 145.91 20.9366 147.344 23.0589L157.47 36.9235L167.67 23.1343C168.977 21.2533 170.381 20.538 172.727 21.2318L167.457 28.316L160.317 37.7423C159.467 38.8196 159.584 39.5564 160.366 40.5971L174 58.9627ZM106.017 38.7786L107.211 32.8234C110.463 21.0379 123.786 16.1405 132.975 23.423C138.345 27.7063 139.679 33.7649 139.413 40.5518H109.145C108.69 52.7683 117.362 60.1412 128.419 56.3793C132.297 55.0586 134.581 51.9797 135.724 48.1273C136.305 46.1968 137.265 45.8952 139.054 46.4468C138.141 51.2644 136.079 55.2891 131.723 57.8078C125.214 61.5783 115.924 60.3588 111.036 55.1189C108.125 52.0788 106.922 48.2264 106.383 44.1069C106.298 43.426 106.127 42.7775 106 42.1247C106.011 41.0101 106.017 39.8954 106.017 38.7808V38.7786ZM109.2 37.9599H136.553C136.375 29.1261 130.95 22.852 123.535 22.7981C115.397 22.7335 109.553 28.859 109.2 37.9599Z" fill="black"/>
</svg>
