<svg width="278" height="79" viewBox="0 0 278 79" fill="none" xmlns="http://www.w3.org/2000/svg">
<rect width="278" height="79" rx="10" fill="white"/>
<g clip-path="url(#clip0_2955_4950)">
<path opacity="0.54" d="M109.024 51.1483H106.218V29.4791H118.961V32.1414H109.024V39.2557H117.987V41.8565H109.024V51.1483L109.024 51.1483ZM124.237 32.5977C123.568 33.2646 122.518 33.3693 121.729 32.8479C120.94 32.3265 120.631 31.3242 120.993 30.4544C121.355 29.5846 122.285 29.0894 123.215 29.2721C124.145 29.4547 124.815 30.2642 124.816 31.2051C124.825 31.7292 124.615 32.2335 124.235 32.5977H124.237ZM124.237 51.1483H121.431V36.3192H124.237V51.1483ZM130.394 51.1483H127.588V36.3192H130.271V38.7403H130.392C130.716 37.8871 131.338 37.178 132.145 36.7424C132.916 36.2514 133.807 35.9791 134.722 35.9551C135.441 35.9348 136.156 36.0587 136.826 36.3192L135.759 38.92C135.277 38.761 134.772 38.6889 134.265 38.7072C133.236 38.7124 132.257 39.1465 131.566 39.9035C130.784 40.7011 130.392 41.7454 130.392 43.0363L130.394 51.1483ZM144.515 51.6212C142.258 51.6212 140.424 50.8748 139.012 49.3824C137.601 47.8899 136.894 46.0069 136.892 43.7339C136.851 41.6875 137.585 39.7003 138.95 38.1659C140.258 36.6388 142.191 35.7816 144.21 35.8344C146.425 35.8344 148.199 36.5508 149.531 37.9836C150.863 39.4163 151.529 41.333 151.527 43.7337L151.496 44.2491H139.693C139.774 45.7417 140.277 46.924 141.203 47.7956C142.069 48.6391 143.237 49.1069 144.45 49.096C146.462 49.096 147.823 48.2485 148.535 46.5543L151.036 47.5828C150.529 48.7553 149.693 49.7583 148.628 50.472C147.508 51.2381 146.137 51.6211 144.514 51.6211L144.515 51.6212ZM148.54 41.9274C148.48 41.0794 148.088 40.2724 147.366 39.5063C146.643 38.7402 145.569 38.3651 144.143 38.3809C143.154 38.3637 142.193 38.7088 141.444 39.3503C140.66 40.0327 140.111 40.9424 139.875 41.951L148.54 41.9274ZM161.664 51.6212C160.603 51.642 159.553 51.3982 158.611 50.9119C157.784 50.4977 157.084 49.8706 156.584 49.0961H156.462V51.1483H153.778V29.4791H156.584V36.3192L156.462 38.3762H156.584C157.084 37.6017 157.784 36.9745 158.611 36.5604C159.552 36.0684 160.602 35.8188 161.665 35.8345C163.595 35.8345 165.263 36.5911 166.667 38.1043C168.07 39.6175 168.771 41.494 168.77 43.7338C168.768 45.9736 168.069 47.8501 166.667 49.3633C165.264 50.8764 163.597 51.6291 161.664 51.6212ZM161.207 49.0795C162.485 49.0896 163.707 48.555 164.561 47.6112C165.496 46.6324 165.964 45.336 165.964 43.7219C165.964 42.1078 165.496 40.8114 164.561 39.8325C163.697 38.9001 162.479 38.3684 161.203 38.3656C159.927 38.3629 158.707 38.8896 157.839 39.8183C156.915 40.7861 156.453 42.0873 156.453 43.7218C156.453 45.3564 156.92 46.6615 157.853 47.6372C158.713 48.5774 159.937 49.1067 161.217 49.0912L161.207 49.0795ZM175.913 51.6212C174.325 51.6212 172.999 51.1672 171.935 50.2593C170.871 49.3515 170.338 48.1511 170.335 46.6584C170.335 45.0444 170.965 43.7787 172.226 42.8613C173.487 41.9439 175.041 41.4853 176.89 41.4853C178.537 41.4853 179.887 41.7879 180.939 42.3932V41.97C180.979 40.9732 180.565 40.0116 179.81 39.3526C179.042 38.6959 178.053 38.3491 177.04 38.3809C176.264 38.3713 175.501 38.5695 174.829 38.9554C174.201 39.3011 173.719 39.8602 173.472 40.5301L170.911 39.4401C171.257 38.5495 171.939 37.7236 172.958 36.9623C173.978 36.201 175.316 35.8227 176.984 35.8274C178.889 35.8274 180.477 36.3791 181.747 37.4824C183.018 38.5857 183.648 40.1494 183.639 42.1733V51.1483H180.947V49.0913H180.826C179.706 50.7779 178.07 51.618 175.917 51.618L175.913 51.6212ZM176.371 49.0795C177.55 49.0754 178.681 48.6187 179.529 47.8051C180.432 47.0492 180.955 45.9373 180.958 44.7645C180.164 44.1183 178.973 43.7951 177.385 43.7951C176.023 43.7951 174.996 44.0875 174.305 44.6723C173.661 45.1642 173.279 45.9222 173.269 46.7293C173.256 47.4316 173.619 48.0886 174.222 48.4552C174.857 48.8787 175.606 49.1005 176.371 49.0912V49.0794L176.371 49.0795ZM191.889 51.6212C190.222 51.6212 188.845 51.2176 187.759 50.4106C186.702 49.6359 185.878 48.5895 185.377 47.3843L187.878 46.3558C188.672 48.2126 190.021 49.141 191.927 49.141C192.684 49.1717 193.432 48.9712 194.071 48.5664C194.597 48.242 194.915 47.6684 194.909 47.0533C194.909 46.0855 194.228 45.4297 192.862 45.0861L189.844 44.3603C188.851 44.0995 187.926 43.6302 187.131 42.9842C186.285 42.3294 185.809 41.3104 185.85 40.2463C185.85 38.935 186.434 37.871 187.603 37.0544C188.826 36.2214 190.282 35.7928 191.764 35.8297C193.002 35.8101 194.222 36.1195 195.299 36.7258C196.315 37.2986 197.101 38.2023 197.524 39.284L195.087 40.2723C194.539 38.961 193.401 38.3052 191.671 38.3052C190.936 38.2809 190.208 38.4593 189.568 38.8206C189.044 39.0901 188.715 39.6273 188.715 40.2132C188.715 41.0612 189.376 41.6365 190.697 41.9392L193.653 42.6366C195.055 42.9519 196.092 43.5036 196.764 44.2917C197.415 45.0279 197.772 45.9746 197.769 46.9539C197.782 48.2596 197.172 49.4943 196.123 50.2829C195.026 51.175 193.613 51.6211 191.886 51.6211L191.889 51.6212ZM206.981 51.6212C204.724 51.6212 202.89 50.8748 201.479 49.3824C200.067 47.8899 199.36 46.0027 199.359 43.7219C199.317 41.6755 200.052 39.6882 201.417 38.1539C202.729 36.6306 204.665 35.778 206.683 35.8345C208.906 35.8345 210.68 36.5509 212.004 37.9837C213.329 39.4165 213.994 41.3332 214 43.7338L213.969 44.2492H202.157C202.238 45.7418 202.741 46.9241 203.667 47.7957C204.535 48.6392 205.706 49.1054 206.921 49.0913C208.933 49.0913 210.294 48.2438 211.006 46.5496L213.507 47.5781C213 48.7507 212.164 49.7536 211.099 50.4673C209.979 51.2365 208.607 51.6211 206.98 51.6211L206.981 51.6212ZM211.006 41.9274C210.946 41.0794 210.555 40.2724 209.832 39.5063C209.109 38.7402 208.037 38.3651 206.614 38.3809C205.625 38.3639 204.664 38.709 203.915 39.3503C203.131 40.0327 202.582 40.9424 202.346 41.951L211.006 41.9274Z" fill="black"/>
<path d="M64.2666 52.8119L69.4262 19.7965C69.4892 19.3916 69.8041 19.0724 70.2081 19.0037C70.6121 18.9351 71.0147 19.1326 71.2079 19.4939L76.5438 29.4462L78.6707 25.3966C78.8354 25.0835 79.1601 24.8875 79.5139 24.8875C79.8678 24.8875 80.1924 25.0835 80.3572 25.3966L94.7568 52.8118L64.2666 52.8119Z" fill="#FFA000"/>
<path d="M82.0915 39.953L76.5413 29.4434L64.2666 52.8138L82.0915 39.953Z" fill="#F57C00"/>
<path d="M94.757 52.8124L90.8052 28.3582C90.7454 28.007 90.4948 27.7185 90.1554 27.6098C89.816 27.501 89.4446 27.5915 89.1925 27.8433L64.2666 52.8121L78.0587 60.5466C78.9248 61.0302 79.9796 61.0302 80.8457 60.5466L94.757 52.8121V52.8124Z" fill="#FFCA28"/>
<path d="M90.8052 28.3571C90.7455 28.0059 90.4949 27.7174 90.1554 27.6087C89.816 27.4999 89.4446 27.5904 89.1925 27.8422L84.2453 32.802L80.3551 25.3959C80.1904 25.0828 79.8656 24.8868 79.5118 24.8868C79.158 24.8868 78.8333 25.0828 78.6685 25.3959L76.5417 29.4455L71.2056 19.4934C71.0121 19.1319 70.609 18.9348 70.2045 19.0039C69.8 19.0731 69.4862 19.3931 69.4238 19.7983L64.2666 52.8113H64.25L64.2666 52.8304L64.4024 52.8971L89.1853 28.0855C89.4373 27.8323 89.8096 27.7414 90.1499 27.8498C90.4902 27.9582 90.7413 28.2478 90.8004 28.6L94.7189 52.8351L94.757 52.8112L90.8052 28.3571ZM64.3119 52.7661L69.4262 20.0318C69.4885 19.6265 69.8031 19.3066 70.2072 19.2374C70.6113 19.1683 71.0145 19.3653 71.2083 19.7269L76.5438 29.6791L78.6707 25.6296C78.8354 25.3165 79.1601 25.1204 79.514 25.1204C79.8678 25.1204 80.1925 25.3165 80.3572 25.6296L84.1685 32.8782L64.3119 52.7661Z" fill="white" fill-opacity="0.2"/>
<path opacity="0.2" d="M80.8458 60.3139C79.9797 60.7975 78.9249 60.7975 78.0588 60.3139L64.3 52.6009L64.2666 52.8129L78.0587 60.5451C78.9248 61.0287 79.9796 61.0287 80.8457 60.5451L94.757 52.8129L94.7212 52.5938L80.8458 60.3139Z" fill="#A52714"/>
<path d="M90.7651 28.3627C90.7056 28.0117 90.4558 27.7231 90.1176 27.615C89.7794 27.5069 89.4092 27.5967 89.1581 27.8485L84.2279 32.8057L80.3515 25.4031C80.1874 25.0902 79.8638 24.8942 79.5112 24.8942C79.1587 24.8942 78.8351 25.0902 78.6709 25.4031L76.5512 29.4509L71.234 19.503C71.0412 19.1416 70.6395 18.9445 70.2368 19.0137C69.8341 19.0829 69.5206 19.4026 69.4585 19.8078L64.3193 52.8063L78.0633 60.5351C78.9263 61.0184 79.9774 61.0184 80.8405 60.5351L94.7031 52.8063L90.7651 28.3627V28.3627Z" fill="url(#paint0_linear_2955_4950)"/>
</g>
<defs>
<linearGradient id="paint0_linear_2955_4950" x1="-41.7201" y1="732.097" x2="3749.91" y2="2732.13" gradientUnits="userSpaceOnUse">
<stop stop-color="white" stop-opacity="0.1"/>
<stop offset="0.14" stop-color="white" stop-opacity="0.08"/>
<stop offset="0.61" stop-color="white" stop-opacity="0.02"/>
<stop offset="1" stop-color="white" stop-opacity="0"/>
</linearGradient>
<clipPath id="clip0_2955_4950">
<rect width="150" height="42.2175" fill="white" transform="translate(64 19)"/>
</clipPath>
</defs>
</svg>
