<svg width="279" height="79" viewBox="0 0 279 79" fill="none" xmlns="http://www.w3.org/2000/svg">
<rect x="0.5" width="278" height="79" rx="10" fill="white"/>
<path d="M121.445 59.1018L117.5 15H160.846L156.897 59.0948L139.147 64L121.445 59.1018Z" fill="#264DE4"/>
<path d="M153.517 56.2867L156.892 18.6055H139.174V60.2503L153.517 56.2867Z" fill="#2965F1"/>
<path d="M126.544 34.9634L127.03 40.3722H139.173V34.9634H126.544ZM126.06 29.4246H139.173V24.0156H125.566L126.06 29.4246ZM139.173 49.0109L139.15 49.0172L133.106 47.3906L132.72 43.0767H127.272L128.033 51.5695L139.148 54.6454L139.173 54.6384V49.0109Z" fill="#EBEBEB"/>
<path d="M139.154 34.9634V40.3722H145.836L145.207 47.3872L139.154 49.0154V54.6427L150.279 51.5695L150.36 50.6556L151.636 36.4158L151.768 34.9634L152.748 24.0156H139.154V29.4246H146.801L146.307 34.9634H139.154Z" fill="white"/>
</svg>
