<svg width="279" height="79" viewBox="0 0 279 79" fill="none" xmlns="http://www.w3.org/2000/svg">
<rect x="0.5" width="278" height="79" rx="10" fill="white"/>
<path d="M97.4558 52.5628C97.4558 52.5628 95.6888 53.6378 98.6858 53.9458C102.286 54.4058 104.216 54.3298 108.21 53.5618C108.21 53.5618 109.285 54.2518 110.745 54.7918C101.758 58.6318 90.3908 54.5618 97.4568 52.5648L97.4558 52.5628ZM96.3038 47.5708C96.3038 47.5708 94.3838 49.0308 97.3788 49.3378C101.296 49.7218 104.379 49.7978 109.669 48.7238C109.669 48.7238 110.359 49.4918 111.512 49.8758C100.682 53.1018 88.5458 50.1818 96.3038 47.5708ZM117.504 56.3268C117.504 56.3268 118.81 57.4018 116.044 58.2468C110.898 59.7828 94.4608 60.2438 89.8518 58.2468C88.2388 57.5568 91.3118 56.5468 92.3098 56.4038C93.3098 56.1738 93.8458 56.1738 93.8458 56.1738C92.0798 54.9438 82.0938 58.7088 88.7758 59.7738C107.133 62.7688 122.264 58.4678 117.502 56.3178L117.504 56.3268ZM98.2998 42.3478C98.2998 42.3478 89.9278 44.3448 95.3038 45.0358C97.6078 45.3428 102.14 45.2658 106.364 44.9588C109.82 44.6518 113.277 44.0368 113.277 44.0368C113.277 44.0368 112.047 44.5748 111.203 45.1118C102.677 47.3388 86.3168 46.3418 91.0028 44.0368C94.9968 42.1168 98.2998 42.3368 98.2998 42.3368V42.3478ZM113.278 50.7198C121.88 46.2648 117.886 41.9638 115.121 42.5018C114.431 42.6558 114.121 42.8088 114.121 42.8088C114.121 42.8088 114.351 42.3488 114.889 42.1948C120.342 40.2748 124.644 47.9548 113.122 50.9508C113.122 50.9508 113.199 50.8738 113.276 50.7208L113.278 50.7198ZM99.1458 62.8548C107.441 63.3928 120.116 62.5478 120.422 58.6308C120.422 58.6308 119.808 60.1668 113.586 61.3188C106.52 62.6248 97.7638 62.4708 92.6158 61.6258C92.6158 61.6258 93.6908 62.5468 99.1458 62.8548Z" fill="#4E7896"/>
<path d="M108.055 17C108.055 17 112.817 21.84 103.523 29.136C96.0731 35.05 101.823 38.43 103.523 42.27C99.1451 38.353 95.9961 34.897 98.1461 31.67C101.296 26.908 109.975 24.604 108.055 17ZM105.597 39.044C107.824 41.579 104.982 43.884 104.982 43.884C104.982 43.884 110.666 40.964 108.054 37.354C105.674 33.898 103.83 32.208 113.814 26.447C113.814 26.447 98.0681 30.364 105.596 39.043L105.597 39.044Z" fill="#F58219"/>
<path d="M154.818 48.162V36.485C154.818 33.505 153.15 31.481 148.98 31.481C146.597 31.481 144.57 32.077 142.784 32.791L143.38 34.936C144.69 34.459 146.36 33.983 148.146 33.983C150.41 33.983 151.482 34.936 151.482 36.843V38.393H150.3C144.58 38.393 141.96 40.538 141.96 43.993C141.96 46.853 143.747 48.521 146.964 48.521C148.99 48.521 150.539 47.568 151.968 46.376L152.206 48.163H154.826L154.818 48.162ZM151.48 44.35C150.29 45.422 148.978 46.018 147.786 46.018C146.236 46.018 145.284 45.065 145.284 43.398C145.284 41.731 146.237 40.538 150.05 40.538H151.48V44.351V44.35ZM166.016 48.163H161.846L156.843 31.84H160.418L163.516 41.85L164.231 44.83C165.781 40.54 166.971 36.132 167.448 31.843H171.022C170.069 37.205 168.402 43.043 166.018 48.166L166.016 48.163ZM185.318 48.163V36.485C185.318 33.505 183.65 31.481 179.478 31.481C177.095 31.481 175.07 32.077 173.282 32.791L173.759 34.936C175.189 34.459 176.857 33.983 178.644 33.983C180.908 33.983 181.98 34.936 181.98 36.843V38.393H180.79C175.07 38.393 172.45 40.538 172.45 43.993C172.45 46.853 174.118 48.521 177.335 48.521C179.48 48.521 181.029 47.568 182.458 46.376L182.696 48.163H185.316H185.318ZM181.982 44.35C180.792 45.422 179.48 46.018 178.288 46.018C176.738 46.018 175.786 45.065 175.786 43.398C175.786 41.731 176.739 40.538 180.552 40.538H181.982V44.351V44.35ZM138.254 50.903C137.301 52.333 135.871 53.405 134.084 54.001L132.534 52.095C133.726 51.38 134.917 50.308 135.394 49.355C135.871 48.521 135.99 47.329 135.99 44.589V26H139.565V44.35C139.565 48.044 139.206 49.473 138.254 50.903Z" fill="#4E7896"/>
</svg>
