<svg width="279" height="79" viewBox="0 0 279 79" fill="none" xmlns="http://www.w3.org/2000/svg">
<rect x="0.5" width="278" height="79" rx="10" fill="white"/>
<path fill-rule="evenodd" clip-rule="evenodd" d="M139.099 24.0001C139.019 24.0011 138.937 24.0207 138.866 24.0639C138.722 24.1501 138.632 24.3084 138.632 24.4786V36.6815C138.632 36.8014 138.578 36.9086 138.477 36.9687C138.375 37.029 138.252 37.029 138.15 36.9687L136.205 35.8202C135.915 35.6489 135.561 35.649 135.271 35.8202L127.507 40.4142C127.217 40.5859 127.04 40.9161 127.04 41.2596V50.4477C127.04 50.7909 127.217 51.1052 127.507 51.2772L135.271 55.8712C135.562 56.0429 135.915 56.0429 136.205 55.8712L143.969 51.2772C144.259 51.1052 144.436 50.7909 144.436 50.4477V27.5413C144.436 27.1929 144.251 26.8659 143.954 26.6959L139.332 24.0479C139.26 24.0064 139.179 23.9992 139.099 24.0001ZM89.1514 35.4692C89.0033 35.4753 88.8642 35.5019 88.7313 35.5809L80.9668 40.1749C80.6775 40.3464 80.5 40.6587 80.5 41.0044L80.5155 53.3349C80.5155 53.5064 80.6018 53.6657 80.7489 53.7497C80.8931 53.8382 81.072 53.8382 81.2157 53.7497L85.8215 51.0379C86.1132 50.8602 86.3039 50.5511 86.3039 50.2084V44.4499C86.3039 44.1064 86.4801 43.7912 86.7707 43.6204L88.7312 42.456C88.8775 42.3693 89.0346 42.3284 89.198 42.3284C89.358 42.3284 89.5225 42.3692 89.6648 42.456L91.6254 43.6204C91.9159 43.7912 92.0922 44.1064 92.0922 44.4499V50.2084C92.0922 50.5511 92.2847 50.8622 92.5745 51.0379L97.1803 53.7497C97.325 53.8382 97.5037 53.8382 97.6471 53.7497C97.7901 53.6657 97.8805 53.5064 97.8805 53.3349L97.896 41.0044C97.896 40.6587 97.7205 40.3464 97.4292 40.1749L89.6648 35.5809C89.5335 35.5019 89.3938 35.4754 89.2447 35.4692H89.1514ZM158.923 35.5809C158.76 35.5807 158.601 35.6227 158.456 35.7085L150.691 40.3025C150.401 40.4742 150.224 40.7885 150.224 41.132V50.3201C150.224 50.6656 150.414 50.9788 150.707 51.1496L158.409 55.6479C158.693 55.8144 159.041 55.8269 159.327 55.6637L163.995 52.9998C164.143 52.9156 164.243 52.7582 164.244 52.585C164.245 52.4118 164.157 52.2565 164.011 52.1703L156.2 47.5763C156.053 47.4908 155.951 47.3175 155.951 47.1455V44.2743C155.951 44.1026 156.054 43.9453 156.2 43.8596L158.627 42.4239C158.771 42.3382 158.949 42.3382 159.094 42.4239L161.521 43.8596C161.666 43.9453 161.754 44.1026 161.754 44.2743V46.5394C161.754 46.7114 161.843 46.8684 161.988 46.9541C162.133 47.0401 162.31 47.0404 162.455 46.9541L167.107 44.1786C167.396 44.0066 167.574 43.6915 167.574 43.3491V41.1318C167.574 40.7894 167.396 40.4743 167.107 40.3024L159.389 35.7083C159.244 35.622 159.085 35.5811 158.923 35.5809ZM135.707 42.44C135.747 42.44 135.795 42.4502 135.831 42.4717L138.492 44.0509C138.564 44.0938 138.617 44.1728 138.617 44.2583V47.4167C138.617 47.5024 138.565 47.5814 138.492 47.624L135.831 49.2032C135.759 49.2456 135.67 49.2456 135.598 49.2032L132.937 47.624C132.865 47.5812 132.813 47.5024 132.813 47.4167V44.2583C132.813 44.1728 132.865 44.094 132.937 44.0509L135.598 42.4719C135.634 42.4505 135.666 42.44 135.707 42.44Z" fill="#404137"/>
<path fill-rule="evenodd" clip-rule="evenodd" d="M182.184 35.3578C181.915 35.3578 181.653 35.4148 181.422 35.5492L174.093 39.888C173.619 40.1679 173.331 40.6971 173.331 41.2598V49.9215C173.331 50.484 173.619 51.0125 174.093 51.2933L176.007 52.4259C176.937 52.8957 177.28 52.8885 177.703 52.8885C179.08 52.8885 179.866 52.0321 179.866 50.5436V41.9936C179.866 41.8727 179.764 41.7862 179.648 41.7862H178.73C178.612 41.7862 178.512 41.8727 178.512 41.9936V50.5436C178.512 51.2034 177.842 51.8669 176.754 51.3093L174.762 50.1129C174.692 50.0736 174.638 50.0043 174.638 49.9215V41.2598C174.638 41.1776 174.691 41.0941 174.762 41.0525L182.075 36.7296C182.144 36.6893 182.225 36.6893 182.293 36.7296L189.606 41.0525C189.676 41.0954 189.731 41.1751 189.731 41.2598V49.9215C189.731 50.0043 189.69 50.089 189.622 50.1289L182.293 54.4518C182.23 54.49 182.144 54.49 182.075 54.4518L180.193 53.3033C180.137 53.2696 180.06 53.2721 180.006 53.3033C179.486 53.6053 179.388 53.6404 178.901 53.8137C178.781 53.8566 178.599 53.9233 178.963 54.1327L181.422 55.6162C181.656 55.755 181.917 55.8235 182.184 55.8235C182.456 55.8235 182.713 55.755 182.947 55.6162L190.276 51.2933C190.75 51.0105 191.038 50.484 191.038 49.9215V41.2598C191.038 40.6971 190.75 40.1691 190.276 39.888L182.947 35.5492C182.717 35.4148 182.453 35.3578 182.184 35.3578ZM112.475 35.5332C112.314 35.5332 112.153 35.5751 112.009 35.6608L104.244 40.2389C103.954 40.4104 103.777 40.7412 103.777 41.0843V50.2724C103.777 50.616 103.954 50.93 104.244 51.1019L112.009 55.6959C112.299 55.8678 112.652 55.8678 112.942 55.6959L120.707 51.1019C120.996 50.93 121.173 50.616 121.173 50.2724V41.0843C121.173 40.7407 120.997 40.4104 120.707 40.2389L112.942 35.6608C112.797 35.5751 112.637 35.5332 112.475 35.5332ZM193.061 35.5812V35.8045H193.668V37.4475H193.917V35.8045H194.539V35.5812H193.061ZM194.757 35.5812V37.4475H194.99V36.3469C194.99 36.3019 194.992 36.2325 194.99 36.1395C194.987 36.0448 194.99 35.9623 194.99 35.9161V35.8682L195.504 37.4473H195.753L196.282 35.8682C196.282 35.9686 196.269 36.0656 196.266 36.1553C196.265 36.2426 196.266 36.3081 196.266 36.3467V37.4473H196.5V35.581H196.157L195.628 37.1603L195.115 35.581L194.757 35.5812ZM184.145 41.5471C182.058 41.5471 180.815 42.4576 180.815 43.9717C180.815 45.6143 182.049 46.0656 184.052 46.2687C186.448 46.5092 186.634 46.8699 186.634 47.3534C186.634 48.1921 185.982 48.5498 184.441 48.5498C182.504 48.5498 182.078 48.0541 181.935 47.0663C181.919 46.9604 181.839 46.8749 181.733 46.8749H180.784C180.667 46.8749 180.566 46.978 180.566 47.0982C180.566 48.3626 181.237 49.8578 184.441 49.8578C186.76 49.8578 188.097 48.9246 188.097 47.2896C188.097 45.6687 187.017 45.2337 184.767 44.9288C182.494 44.6205 182.278 44.4696 182.278 43.9239C182.278 43.4734 182.461 42.871 184.145 42.871C185.649 42.871 186.204 43.2035 186.432 44.2429C186.452 44.3406 186.536 44.4183 186.634 44.4183H187.584C187.642 44.4183 187.699 44.3816 187.739 44.3386C187.779 44.2926 187.807 44.2409 187.801 44.1791C187.655 42.389 186.49 41.5471 184.145 41.5471ZM158.907 43.7324C158.875 43.7324 158.841 43.7324 158.813 43.7483L157.319 44.6415C157.263 44.6742 157.226 44.735 157.226 44.8011V46.5557C157.226 46.6218 157.263 46.6823 157.319 46.7152L158.813 47.5926C158.869 47.6257 158.929 47.6257 158.984 47.5926L160.478 46.7152C160.533 46.6826 160.571 46.6218 160.571 46.5557V44.8011C160.571 44.735 160.533 44.6744 160.478 44.6415L158.984 43.7483C158.957 43.7314 158.938 43.7324 158.907 43.7324Z" fill="#83CD29"/>
</svg>
