<svg width="279" height="79" viewBox="0 0 279 79" fill="none" xmlns="http://www.w3.org/2000/svg">
<rect x="0.5" width="278" height="79" rx="10" fill="white"/>
<mask id="mask0_1822_1150" style="mask-type:luminance" maskUnits="userSpaceOnUse" x="93" y="15" width="93" height="50">
<path d="M93.4199 39.9965C93.4199 53.3837 114.051 64.2363 139.5 64.2363C164.949 64.2363 185.58 53.3837 185.58 39.9965C185.58 26.6095 164.949 15.7567 139.5 15.7567C114.051 15.7567 93.4199 26.6095 93.4199 39.9965Z" fill="white"/>
</mask>
<g mask="url(#mask0_1822_1150)">
<path d="M93.4199 39.9945C93.4199 53.3817 114.051 64.2344 139.5 64.2344C164.949 64.2344 185.58 53.3817 185.58 39.9945C185.58 26.6075 164.949 15.7547 139.5 15.7547C114.051 15.7547 93.4199 26.6075 93.4199 39.9945Z" fill="url(#paint0_radial_1822_1150)"/>
</g>
<mask id="mask1_1822_1150" style="mask-type:luminance" maskUnits="userSpaceOnUse" x="91" y="13" width="97" height="54">
<path d="M91.5 13H187.5V67H91.5V13Z" fill="white"/>
</mask>
<g mask="url(#mask1_1822_1150)">
<path d="M139.491 62.4434C163.946 62.4434 183.771 52.3965 183.771 40.0032C183.771 27.61 163.946 17.563 139.491 17.563C115.036 17.563 95.2109 27.61 95.2109 40.0032C95.2109 52.3965 115.036 62.4434 139.491 62.4434Z" fill="#777BB3"/>
</g>
<mask id="mask2_1822_1150" style="mask-type:luminance" maskUnits="userSpaceOnUse" x="91" y="13" width="97" height="54">
<path d="M91.5 13H187.5V67H91.5V13Z" fill="white"/>
</mask>
<g mask="url(#mask2_1822_1150)">
<path d="M118.458 42.7826C120.468 42.7826 121.97 42.4117 122.919 41.6807C123.859 40.9572 124.508 39.7037 124.848 37.9552C125.165 36.3209 125.045 35.1797 124.489 34.5639C123.921 33.9349 122.694 33.6159 120.84 33.6159H117.627L115.845 42.7826H118.458ZM107.947 54.0742C107.798 54.0742 107.656 54.0076 107.561 53.8922C107.466 53.7771 107.428 53.6254 107.456 53.4789L112.178 29.187C112.223 28.9522 112.429 28.7825 112.669 28.7825H122.844C126.042 28.7825 128.423 29.6509 129.919 31.3637C131.423 33.0856 131.887 35.4924 131.299 38.5172C131.06 39.7496 130.648 40.8941 130.076 41.9187C129.503 42.9446 128.745 43.8937 127.824 44.7404C126.721 45.7724 125.473 46.5207 124.118 46.9611C122.784 47.3956 121.071 47.6159 119.027 47.6159H114.906L113.73 53.6696C113.684 53.9046 113.478 54.0742 113.239 54.0742H107.947Z" fill="black"/>
<path d="M118.043 34.1176H120.844C123.081 34.1176 123.858 34.6084 124.122 34.9009C124.56 35.3866 124.643 36.4106 124.361 37.8621C124.045 39.4871 123.459 40.6393 122.618 41.2863C121.758 41.9486 120.359 42.2843 118.462 42.2843H116.456L118.043 34.1176ZM122.848 28.2843H112.672C112.194 28.2843 111.782 28.6236 111.691 29.0934L106.97 53.3853C106.913 53.6784 106.99 53.9816 107.179 54.2121C107.369 54.4426 107.652 54.5759 107.951 54.5759H113.243C113.722 54.5759 114.133 54.2366 114.224 53.7668L115.322 48.1176H119.031C121.128 48.1176 122.893 47.8889 124.277 47.4381C125.701 46.9756 127.01 46.1914 128.169 45.1074C129.128 44.2254 129.918 43.2354 130.516 42.1646C131.115 41.0934 131.545 39.8989 131.794 38.6143C132.413 35.4303 131.91 32.8806 130.299 31.0366C128.704 29.2103 126.197 28.2843 122.848 28.2843ZM115.243 43.2843H118.462C120.595 43.2843 122.184 42.8824 123.228 42.0786C124.273 41.2746 124.977 39.9328 125.343 38.0524C125.693 36.2471 125.534 34.9731 124.865 34.2309C124.195 33.4888 122.855 33.1176 120.844 33.1176H117.219L115.243 43.2843ZM122.848 29.2843C125.909 29.2843 128.143 30.0876 129.546 31.6944C130.95 33.3013 131.372 35.5441 130.812 38.4236C130.582 39.6098 130.192 40.6943 129.643 41.6768C129.094 42.6599 128.376 43.5589 127.49 44.3741C126.433 45.3629 125.259 46.0676 123.967 46.4873C122.676 46.9081 121.031 47.1176 119.031 47.1176H114.498L113.243 53.5759H107.951L112.672 29.2843H122.848Z" fill="white"/>
<path d="M143.439 47.6172C143.289 47.6172 143.148 47.5505 143.053 47.4352C142.958 47.32 142.919 47.1685 142.948 47.0219L145.036 36.2737C145.235 35.2515 145.186 34.5179 144.899 34.2079C144.723 34.0184 144.194 33.7005 142.631 33.7005H138.847L136.221 47.2125C136.176 47.4475 135.97 47.6172 135.73 47.6172H130.48C130.331 47.6172 130.19 47.5505 130.095 47.4352C130 47.32 129.961 47.1684 129.99 47.0219L134.711 22.73C134.757 22.4952 134.962 22.3255 135.202 22.3255H140.452C140.601 22.3255 140.743 22.3922 140.838 22.5074C140.933 22.6227 140.971 22.7742 140.943 22.9209L139.803 28.7839H143.874C146.974 28.7839 149.077 29.3305 150.302 30.4552C151.55 31.6025 151.94 33.437 151.46 35.9084L149.263 47.2125C149.217 47.4475 149.012 47.6172 148.772 47.6172H143.439Z" fill="black"/>
<path d="M140.448 21.8216H135.198C134.719 21.8216 134.308 22.1609 134.216 22.6308L129.495 46.9226C129.438 47.2158 129.515 47.5189 129.705 47.7494C129.895 47.9799 130.178 48.1133 130.477 48.1133H135.727C136.205 48.1133 136.617 47.7739 136.708 47.3041L139.255 34.1966H142.627C144.187 34.1966 144.515 34.5299 144.528 34.5443C144.623 34.6461 144.747 35.1178 144.542 36.1744L142.453 46.9226C142.396 47.2158 142.473 47.5189 142.663 47.7494C142.853 47.9799 143.136 48.1133 143.435 48.1133H148.768C149.247 48.1133 149.659 47.7739 149.75 47.3041L151.946 35.9999C152.462 33.3464 152.021 31.3559 150.636 30.0833C149.315 28.8698 147.102 28.2799 143.87 28.2799H140.406L141.43 23.0124C141.486 22.7193 141.41 22.416 141.22 22.1856C141.03 21.9551 140.747 21.8216 140.448 21.8216ZM140.448 22.8216L139.193 29.2799H143.87C146.813 29.2799 148.842 29.7936 149.96 30.8196C151.077 31.8463 151.411 33.5098 150.965 35.8093L148.768 47.1133H143.435L145.523 36.3653C145.761 35.1426 145.674 34.3086 145.261 33.8639C144.848 33.4193 143.97 33.1966 142.627 33.1966H138.431L135.727 47.1133H130.477L135.198 22.8216H140.448Z" fill="white"/>
<path d="M159.76 42.7826C161.771 42.7826 163.272 42.4117 164.222 41.6807C165.162 40.9574 165.811 39.7039 166.151 37.9552C166.468 36.3209 166.348 35.1797 165.792 34.5639C165.224 33.9349 163.997 33.6159 162.143 33.6159H158.93L157.148 42.7826H159.76ZM149.25 54.0742C149.101 54.0742 148.959 54.0076 148.864 53.8922C148.769 53.7771 148.731 53.6254 148.759 53.4789L153.481 29.187C153.526 28.9522 153.732 28.7825 153.972 28.7825H164.147C167.345 28.7825 169.725 29.6509 171.222 31.3637C172.726 33.0854 173.19 35.4922 172.602 38.5172C172.363 39.7496 171.951 40.8941 171.379 41.9187C170.805 42.9446 170.048 43.8937 169.127 44.7404C168.024 45.7724 166.776 46.5207 165.421 46.9611C164.087 47.3956 162.374 47.6159 160.329 47.6159H156.209L155.033 53.6696C154.987 53.9046 154.781 54.0742 154.542 54.0742H149.25Z" fill="black"/>
<path d="M159.346 34.1178H162.147C164.384 34.1178 165.161 34.6087 165.425 34.9012C165.863 35.3868 165.946 36.4108 165.664 37.8622C165.348 39.4873 164.761 40.6395 163.921 41.2865C163.061 41.9488 161.662 42.2845 159.764 42.2845H157.759L159.346 34.1178ZM164.151 28.2845H153.975C153.496 28.2845 153.085 28.6238 152.994 29.0937L148.272 53.3855C148.215 53.6787 148.292 53.9818 148.482 54.2123C148.672 54.4428 148.955 54.5762 149.254 54.5762H154.545C155.024 54.5762 155.436 54.2368 155.527 53.767L156.625 48.1178H160.333C162.43 48.1178 164.195 47.8892 165.58 47.4383C167.003 46.9758 168.313 46.1915 169.472 45.1073C170.431 44.2255 171.22 43.2357 171.819 42.1648C172.417 41.0937 172.847 39.8992 173.097 38.6145C173.716 35.4303 173.213 32.8807 171.602 31.0367C170.006 29.2105 167.5 28.2845 164.151 28.2845ZM156.545 43.2845H159.764C161.898 43.2845 163.487 42.8827 164.531 42.0788C165.575 41.2748 166.28 39.933 166.646 38.0527C166.996 36.2473 166.836 34.9733 166.167 34.2312C165.497 33.489 164.157 33.1178 162.147 33.1178H158.521L156.545 43.2845ZM164.151 29.2845C167.212 29.2845 169.445 30.0878 170.849 31.6947C172.252 33.3015 172.675 35.5443 172.115 38.4238C171.884 39.61 171.495 40.6945 170.946 41.677C170.396 42.6602 169.679 43.5592 168.792 44.3743C167.735 45.3632 166.562 46.0678 165.27 46.4875C163.978 46.9083 162.333 47.1178 160.333 47.1178H155.8L154.545 53.5762H149.254L153.975 29.2845H164.151Z" fill="white"/>
</g>
<defs>
<radialGradient id="paint0_radial_1822_1150" cx="0" cy="0" r="1" gradientUnits="userSpaceOnUse" gradientTransform="translate(121.087 24.2767) scale(60.5096 60.5097)">
<stop stop-color="#AEB2D5"/>
<stop offset="0.3" stop-color="#AEB2D5"/>
<stop offset="0.75" stop-color="#484C89"/>
<stop offset="1" stop-color="#484C89"/>
</radialGradient>
</defs>
</svg>
