<svg width="279" height="79" viewBox="0 0 279 79" fill="none" xmlns="http://www.w3.org/2000/svg">
<rect x="0.5" width="278" height="79" rx="10" fill="white"/>
<path d="M122.388 40.1663C122.388 36.1536 121.245 34.0935 118.958 33.9808C118.048 33.9378 117.16 34.0828 116.296 34.4187C115.606 34.6656 115.142 34.9103 114.898 35.1574V44.7354C116.36 45.6541 117.659 46.0812 118.792 46.014C121.188 45.855 122.388 43.9079 122.388 40.1663ZM125.208 40.3328C125.208 42.3714 124.731 44.0636 123.77 45.4091C122.699 46.9322 121.215 47.7164 119.318 47.7594C117.887 47.8049 116.414 47.3565 114.898 46.4163V55.1215L112.445 54.2458V34.9235C112.847 34.4294 113.366 34.0051 113.993 33.6449C115.453 32.7934 117.227 32.3558 119.315 32.3343L119.35 32.3691C121.258 32.3451 122.728 33.1293 123.761 34.7193C124.725 36.1779 125.208 38.0473 125.208 40.3328ZM140.199 46.046C140.199 48.7803 139.925 50.6737 139.378 51.7266C138.828 52.7793 137.781 53.62 136.235 54.2461C134.982 54.7402 133.627 55.0088 132.172 55.0546L131.767 53.5076C133.246 53.3064 134.287 53.1047 134.891 52.9033C136.08 52.5004 136.895 51.8829 137.344 51.0554C137.703 50.3813 137.88 49.0948 137.88 47.1906V46.5513C136.203 47.3144 134.445 47.693 132.607 47.693C131.399 47.693 130.334 47.3144 129.416 46.5513C128.386 45.7213 127.87 44.6687 127.87 43.3929V33.1751L130.323 32.3343V42.6185C130.323 43.7169 130.677 44.5632 131.386 45.1567C132.094 45.7503 133.012 46.0352 134.137 46.0134C135.261 45.9892 136.466 45.5541 137.746 44.7026V32.7047H140.199L140.199 46.046ZM149.774 47.6252C149.505 47.6479 149.236 47.6595 148.966 47.6599C147.579 47.6599 146.497 47.3298 145.724 46.6662C144.954 46.003 144.568 45.0873 144.568 43.9186V34.2492H142.888V32.705H144.568V28.6035L147.018 27.7305V32.705H149.774V34.2492H147.018V43.8514C147.018 44.7729 147.265 45.4254 147.758 45.807C148.182 46.1212 148.856 46.3011 149.774 46.3469V47.6252H149.774ZM164.625 47.4238H162.172V37.9478C162.172 36.9836 161.947 36.1536 161.499 35.4608C160.981 34.6763 160.262 34.2842 159.338 34.2842C158.214 34.2842 156.808 34.8778 155.12 36.0649V47.4238H152.667V24.7735L155.12 24V34.3164C156.687 33.1748 158.399 32.6027 160.259 32.6027C161.558 32.6027 162.61 33.0406 163.415 33.9136C164.223 34.7863 164.625 35.8742 164.625 37.1743L164.625 47.4238ZM177.662 39.7797C177.662 38.2379 177.37 36.9649 176.787 35.9577C176.095 34.7303 175.019 34.0828 173.564 34.0158C170.875 34.1715 169.533 36.0999 169.533 39.796C169.533 41.4907 169.812 42.9062 170.376 44.0424C171.095 45.4901 172.174 46.2047 173.613 46.1804C176.312 46.1587 177.662 44.0261 177.662 39.7797ZM180.348 39.7957C180.348 41.9903 179.788 43.8167 178.668 45.2749C177.436 46.9082 175.735 47.7271 173.564 47.7271C171.412 47.7271 169.735 46.9079 168.524 45.2749C167.427 43.8167 166.879 41.9903 166.879 39.7957C166.879 37.7331 167.472 35.9979 168.658 34.5851C169.912 33.0863 171.559 32.3343 173.596 32.3343C175.633 32.3343 177.291 33.0863 178.569 34.5851C179.755 35.9979 180.348 37.7331 180.348 39.7957ZM194.41 47.4238H191.957V37.4107C191.957 36.3123 191.628 35.4553 190.967 34.8375C190.307 34.2225 189.427 33.9243 188.329 33.9483C187.165 33.9698 186.056 34.3512 185.004 35.0899V47.4238H182.552V34.7865C183.963 33.7582 185.262 33.0863 186.448 32.7722C187.567 32.4796 188.555 32.3343 189.405 32.3343C189.987 32.3343 190.535 32.3905 191.051 32.5035C192.014 32.7265 192.798 33.1401 193.401 33.7471C194.075 34.4187 194.41 35.2241 194.41 36.1671V47.4238Z" fill="#646464"/>
<path d="M88.0937 24.9046C86.8339 24.9103 85.6309 25.0176 84.5725 25.2047C81.4542 25.7548 80.888 26.9058 80.888 29.0288V31.8325H88.257V32.7669H78.1223C75.9808 32.7669 74.1053 34.0521 73.5188 36.4966C72.8421 39.2987 72.8122 41.0472 73.5188 43.973C74.0426 46.1508 75.2937 47.7026 77.4352 47.7026H79.969V44.3417C79.969 41.9136 82.0734 39.7719 84.5725 39.7719H91.9329C93.9818 39.7719 95.6174 38.0879 95.6174 36.0338V29.0285C95.6174 27.035 93.9326 25.5372 91.9329 25.2044C90.6667 24.9943 89.3536 24.8985 88.0937 24.9046ZM84.1086 27.1593C84.8699 27.1593 85.4913 27.79 85.4913 28.5654C85.4913 29.338 84.8696 29.963 84.1086 29.963C83.3448 29.963 82.7259 29.3382 82.7259 28.5654C82.7259 27.79 83.3448 27.1593 84.1086 27.1593Z" fill="url(#paint0_linear_2455_1608)"/>
<path d="M96.5782 32.6846V35.9778C96.5782 38.5311 94.4317 40.68 91.984 40.68H84.6384C82.6263 40.68 80.9614 42.4165 80.9614 44.4487V51.5106C80.9614 53.5206 82.6943 54.7028 84.6384 55.2792C86.9663 55.9696 89.1986 56.0944 91.984 55.2792C93.8354 54.7388 95.661 53.6506 95.661 51.5106V48.6843H88.3155V47.7422H99.338C101.475 47.7422 102.272 46.2386 103.015 43.982C103.783 41.6592 103.75 39.4248 103.015 36.4447C102.487 34.2991 101.478 32.6846 99.338 32.6846H96.5782ZM92.4467 50.5685C93.2089 50.5685 93.8266 51.1983 93.8266 51.9775C93.8266 52.7591 93.2089 53.395 92.4467 53.395C91.6869 53.395 91.0668 52.7591 91.0668 51.9775C91.0668 51.1986 91.6872 50.5685 92.4467 50.5685Z" fill="url(#paint1_linear_2455_1608)"/>
<path d="M199.253 30.5135H199.694V27.7652H200.737V27.4375H198.21V27.7652H199.253L199.253 30.5135ZM201.127 30.5135H201.503V28.0034L202.32 30.5132H202.738L203.59 28.0118V30.5135H204V27.4378H203.457L202.527 30.073L201.734 27.4378H201.127V30.5135Z" fill="#646464"/>
<defs>
<linearGradient id="paint0_linear_2455_1608" x1="72.2732" y1="25.78" x2="89.2412" y2="40.2624" gradientUnits="userSpaceOnUse">
<stop stop-color="#5A9FD4"/>
<stop offset="1" stop-color="#306998"/>
</linearGradient>
<linearGradient id="paint1_linear_2455_1608" x1="95.6857" y1="49.2958" x2="89.5333" y2="40.7476" gradientUnits="userSpaceOnUse">
<stop stop-color="#FFD43B"/>
<stop offset="1" stop-color="#FFE873"/>
</linearGradient>
</defs>
</svg>
