<svg width="278" height="79" viewBox="0 0 278 79" fill="none" xmlns="http://www.w3.org/2000/svg">
<g clip-path="url(#clip0_3018_3662)">
<rect width="278" height="79" rx="10" fill="white"/>
<rect x="-0.5" width="278" height="79" rx="10" fill="white"/>
<g clip-path="url(#clip1_3018_3662)">
<path fill-rule="evenodd" clip-rule="evenodd" d="M89.5724 35.1106C89.2775 36.2235 88.7059 37.0402 87.8576 37.5617C87.0083 38.0831 85.8172 38.3444 84.2807 38.3444H79.3994L81.113 31.8774H85.9943C87.5296 31.8774 88.5836 32.1382 89.1563 32.6596C89.7278 33.1816 89.8673 33.9984 89.5724 35.1106ZM94.6274 34.9713C95.2482 32.6312 94.9908 30.8346 93.8558 29.5831C92.7206 28.3315 90.7316 27.7061 87.8907 27.7061H76.9943L70.436 52.4582H75.7299L78.3741 42.4806H81.8458C82.6243 42.4806 83.2371 42.6083 83.6852 42.8633C84.1344 43.1187 84.3973 43.5708 84.4785 44.2189L85.4228 52.4582H91.095L90.1748 44.7756C89.9873 43.0604 89.2112 42.0522 87.8474 41.751C89.5861 41.2417 91.0424 40.3948 92.2153 39.2127C93.3871 38.0311 94.1918 36.6177 94.6274 34.9713Z" fill="#072654"/>
<path fill-rule="evenodd" clip-rule="evenodd" d="M107.494 43.5928C107.051 45.2611 106.37 46.5363 105.45 47.4167C104.528 48.2977 103.426 48.7377 102.144 48.7377C100.836 48.7377 99.9488 48.3035 99.4812 47.434C99.0114 46.5652 98.9954 45.3085 99.4321 43.6621C99.8677 42.0169 100.563 40.7307 101.519 39.8028C102.475 38.8767 103.594 38.4126 104.878 38.4126C106.161 38.4126 107.029 38.8595 107.48 39.7515C107.93 40.6434 107.936 41.9238 107.494 43.5928ZM109.814 34.832L109.151 37.3351C108.864 36.431 108.31 35.713 107.489 35.18C106.667 34.647 105.649 34.3799 104.434 34.3799C102.945 34.3799 101.513 34.7684 100.139 35.5448C98.7645 36.3216 97.563 37.4166 96.5354 38.83C95.5077 40.2439 94.7544 41.8545 94.2753 43.6621C93.7964 45.4704 93.7003 47.0636 93.9884 48.4422C94.2765 49.8216 94.9006 50.8817 95.8619 51.6234C96.8223 52.3656 98.0592 52.7356 99.5716 52.7356C100.786 52.7356 101.943 52.4807 103.04 51.9708C104.137 51.4616 105.069 50.754 105.836 49.8504L105.144 52.4576H110.266L114.936 34.832H109.814Z" fill="#072654"/>
<path fill-rule="evenodd" clip-rule="evenodd" d="M133.351 34.8311H118.467L117.427 38.7597H126.088L114.636 48.7714L113.659 52.4567H129.024L130.065 48.5286H120.785L132.411 38.377L133.351 34.8311Z" fill="#072654"/>
<path fill-rule="evenodd" clip-rule="evenodd" d="M146.455 43.558C145.994 45.2957 145.311 46.5946 144.408 47.452C143.505 48.3093 142.412 48.7376 141.13 48.7376C138.448 48.7376 137.565 47.012 138.48 43.558C138.935 41.8428 139.621 40.5509 140.538 39.682C141.455 38.8126 142.567 38.3779 143.873 38.3779C145.156 38.3779 146.021 38.8126 146.467 39.682C146.913 40.5509 146.91 41.8428 146.455 43.558ZM149.451 35.4921C148.272 34.751 146.767 34.3799 144.933 34.3799C143.077 34.3799 141.357 34.751 139.774 35.4921C138.191 36.2343 136.843 37.3004 135.731 38.6906C134.617 40.0814 133.815 41.7036 133.323 43.558C132.832 45.4125 132.774 47.034 133.152 48.4249C133.528 49.8157 134.31 50.8817 135.501 51.6234C136.691 52.3656 138.214 52.7356 140.07 52.7356C141.904 52.7356 143.606 52.3656 145.178 51.6234C146.747 50.8817 148.09 49.8157 149.204 48.4249C150.316 47.034 151.119 45.4125 151.61 43.558C152.102 41.7036 152.159 40.0814 151.783 38.6906C151.406 37.3004 150.628 36.2343 149.451 35.4921Z" fill="#072654"/>
<path fill-rule="evenodd" clip-rule="evenodd" d="M203.017 43.5928C202.574 45.2611 201.893 46.5363 200.973 47.4167C200.052 48.2977 198.948 48.7377 197.666 48.7377C196.36 48.7377 195.472 48.3035 195.004 47.434C194.534 46.5652 194.518 45.3085 194.955 43.6621C195.391 42.0169 196.086 40.7307 197.043 39.8028C197.998 38.8767 199.117 38.4126 200.401 38.4126C201.684 38.4126 202.553 38.8595 203.003 39.7515C203.453 40.6434 203.459 41.9238 203.017 43.5928ZM205.337 34.832L204.674 37.3351C204.387 36.431 203.833 35.713 203.012 35.18C202.19 34.647 201.172 34.3799 199.958 34.3799C198.468 34.3799 197.036 34.7684 195.662 35.5448C194.288 36.3216 193.086 37.4166 192.058 38.83C191.031 40.2439 190.277 41.8545 189.798 43.6621C189.319 45.4704 189.224 47.0636 189.511 48.4422C189.799 49.8216 190.423 50.8817 191.385 51.6234C192.345 52.3656 193.582 52.7356 195.095 52.7356C196.309 52.7356 197.466 52.4807 198.563 51.9708C199.66 51.4616 200.592 50.754 201.359 49.8504L200.668 52.4576H205.789L210.459 34.832H205.337Z" fill="#072654"/>
<path fill-rule="evenodd" clip-rule="evenodd" d="M167.71 39.5595L169.016 34.762C168.572 34.5302 167.985 34.4141 167.252 34.4141C166.083 34.4141 164.956 34.7094 163.872 35.3007C162.94 35.8081 162.147 36.5202 161.477 37.4125L162.156 34.8289L160.673 34.8314H157.036L152.33 52.457H157.523L159.963 43.2448C160.319 41.9007 160.957 40.8521 161.879 40.0988C162.799 39.3456 163.948 38.9687 165.323 38.9687C166.172 38.9687 166.966 39.1658 167.71 39.5595Z" fill="#072654"/>
<path fill-rule="evenodd" clip-rule="evenodd" d="M182.163 43.6625C181.726 45.3088 181.049 46.5656 180.132 47.4344C179.213 48.3039 178.114 48.738 176.831 48.738C175.547 48.738 174.673 48.2981 174.207 47.4171C173.741 46.5367 173.73 45.262 174.172 43.593C174.614 41.9242 175.303 40.6437 176.238 39.7517C177.173 38.8598 178.283 38.4129 179.567 38.4129C180.826 38.4129 181.683 38.8771 182.136 39.8038C182.589 40.731 182.598 42.0178 182.163 43.6625ZM185.791 35.545C184.827 34.7687 183.601 34.3809 182.112 34.3809C180.806 34.3809 179.562 34.682 178.385 35.2844C177.204 35.8879 176.247 36.7093 175.513 37.7527L175.53 37.6371L176.402 34.8298H175.398V34.8323H171.334L170.043 39.7063C170.028 39.763 170.016 39.8159 170.001 39.8731L164.677 59.9672H169.868L172.549 49.8514C172.812 50.7543 173.358 51.4619 174.186 51.9712C175.013 52.481 176.034 52.736 177.249 52.736C178.762 52.736 180.2 52.366 181.566 51.6238C182.931 50.8826 184.117 49.8219 185.124 48.4426C186.131 47.0645 186.874 45.4706 187.353 43.6625C187.832 41.8548 187.931 40.2443 187.653 38.8303C187.376 37.4169 186.754 36.322 185.791 35.545Z" fill="#072654"/>
<path fill-rule="evenodd" clip-rule="evenodd" d="M231.954 34.8359L231.958 34.8311H228.814C228.713 34.8311 228.624 34.8339 228.532 34.8359H226.901L226.066 36.0118C225.999 36.1004 225.932 36.1896 225.86 36.293L225.769 36.4292L219.137 45.7706L217.762 34.8311H212.33L215.081 51.4543L209.006 59.9659H209.179H212.281H214.418L215.89 57.8566C215.934 57.7938 215.971 57.7423 216.017 57.6758L217.735 55.2123L217.784 55.1418L225.472 44.1199L231.949 34.8432L231.958 34.8359H231.954Z" fill="#072654"/>
<path fill-rule="evenodd" clip-rule="evenodd" d="M57.0953 30.5414L55.5413 36.3253L64.4332 30.5089L58.6182 52.4525L64.5234 52.4579L73.1137 20.0469L57.0953 30.5414Z" fill="#3395FF"/>
<path fill-rule="evenodd" clip-rule="evenodd" d="M47.5244 43.2325L45.0797 52.4572H57.184C57.184 52.4572 62.135 33.6958 62.1364 33.6904C62.1317 33.6934 47.5244 43.2325 47.5244 43.2325Z" fill="#072654"/>
</g>
</g>
<defs>
<clipPath id="clip0_3018_3662">
<rect width="278" height="79" rx="10" fill="white"/>
</clipPath>
<clipPath id="clip1_3018_3662">
<rect width="187" height="40" fill="white" transform="translate(45 20)"/>
</clipPath>
</defs>
</svg>
