<svg width="279" height="79" viewBox="0 0 279 79" fill="none" xmlns="http://www.w3.org/2000/svg">
<rect x="0.5" width="278" height="79" rx="10" fill="white"/>
<path d="M120.824 40.0048C120.824 36.8805 116.898 33.9197 110.879 32.0835C112.268 25.9696 111.65 21.1053 108.93 19.548C108.303 19.1827 107.57 19.0096 106.77 19.0096V21.1534C107.213 21.1534 107.57 21.2399 107.869 21.4033C109.181 22.1531 109.75 25.0082 109.306 28.6805C109.2 29.5841 109.027 30.5358 108.815 31.5068C106.924 31.0453 104.86 30.6896 102.689 30.4589C101.387 28.6805 100.037 27.0655 98.6764 25.6523C101.821 22.7395 104.773 21.1437 106.779 21.1437V19C104.126 19 100.654 20.8842 97.1427 24.1527C93.6315 20.9034 90.1589 19.0385 87.5062 19.0385V21.1822C89.5029 21.1822 92.4643 22.7684 95.6089 25.6619C94.2585 27.0751 92.908 28.6805 91.6251 30.4589C89.4451 30.6896 87.3808 31.0453 85.4901 31.5164C85.2683 30.555 85.1043 29.6226 84.9885 28.7285C84.5352 25.0563 85.0947 22.2012 86.3969 21.4417C86.6863 21.2687 87.0625 21.1918 87.5062 21.1918V19.0481C86.6959 19.0481 85.9628 19.2211 85.3262 19.5864C82.6156 21.1437 82.0079 25.9984 83.4066 32.0932C77.4067 33.9389 73.5 36.8901 73.5 40.0048C73.5 43.1291 77.426 46.0899 83.4452 47.9261C82.0561 54.0401 82.6735 58.9043 85.3937 60.4617C86.0207 60.827 86.7538 61 87.5641 61C90.2168 61 93.6894 59.1158 97.2006 55.8473C100.712 59.0966 104.184 60.9615 106.837 60.9615C107.647 60.9615 108.38 60.7885 109.017 60.4232C111.728 58.8659 112.335 54.0112 110.937 47.9165C116.917 46.0803 120.824 43.1195 120.824 40.0048ZM108.265 33.5928C107.908 34.8329 107.464 36.1115 106.962 37.39C106.567 36.621 106.152 35.8519 105.699 35.0829C105.255 34.3138 104.782 33.564 104.31 32.8334C105.68 33.0352 107.001 33.2852 108.265 33.5928ZM103.847 43.8309C103.094 45.1286 102.323 46.3591 101.522 47.5031C100.085 47.6281 98.6282 47.6954 97.162 47.6954C95.7054 47.6954 94.2488 47.6281 92.8212 47.5127C92.0206 46.3687 91.2392 45.1479 90.4868 43.8597C89.7537 42.6004 89.0882 41.3218 88.4804 40.0336C89.0785 38.7455 89.7537 37.4573 90.4772 36.198C91.2296 34.9002 92.0013 33.6697 92.8019 32.5257C94.2392 32.4008 95.6958 32.3335 97.162 32.3335C98.6185 32.3335 100.075 32.4008 101.503 32.5161C102.303 33.6601 103.085 34.881 103.837 36.1691C104.57 37.4285 105.236 38.707 105.843 39.9952C105.236 41.2834 104.57 42.5715 103.847 43.8309ZM106.962 42.5811C107.483 43.8693 107.927 45.1575 108.294 46.4072C107.03 46.7148 105.699 46.9744 104.319 47.1762C104.792 46.436 105.265 45.6766 105.708 44.8979C106.152 44.1289 106.567 43.3502 106.962 42.5811ZM97.1813 52.8384C96.2842 51.9155 95.3871 50.8869 94.4996 49.7622C95.3678 49.8006 96.2552 49.8295 97.1523 49.8295C98.0591 49.8295 98.9562 49.8103 99.834 49.7622C98.9658 50.8869 98.0687 51.9155 97.1813 52.8384ZM90.0045 47.1762C88.6348 46.9744 87.3133 46.7244 86.0496 46.4168C86.4065 45.1767 86.8503 43.8981 87.3519 42.6196C87.7473 43.3886 88.1621 44.1577 88.6155 44.9268C89.0689 45.6958 89.5319 46.4456 90.0045 47.1762ZM97.133 27.1712C98.0301 28.0941 98.9272 29.1227 99.8147 30.2474C98.9465 30.209 98.0591 30.1801 97.162 30.1801C96.2552 30.1801 95.3581 30.1994 94.4803 30.2474C95.3485 29.1227 96.2456 28.0941 97.133 27.1712ZM89.9949 32.8334C89.5222 33.5736 89.0496 34.333 88.6058 35.1117C88.1621 35.8808 87.7473 36.6498 87.3519 37.4189C86.831 36.1307 86.3872 34.8425 86.0207 33.5928C87.2843 33.2948 88.6155 33.0352 89.9949 32.8334ZM81.2651 44.8691C77.8504 43.4175 75.6414 41.5141 75.6414 40.0048C75.6414 38.4955 77.8504 36.5825 81.2651 35.1405C82.0947 34.7848 83.0014 34.4676 83.9371 34.1696C84.4869 36.0538 85.2104 38.0149 86.1075 40.024C85.2201 42.0236 84.5062 43.975 83.9661 45.8496C83.0111 45.5516 82.1044 45.2248 81.2651 44.8691ZM86.4548 58.6063C85.1429 57.8565 84.5738 55.0014 85.0175 51.3291C85.1236 50.4255 85.2972 49.4738 85.5094 48.5029C87.4001 48.9643 89.4644 49.32 91.6347 49.5507C92.937 51.3291 94.2874 52.9441 95.6475 54.3573C92.5029 57.2701 89.5512 58.8659 87.5448 58.8659C87.1107 58.8563 86.7441 58.7697 86.4548 58.6063ZM109.335 51.2811C109.789 54.9533 109.229 57.8084 107.927 58.5679C107.638 58.7409 107.261 58.8178 106.818 58.8178C104.821 58.8178 101.86 57.2316 98.715 54.3381C100.065 52.9249 101.416 51.3195 102.699 49.5411C104.879 49.3104 106.943 48.9547 108.834 48.4836C109.056 49.4546 109.229 50.387 109.335 51.2811ZM113.049 44.8691C112.22 45.2248 111.313 45.542 110.377 45.84C109.827 43.9558 109.104 41.9947 108.207 39.9856C109.094 37.986 109.808 36.0346 110.348 34.16C111.303 34.458 112.21 34.7848 113.059 35.1405C116.474 36.5921 118.682 38.4955 118.682 40.0048C118.673 41.5141 116.464 43.4271 113.049 44.8691Z" fill="#61DAFB"/>
<path d="M97.1524 44.3978C99.5871 44.3978 101.561 42.4309 101.561 40.0046C101.561 37.5782 99.5871 35.6113 97.1524 35.6113C94.7178 35.6113 92.7441 37.5782 92.7441 40.0046C92.7441 42.4309 94.7178 44.3978 97.1524 44.3978Z" fill="#61DAFB"/>
<path d="M130.524 50.3242V29.6738H137.502C139.115 29.6738 140.439 29.9494 141.475 30.5006C142.51 31.0451 143.276 31.7946 143.774 32.7492C144.271 33.7037 144.52 34.7893 144.52 36.006C144.52 37.2227 144.271 38.3017 143.774 39.2428C143.276 40.1839 142.513 40.9233 141.485 41.4611C140.456 41.9921 139.142 42.2576 137.542 42.2576H131.896V39.999H137.461C138.564 39.999 139.451 39.8377 140.123 39.515C140.802 39.1923 141.293 38.7352 141.596 38.1437C141.905 37.5454 142.059 36.8329 142.059 36.006C142.059 35.1792 141.905 34.4566 141.596 33.8381C141.286 33.2197 140.792 32.7424 140.113 32.4063C139.434 32.0635 138.537 31.8921 137.421 31.8921H133.025V50.3242H130.524ZM140.244 41.0477L145.326 50.3242H142.422L137.421 41.0477H140.244ZM154.691 50.6469C153.199 50.6469 151.912 50.3175 150.829 49.6587C149.754 48.9932 148.924 48.0656 148.339 46.8758C147.761 45.6792 147.472 44.2877 147.472 42.7013C147.472 41.1149 147.761 39.7167 148.339 38.5067C148.924 37.29 149.737 36.3421 150.779 35.6632C151.828 34.9775 153.051 34.6347 154.449 34.6347C155.256 34.6347 156.052 34.7692 156.839 35.038C157.625 35.3069 158.341 35.7439 158.987 36.3489C159.632 36.9471 160.146 37.7404 160.529 38.7285C160.913 39.7167 161.104 40.9334 161.104 42.3786V43.387H149.166V41.33H158.684C158.684 40.4561 158.509 39.6763 158.16 38.9907C157.817 38.305 157.326 37.7639 156.688 37.3673C156.056 36.9707 155.31 36.7724 154.449 36.7724C153.501 36.7724 152.681 37.0076 151.989 37.4782C151.303 37.942 150.776 38.547 150.406 39.2932C150.036 40.0393 149.851 40.8393 149.851 41.693V43.0643C149.851 44.234 150.053 45.2255 150.456 46.0388C150.866 46.8455 151.434 47.4606 152.16 47.8841C152.886 48.3009 153.73 48.5092 154.691 48.5092C155.316 48.5092 155.881 48.4219 156.385 48.2471C156.896 48.0656 157.336 47.7967 157.706 47.4404C158.076 47.0774 158.361 46.627 158.563 46.0893L160.862 46.7346C160.62 47.5144 160.213 48.2 159.642 48.7916C159.071 49.3764 158.365 49.8335 157.525 50.1629C156.684 50.4856 155.74 50.6469 154.691 50.6469ZM169.282 50.6872C168.3 50.6872 167.409 50.5024 166.61 50.1326C165.81 49.7562 165.174 49.2151 164.704 48.5092C164.233 47.7967 163.998 46.9363 163.998 45.9279C163.998 45.0406 164.173 44.3213 164.522 43.7701C164.872 43.2122 165.339 42.7752 165.924 42.4593C166.509 42.1434 167.154 41.9081 167.86 41.7535C168.572 41.5921 169.288 41.4644 170.008 41.3703C170.949 41.2493 171.712 41.1586 172.296 41.0981C172.888 41.0308 173.318 40.9199 173.587 40.7653C173.863 40.6107 174.001 40.3418 174.001 39.9587V39.878C174.001 38.8831 173.728 38.1101 173.184 37.5589C172.646 37.0076 171.829 36.732 170.734 36.732C169.598 36.732 168.707 36.9807 168.062 37.4782C167.416 37.9756 166.962 38.5067 166.7 39.0713L164.442 38.2647C164.845 37.3236 165.383 36.5909 166.055 36.0665C166.734 35.5355 167.473 35.1658 168.273 34.9574C169.08 34.7423 169.873 34.6347 170.653 34.6347C171.15 34.6347 171.722 34.6952 172.367 34.8162C173.019 34.9305 173.648 35.1691 174.253 35.5321C174.864 35.8951 175.372 36.443 175.775 37.1757C176.179 37.9084 176.38 38.8898 176.38 40.12V50.3242H174.001V48.2269H173.88C173.718 48.563 173.449 48.9227 173.073 49.3058C172.696 49.689 172.196 50.015 171.57 50.2839C170.945 50.5528 170.182 50.6872 169.282 50.6872ZM169.645 48.5496C170.586 48.5496 171.379 48.3647 172.024 47.995C172.676 47.6253 173.167 47.148 173.496 46.5632C173.832 45.9783 174.001 45.3633 174.001 44.7179V42.54C173.9 42.661 173.678 42.7719 173.335 42.8727C172.999 42.9668 172.609 43.0509 172.165 43.1248C171.728 43.192 171.302 43.2525 170.885 43.3063C170.475 43.3533 170.142 43.3937 169.887 43.4273C169.268 43.508 168.69 43.639 168.152 43.8205C167.621 43.9953 167.191 44.2608 166.862 44.6171C166.539 44.9667 166.378 45.4439 166.378 46.0489C166.378 46.8758 166.683 47.5009 167.295 47.9244C167.914 48.3412 168.697 48.5496 169.645 48.5496ZM187.015 50.6469C185.563 50.6469 184.313 50.3041 183.265 49.6184C182.216 48.9327 181.409 47.9883 180.845 46.785C180.28 45.5817 179.998 44.2071 179.998 42.661C179.998 41.088 180.287 39.6999 180.865 38.4966C181.45 37.2866 182.263 36.3421 183.305 35.6632C184.353 34.9775 185.577 34.6347 186.975 34.6347C188.064 34.6347 189.046 34.8364 189.919 35.2397C190.793 35.643 191.509 36.2077 192.067 36.9337C192.625 37.6597 192.971 38.5067 193.106 39.4747H190.726C190.545 38.7688 190.141 38.1437 189.516 37.5992C188.898 37.048 188.064 36.7724 187.015 36.7724C186.088 36.7724 185.274 37.0144 184.575 37.4984C183.883 37.9756 183.342 38.6512 182.952 39.5251C182.569 40.3922 182.377 41.4106 182.377 42.5803C182.377 43.7768 182.565 44.8188 182.942 45.7061C183.325 46.5934 183.863 47.2824 184.555 47.7732C185.254 48.2639 186.074 48.5092 187.015 48.5092C187.634 48.5092 188.195 48.4017 188.699 48.1866C189.204 47.9715 189.63 47.6622 189.98 47.2589C190.329 46.8556 190.578 46.3716 190.726 45.8069H193.106C192.971 46.7211 192.639 47.5446 192.107 48.2773C191.583 49.0033 190.887 49.5814 190.02 50.0116C189.16 50.4351 188.158 50.6469 187.015 50.6469ZM203.32 34.8364V36.853H195.294V34.8364H203.32ZM197.633 31.1258H200.013V45.8876C200.013 46.5598 200.11 47.064 200.305 47.4001C200.507 47.7295 200.762 47.9513 201.071 48.0656C201.387 48.1731 201.72 48.2269 202.07 48.2269C202.332 48.2269 202.547 48.2135 202.715 48.1866C202.883 48.153 203.018 48.1261 203.118 48.1059L203.602 50.2436C203.441 50.3041 203.216 50.3646 202.927 50.4251C202.638 50.4923 202.271 50.5259 201.828 50.5259C201.156 50.5259 200.497 50.3814 199.851 50.0923C199.213 49.8033 198.682 49.363 198.258 48.7714C197.841 48.1799 197.633 47.4337 197.633 46.5329V31.1258Z" fill="#61DAFB"/>
</svg>
